{
.appVersion = "1141";
DisplayStrings = (
"",
"",
"",
"",
"",
"",
"",
"",
"",
"",
"",
"",
"",
"",
"",
"",
"",
"",
"",
"",
"",
"",
"",
"",
"",
"",
"",
"",
"",
"",
"",
"",
"",
"",
"",
"",
"",
"",
"",
"",
"",
"",
"",
"",
"",
"",
"",
"",
"",
"",
"",
"",
"",
"",
"",
"",
"",
"",
"",
"",
"",
"",
"",
"",
"",
"",
"",
"",
"",
"",
"",
"",
"",
"",
"",
"",
"",
"",
"",
"",
"",
"",
"",
"",
"",
"",
"",
"",
"",
"",
"",
"",
"",
"",
"",
"",
"",
"",
"",
"",
"",
"",
"",
"",
"",
"",
"",
"",
"",
"",
"",
"",
"",
"",
"",
"",
"",
"",
"",
"",
"",
"",
"",
"",
"",
"",
"",
"",
"",
"",
"",
"",
"",
"",
"",
"",
"",
"",
"",
"",
"",
"",
"",
"",
"",
"",
"",
"",
"",
"",
"",
"",
"",
"",
"",
"",
"",
"",
"",
"",
"",
"",
"",
"",
"",
"",
"",
"",
"",
"",
"",
"",
"",
"",
"",
"",
"",
"",
"",
"",
"",
"",
"",
"",
"",
"",
"",
"",
"",
"",
"",
"",
"",
"",
"",
"",
"",
"",
"",
"",
"",
"",
"",
"",
"",
"",
"",
"",
"",
"",
"",
"",
"",
"",
"",
"",
"",
"",
"",
"",
"",
"",
"",
"",
"",
"",
"",
"",
"",
"",
"",
"",
"",
"",
"",
"",
"",
"",
"",
"",
"",
"",
"",
"",
"",
"",
"",
"",
"",
"",
"",
"",
"",
"",
"",
"",
"",
"",
"",
"",
"",
"",

glyphs = (
{
glyphname = .notdef;
lastChange = "2018-11-24 07:25:13 +0000";
layers = (
{
layerId = "F6FCABFB-DB8B-4A8A-BD05-D26D4B0CC58D";
paths = (
{
closed = 1;
nodes = (
"1280 0 LINE",
"1280 1280 LINE",
"256 1280 LINE",
"256 0 LINE"
);
},
{
closed = 1;
nodes = (
"288 1248 LINE",
"1248 1248 LINE",
"1248 32 LINE",
"288 32 LINE"
);
}
);
userData = {
assembly = "PUSHB[ ]\011/* 2 values pushed */
5 4 
PUSHW[ ]\011/* 1 value pushed */
280 
PUSHB[ ]\011/* 3 values pushed */
0 6 7 
PUSHW[ ]\011/* 4 values pushed */
280 2 1 471 
PUSHB[ ]\011/* 6 values pushed */
3 3 0 10 6 5 
PUSHW[ ]\011/* 1 value pushed */
279 
PUSHB[ ]\011/* 7 values pushed */
3 3 2 74 9 7 4 
PUSHW[ ]\011/* 1 value pushed */
279 
PUSHB[ ]\011/* 7 values pushed */
1 0 73 8 149 173 24 
CALL[ ]\011/* CallFunction */
FLIPOFF[ ]\011/* SetAutoFlipOff */
SRP0[ ]\011/* SetRefPoint0 */
MIRP[10100]\011/* MoveIndirectRelPt */
ALIGNRP[ ]\011/* AlignRelativePt */
FLIPON[ ]\011/* SetAutoFlipOn */
MIRP[10101]\011/* MoveIndirectRelPt */
ALIGNRP[ ]\011/* AlignRelativePt */
FLIPOFF[ ]\011/* SetAutoFlipOff */
SRP0[ ]\011/* SetRefPoint0 */
MIRP[10110]\011/* MoveIndirectRelPt */
ALIGNRP[ ]\011/* AlignRelativePt */
FLIPON[ ]\011/* SetAutoFlipOn */
SRP0[ ]\011/* SetRefPoint0 */
MIRP[10101]\011/* MoveIndirectRelPt */
ALIGNRP[ ]\011/* AlignRelativePt */
SVTCA[0]\011/* SetFreedomAndProjectionVectorToAxis */
MIAP[1]\011/* MoveIndirectAbsPt */
ALIGNRP[ ]\011/* AlignRelativePt */
SRP0[ ]\011/* SetRefPoint0 */
MIRP[11101]\011/* MoveIndirectRelPt */
ALIGNRP[ ]\011/* AlignRelativePt */
MIRP[10101]\011/* MoveIndirectRelPt */
ALIGNRP[ ]\011/* AlignRelativePt */
SRP0[ ]\011/* SetRefPoint0 */
MIRP[10101]\011/* MoveIndirectRelPt */
ALIGNRP[ ]\011/* AlignRelativePt */
IUP[1]\011/* InterpolateUntPts */
IUP[0]\011/* InterpolateUntPts */";
};
width = 1536;
}
);
note = .notdef;
},
{
glyphname = exclam;
lastChange = "2018-11-24 07:25:13 +0000";
layers = (
{
layerId = "F6FCABFB-DB8B-4A8A-BD05-D26D4B0CC58D";
paths = (
{
closed = 1;
nodes = (
"228 1508 LINE",
"228 368 LINE",
"373 368 LINE",
"373 1508 LINE"
);
},
{
closed = 1;
nodes = (
"234 220 OFFCURVE",
"179 165.333 OFFCURVE",
"179 96 CURVE SMOOTH",
"179 28 OFFCURVE",
"234 -28 OFFCURVE",
"302 -28 CURVE SMOOTH",
"370 -28 OFFCURVE",
"425 28 OFFCURVE",
"425 96 CURVE SMOOTH",
"425 165.333 OFFCURVE",
"370 220 OFFCURVE",
"302 220 CURVE SMOOTH"
);
}
);
userData = {
assembly = "PUSHW[ ]\011/* 2 values pushed */
2 298 
NPUSHB[ ]\011/* 28 values pushed */
4 124 10 11 3 0 0 3 1 2 17 71 71 74 5 7 155 1 127 5 2 155 13 73 16 103 150 24 
CALL[ ]\011/* CallFunction */
FLIPOFF[ ]\011/* SetAutoFlipOff */
SRP0[ ]\011/* SetRefPoint0 */
MIRP[10100]\011/* MoveIndirectRelPt */
FLIPON[ ]\011/* SetAutoFlipOn */
MIRP[10100]\011/* MoveIndirectRelPt */
RS[ ]\011/* ReadStore */
IF[ ]\011/* If */
PUSHB[ ]\011/* 8 values pushed */
0 2 32 2 2 240 2 1 
SVTCA[1]\011/* SetFreedomAndProjectionVectorToAxis */
DELTAP1[ ]\011/* DeltaExceptionP1 */
DELTAP2[ ]\011/* DeltaExceptionP2 */
EIF[ ]\011/* EndIf */
MIRP[11101]\011/* MoveIndirectRelPt */
MIRP[10100]\011/* MoveIndirectRelPt */
RS[ ]\011/* ReadStore */
IF[ ]\011/* If */
PUSHB[ ]\011/* 8 values pushed */
0 7 32 7 2 240 7 1 
SVTCA[1]\011/* SetFreedomAndProjectionVectorToAxis */
DELTAP1[ ]\011/* DeltaExceptionP1 */
DELTAP2[ ]\011/* DeltaExceptionP2 */
EIF[ ]\011/* EndIf */
FLIPOFF[ ]\011/* SetAutoFlipOff */
RCVT[ ]\011/* ReadCVT */
NEG[ ]\011/* Negate */
WCVTP[ ]\011/* WriteCVTInPixels */
MIRP[00110]\011/* MoveIndirectRelPt */
SRP1[ ]\011/* SetRefPoint1 */
SRP2[ ]\011/* SetRefPoint2 */
IP[ ]\011/* InterpolatePts */
IP[ ]\011/* InterpolatePts */
SVTCA[0]\011/* SetFreedomAndProjectionVectorToAxis */
MIAP[1]\011/* MoveIndirectAbsPt */
MIAP[1]\011/* MoveIndirectAbsPt */
FLIPON[ ]\011/* SetAutoFlipOn */
MIRP[11101]\011/* MoveIndirectRelPt */
MIRP[11110]\011/* MoveIndirectRelPt */
IUP[1]\011/* InterpolateUntPts */
IUP[0]\011/* InterpolateUntPts */";
};
width = 604;
}
);
note = exclam;
unicode = 0021;
},
{
glyphname = quotedbl;
lastChange = "2018-11-24 07:25:13 +0000";
layers = (
{
layerId = "F6FCABFB-DB8B-4A8A-BD05-D26D4B0CC58D";
paths = (
{
closed = 1;
nodes = (
"585 1508 LINE",
"437 1508 LINE",
"459 1045 LINE",
"562 1045 LINE"
);
},
{
closed = 1;
nodes = (
"196 1508 LINE",
"48 1508 LINE",
"70 1045 LINE",
"174 1045 LINE"
);
}
);
userData = {
assembly = "NPUSHB[ ]\011/* 9 values pushed */
1 4 0 5 2 7 3 0 5 
PUSHW[ ]\011/* 1 value pushed */
261 
NPUSHB[ ]\011/* 12 values pushed */
3 6 0 0 1 3 2 4 5 7 6 2 
PUSHW[ ]\011/* 1 value pushed */
389 
NPUSHB[ ]\011/* 9 values pushed */
31 3 47 3 2 3 74 9 7 
PUSHW[ ]\011/* 1 value pushed */
389 
PUSHB[ ]\011/* 6 values pushed */
6 73 8 89 153 24 
CALL[ ]\011/* CallFunction */
FLIPOFF[ ]\011/* SetAutoFlipOff */
SRP0[ ]\011/* SetRefPoint0 */
MIRP[10100]\011/* MoveIndirectRelPt */
FLIPON[ ]\011/* SetAutoFlipOn */
MIRP[01101]\011/* MoveIndirectRelPt */
FLIPOFF[ ]\011/* SetAutoFlipOff */
SRP0[ ]\011/* SetRefPoint0 */
MIRP[10110]\011/* MoveIndirectRelPt */
DELTAP1[ ]\011/* DeltaExceptionP1 */
FLIPON[ ]\011/* SetAutoFlipOn */
MIRP[01101]\011/* MoveIndirectRelPt */
SRP1[ ]\011/* SetRefPoint1 */
SRP2[ ]\011/* SetRefPoint2 */
IP[ ]\011/* InterpolatePts */
IP[ ]\011/* InterpolatePts */
SRP1[ ]\011/* SetRefPoint1 */
SRP2[ ]\011/* SetRefPoint2 */
IP[ ]\011/* InterpolatePts */
IP[ ]\011/* InterpolatePts */
SVTCA[0]\011/* SetFreedomAndProjectionVectorToAxis */
MIAP[1]\011/* MoveIndirectAbsPt */
ALIGNRP[ ]\011/* AlignRelativePt */
MIRP[11101]\011/* MoveIndirectRelPt */
ALIGNRP[ ]\011/* AlignRelativePt */
SRP2[ ]\011/* SetRefPoint2 */
IP[ ]\011/* InterpolatePts */
IP[ ]\011/* InterpolatePts */
SRP1[ ]\011/* SetRefPoint1 */
SRP2[ ]\011/* SetRefPoint2 */
IP[ ]\011/* InterpolatePts */
IP[ ]\011/* InterpolatePts */
IUP[1]\011/* InterpolateUntPts */
IUP[0]\011/* InterpolateUntPts */";
};
width = 633;
}
);
note = quotedbl;
unicode = 0022;
},
{
glyphname = numbersign;
lastChange = "2018-11-24 07:25:13 +0000";
layers = (
{
layerId = "F6FCABFB-DB8B-4A8A-BD05-D26D4B0CC58D";
paths = (
{
closed = 1;
nodes = (
"1002 602 LINE",
"1050 936 LINE",
"1290 936 LINE",
"1290 1045 LINE",
"1066 1045 LINE",
"1135 1513 LINE",
"1023 1513 LINE",
"955 1045 LINE",
"623 1045 LINE",
"691 1513 LINE",
"584 1513 LINE",
"514 1045 LINE",
"245 1045 LINE",
"245 936 LINE",
"498 936 LINE",
"447 602 LINE",
"184 602 LINE",
"184 494 LINE",
"430 494 LINE",
"354 0 LINE",
"464 0 LINE",
"540 494 LINE",
"873 494 LINE",
"801 0 LINE",
"913 0 LINE",
"985 494 LINE",
"1233 494 LINE",
"1233 602 LINE"
);
},
{
closed = 1;
nodes = (
"889 602 LINE",
"557 602 LINE",
"606 936 LINE",
"940 936 LINE"
);
}
);
userData = {
assembly = "NPUSHB[ ]\011/* 118 values pushed */
23 27 23 30 2 31 11 0 21 4 30 11 0 18 7 29 14 25 18 7 28 14 25 21 4 27 11 0 22 3 26 14 25 22 3 23 15 24 22 3 20 15 24 21 4 19 15 24 18 7 16 15 24 17 8 13 14 25 17 8 12 11 0 17 8 9 10 1 17 8 6 10 1 18 7 5 10 1 21 4 2 10 1 22 3 22 3 3 93 4 21 20 4 4 21 18 7 7 93 8 17 20 8 8 17 4 7 3 8 21 18 22 17 1 10 192 0 11 
PUSHW[ ]\011/* 1 value pushed */
509 
NPUSHB[ ]\011/* 16 values pushed */
3 8 10 24 15 192 25 15 14 1 14 202 22 17 0 4 
PUSHW[ ]\011/* 7 values pushed */
508 21 383 3 508 22 301 
NPUSHB[ ]\011/* 14 values pushed */
0 155 15 25 1 9 15 25 1 8 25 74 33 18 
PUSHW[ ]\011/* 7 values pushed */
508 7 383 17 508 8 301 
NPUSHB[ ]\011/* 13 values pushed */
15 155 0 10 16 10 2 10 73 32 103 150 24 
CALL[ ]\011/* CallFunction */
FLIPOFF[ ]\011/* SetAutoFlipOff */
SRP0[ ]\011/* SetRefPoint0 */
MIRP[10100]\011/* MoveIndirectRelPt */
DELTAP1[ ]\011/* DeltaExceptionP1 */
FLIPON[ ]\011/* SetAutoFlipOn */
MIRP[00100]\011/* MoveIndirectRelPt */
MIRP[10100]\011/* MoveIndirectRelPt */
MIRP[00100]\011/* MoveIndirectRelPt */
MIRP[11101]\011/* MoveIndirectRelPt */
MIRP[00100]\011/* MoveIndirectRelPt */
FLIPOFF[ ]\011/* SetAutoFlipOff */
SRP0[ ]\011/* SetRefPoint0 */
MIRP[10110]\011/* MoveIndirectRelPt */
SDB[ ]\011/* SetDeltaBaseInGState */
DELTAP1[ ]\011/* DeltaExceptionP1 */
SDB[ ]\011/* SetDeltaBaseInGState */
DELTAP1[ ]\011/* DeltaExceptionP1 */
FLIPON[ ]\011/* SetAutoFlipOn */
MIRP[00100]\011/* MoveIndirectRelPt */
MIRP[10100]\011/* MoveIndirectRelPt */
MIRP[00100]\011/* MoveIndirectRelPt */
MIRP[11101]\011/* MoveIndirectRelPt */
MIRP[00100]\011/* MoveIndirectRelPt */
SVTCA[0]\011/* SetFreedomAndProjectionVectorToAxis */
MIAP[1]\011/* MoveIndirectAbsPt */
ALIGNRP[ ]\011/* AlignRelativePt */
MIRP[11101]\011/* MoveIndirectRelPt */
DELTAP1[ ]\011/* DeltaExceptionP1 */
ALIGNRP[ ]\011/* AlignRelativePt */
MIRP[11101]\011/* MoveIndirectRelPt */
ALIGNRP[ ]\011/* AlignRelativePt */
MIAP[1]\011/* MoveIndirectAbsPt */
ALIGNRP[ ]\011/* AlignRelativePt */
MIRP[10100]\011/* MoveIndirectRelPt */
ALIGNRP[ ]\011/* AlignRelativePt */
MIRP[11101]\011/* MoveIndirectRelPt */
ALIGNRP[ ]\011/* AlignRelativePt */
SRP1[ ]\011/* SetRefPoint1 */
SRP2[ ]\011/* SetRefPoint2 */
IP[ ]\011/* InterpolatePts */
IP[ ]\011/* InterpolatePts */
SRP1[ ]\011/* SetRefPoint1 */
SRP2[ ]\011/* SetRefPoint2 */
IP[ ]\011/* InterpolatePts */
IP[ ]\011/* InterpolatePts */
SDPVTL[1]\011/* SetDualPVectorToLine */
SFVTCA[1]\011/* SetFVectorToAxis */
MDAP[0]\011/* MoveDirectAbsPt */
CALL[ ]\011/* CallFunction */
RDTG[ ]\011/* RoundDownToGrid */
SRP0[ ]\011/* SetRefPoint0 */
MDRP[00100]\011/* MoveDirectRelPt */
SDPVTL[1]\011/* SetDualPVectorToLine */
MDAP[0]\011/* MoveDirectAbsPt */
RTG[ ]\011/* RoundToGrid */
CALL[ ]\011/* CallFunction */
RDTG[ ]\011/* RoundDownToGrid */
SRP0[ ]\011/* SetRefPoint0 */
MDRP[00100]\011/* MoveDirectRelPt */
ISECT[ ]\011/* MovePtToIntersect */
ISECT[ ]\011/* MovePtToIntersect */
ISECT[ ]\011/* MovePtToIntersect */
ISECT[ ]\011/* MovePtToIntersect */
ISECT[ ]\011/* MovePtToIntersect */
ISECT[ ]\011/* MovePtToIntersect */
ISECT[ ]\011/* MovePtToIntersect */
ISECT[ ]\011/* MovePtToIntersect */
ISECT[ ]\011/* MovePtToIntersect */
ISECT[ ]\011/* MovePtToIntersect */
ISECT[ ]\011/* MovePtToIntersect */
ISECT[ ]\011/* MovePtToIntersect */
ISECT[ ]\011/* MovePtToIntersect */
ISECT[ ]\011/* MovePtToIntersect */
ISECT[ ]\011/* MovePtToIntersect */
ISECT[ ]\011/* MovePtToIntersect */
IUP[1]\011/* InterpolateUntPts */
IUP[0]\011/* InterpolateUntPts */
SVTCA[1]\011/* SetFreedomAndProjectionVectorToAxis */
DELTAP1[ ]\011/* DeltaExceptionP1 */";
};
width = 1475;
}
);
note = numbersign;
unicode = 0023;
},
{
glyphname = dollar;
lastChange = "2018-11-24 07:25:13 +0000";
layers = (
{
layerId = "F6FCABFB-DB8B-4A8A-BD05-D26D4B0CC58D";
paths = (
{
closed = 1;
nodes = (
"531 1471 LINE",
"369.667 1455 OFFCURVE",
"270 1388.667 OFFCURVE",
"210 1286 CURVE SMOOTH",
"180 1234.667 OFFCURVE",
"165 1179 OFFCURVE",
"165 1119 CURVE SMOOTH",
"165 995 OFFCURVE",
"218.667 903.333 OFFCURVE",
"332 826 CURVE SMOOTH",
"360 807.333 OFFCURVE",
"426.333 772.333 OFFCURVE",
"531 721 CURVE",
"531 102 LINE",
"389 116 OFFCURVE",
"271.667 184.333 OFFCURVE",
"179 307 CURVE",
"72 226 LINE",
"134.667 123.333 OFFCURVE",
"235.333 41.667 OFFCURVE",
"334 3 CURVE SMOOTH",
"383.333 -16.333 OFFCURVE",
"449 -29.333 OFFCURVE",
"531 -36 CURVE",
"531 -349 LINE",
"662 -349 LINE",
"662 -36 LINE",
"740 -26 OFFCURVE",
"801.333 -10 OFFCURVE",
"846 12 CURVE SMOOTH",
"983.333 80 OFFCURVE",
"1070 209.333 OFFCURVE",
"1070 356 CURVE SMOOTH",
"1070 444.667 OFFCURVE",
"1042.667 525.667 OFFCURVE",
"988 599 CURVE SMOOTH",
"945.333 656.333 OFFCURVE",
"836.667 731 OFFCURVE",
"662 823 CURVE",
"662 1322 LINE",
"739.333 1305.333 OFFCURVE",
"803.667 1257.333 OFFCURVE",
"855 1178 CURVE",
"963 1265 LINE",
"877.667 1385 OFFCURVE",
"792.667 1441 OFFCURVE",
"662 1465 CURVE",
"662 1574 LINE",
"531 1574 LINE"
);
},
{
closed = 1;
nodes = (
"531 877 LINE",
"449.667 913.667 OFFCURVE",
"390.333 954.667 OFFCURVE",
"353 1000 CURVE SMOOTH",
"325 1033.333 OFFCURVE",
"311 1074 OFFCURVE",
"311 1122 CURVE SMOOTH",
"311 1196.667 OFFCURVE",
"348.667 1261.833 OFFCURVE",
"410 1298.5 CURVE SMOOTH",
"440.667 1316.833 OFFCURVE",
"481 1328 OFFCURVE",
"531 1332 CURVE"
);
},
{
closed = 1;
nodes = (
"662 668 LINE",
"868.667 557.333 OFFCURVE",
"928 467.667 OFFCURVE",
"928 353 CURVE SMOOTH",
"928 235.667 OFFCURVE",
"823.333 128.667 OFFCURVE",
"662 106 CURVE"
);
}
);
userData = {
assembly = "NPUSHB[ ]\011/* 42 values pushed */
59 32 96 27 123 24 116 27 123 41 116 47 112 49 127 53 155 24 155 41 148 45 171 23 180 4 187 23 196 4 15 49 64 19 21 57 7 64 18 21 57 27 
PUSHW[ ]\011/* 1 value pushed */
-64 
NPUSHB[ ]\011/* 43 values pushed */
18 22 57 0 5 1 137 24 128 27 128 41 143 49 4 68 11 79 32 79 49 96 27 4 52 11 63 49 80 27 95 49 4 5 11 15 32 10 36 111 49 4 9 
PUSHW[ ]\011/* 1 value pushed */
-32 
PUSHB[ ]\011/* 4 values pushed */
17 21 57 47 
PUSHW[ ]\011/* 1 value pushed */
-32 
NPUSHB[ ]\011/* 51 values pushed */
17 21 57 2 8 54 48 18 19 38 39 29 28 21 20 8 7 40 3 39 2 3 37 3 38 48 49 27 3 18 22 17 16 4 21 54 9 29 47 9 47 28 39 1 19 0 20 15 5 1 5 
PUSHW[ ]\011/* 1 value pushed */
513 
PUSHB[ ]\011/* 4 values pushed */
15 6 1 6 
PUSHW[ ]\011/* 1 value pushed */
514 
PUSHB[ ]\011/* 3 values pushed */
39 126 0 
PUSHW[ ]\011/* 1 value pushed */
380 
PUSHB[ ]\011/* 6 values pushed */
38 5 0 25 1 25 
PUSHW[ ]\011/* 1 value pushed */
513 
PUSHB[ ]\011/* 4 values pushed */
0 26 1 26 
PUSHW[ ]\011/* 1 value pushed */
512 
PUSHB[ ]\011/* 3 values pushed */
28 126 20 
PUSHW[ ]\011/* 1 value pushed */
511 
NPUSHB[ ]\011/* 10 values pushed */
21 13 19 20 0 249 1 1 43 6 
PUSHW[ ]\011/* 1 value pushed */
510 
PUSHB[ ]\011/* 4 values pushed */
47 5 1 5 
PUSHW[ ]\011/* 1 value pushed */
378 
NPUSHB[ ]\011/* 15 values pushed */
51 111 13 74 56 43 111 32 34 48 34 64 34 3 34 
PUSHW[ ]\011/* 3 values pushed */
378 26 510 
PUSHB[ ]\011/* 6 values pushed */
25 73 55 137 166 24 
CALL[ ]\011/* CallFunction */
FLIPOFF[ ]\011/* SetAutoFlipOff */
SRP0[ ]\011/* SetRefPoint0 */
MIRP[10100]\011/* MoveIndirectRelPt */
FLIPON[ ]\011/* SetAutoFlipOn */
MIRP[01101]\011/* MoveIndirectRelPt */
MIRP[10100]\011/* MoveIndirectRelPt */
DELTAP1[ ]\011/* DeltaExceptionP1 */
MIRP[01101]\011/* MoveIndirectRelPt */
FLIPOFF[ ]\011/* SetAutoFlipOff */
SRP0[ ]\011/* SetRefPoint0 */
MIRP[10110]\011/* MoveIndirectRelPt */
FLIPON[ ]\011/* SetAutoFlipOn */
MIRP[01101]\011/* MoveIndirectRelPt */
MIRP[10100]\011/* MoveIndirectRelPt */
DELTAP1[ ]\011/* DeltaExceptionP1 */
MIRP[01101]\011/* MoveIndirectRelPt */
SRP1[ ]\011/* SetRefPoint1 */
IP[ ]\011/* InterpolatePts */
MDAP[1]\011/* MoveDirectAbsPt */
MIRP[11101]\011/* MoveIndirectRelPt */
IP[ ]\011/* InterpolatePts */
IP[ ]\011/* InterpolatePts */
SVTCA[0]\011/* SetFreedomAndProjectionVectorToAxis */
MIAP[1]\011/* MoveIndirectAbsPt */
MIRP[01100]\011/* MoveIndirectRelPt */
MIRP[11101]\011/* MoveIndirectRelPt */
MIRP[10100]\011/* MoveIndirectRelPt */
DELTAP1[ ]\011/* DeltaExceptionP1 */
MIRP[00100]\011/* MoveIndirectRelPt */
DELTAP1[ ]\011/* DeltaExceptionP1 */
MIAP[1]\011/* MoveIndirectAbsPt */
MIRP[01100]\011/* MoveIndirectRelPt */
MIRP[11101]\011/* MoveIndirectRelPt */
MIRP[10100]\011/* MoveIndirectRelPt */
DELTAP1[ ]\011/* DeltaExceptionP1 */
MIRP[00100]\011/* MoveIndirectRelPt */
DELTAP1[ ]\011/* DeltaExceptionP1 */
SRP1[ ]\011/* SetRefPoint1 */
SRP2[ ]\011/* SetRefPoint2 */
IP[ ]\011/* InterpolatePts */
IP[ ]\011/* InterpolatePts */
SRP1[ ]\011/* SetRefPoint1 */
SRP2[ ]\011/* SetRefPoint2 */
IP[ ]\011/* InterpolatePts */
IP[ ]\011/* InterpolatePts */
SRP1[ ]\011/* SetRefPoint1 */
SHP[1]\011/* ShiftPointByLastPoint */
SRP1[ ]\011/* SetRefPoint1 */
SHP[1]\011/* ShiftPointByLastPoint */
SRP1[ ]\011/* SetRefPoint1 */
SLOOP[ ]\011/* SetLoopVariable */
SHP[1]\011/* ShiftPointByLastPoint */
SLOOP[ ]\011/* SetLoopVariable */
SHP[0]\011/* ShiftPointByLastPoint */
SRP1[ ]\011/* SetRefPoint1 */
SLOOP[ ]\011/* SetLoopVariable */
SHP[1]\011/* ShiftPointByLastPoint */
SRP1[ ]\011/* SetRefPoint1 */
SLOOP[ ]\011/* SetLoopVariable */
SHP[1]\011/* ShiftPointByLastPoint */
SPVTCA[1]\011/* SetPVectorToAxis */
SFVTCA[1]\011/* SetFVectorToAxis */
SRP0[ ]\011/* SetRefPoint0 */
ALIGNRP[ ]\011/* AlignRelativePt */
ALIGNRP[ ]\011/* AlignRelativePt */
SFVTPV[ ]\011/* SetFVectorToPVector */
ALIGNRP[ ]\011/* AlignRelativePt */
ALIGNRP[ ]\011/* AlignRelativePt */
ALIGNRP[ ]\011/* AlignRelativePt */
SFVTPV[ ]\011/* SetFVectorToPVector */
SRP0[ ]\011/* SetRefPoint0 */
ALIGNRP[ ]\011/* AlignRelativePt */
ALIGNRP[ ]\011/* AlignRelativePt */
ALIGNRP[ ]\011/* AlignRelativePt */
ALIGNRP[ ]\011/* AlignRelativePt */
ALIGNRP[ ]\011/* AlignRelativePt */
SVTCA[0]\011/* SetFreedomAndProjectionVectorToAxis */
CALL[ ]\011/* CallFunction */
CALL[ ]\011/* CallFunction */
IUP[1]\011/* InterpolateUntPts */
IUP[0]\011/* InterpolateUntPts */
SVTCA[1]\011/* SetFreedomAndProjectionVectorToAxis */
DELTAP1[ ]\011/* DeltaExceptionP1 */
DELTAP1[ ]\011/* DeltaExceptionP1 */
DELTAP1[ ]\011/* DeltaExceptionP1 */
DELTAP1[ ]\011/* DeltaExceptionP1 */
DELTAP1[ ]\011/* DeltaExceptionP1 */
CALL[ ]\011/* CallFunction */
CALL[ ]\011/* CallFunction */
CALL[ ]\011/* CallFunction */
SVTCA[0]\011/* SetFreedomAndProjectionVectorToAxis */
DELTAP1[ ]\011/* DeltaExceptionP1 */";
};
width = 1135;
}
);
note = dollar;
unicode = 0024;
},
{
glyphname = percent;
lastChange = "2018-11-24 07:25:13 +0000";
layers = (
{
layerId = "F6FCABFB-DB8B-4A8A-BD05-D26D4B0CC58D";
paths = (
{
closed = 1;
nodes = (
"1263 1536 LINE",
"1051 1476 OFFCURVE",
"942.333 1462 OFFCURVE",
"793 1462 CURVE SMOOTH",
"691.667 1462 OFFCURVE",
"597.667 1471.333 OFFCURVE",
"511 1490 CURVE SMOOTH",
"454.333 1502 OFFCURVE",
"413.667 1508 OFFCURVE",
"389 1508 CURVE SMOOTH",
"273 1508 OFFCURVE",
"151 1438.167 OFFCURVE",
"91 1333.5 CURVE SMOOTH",
"61 1281.167 OFFCURVE",
"46 1223 OFFCURVE",
"46 1159 CURVE SMOOTH",
"46 967 OFFCURVE",
"195.667 814 OFFCURVE",
"389 814 CURVE SMOOTH",
"599.667 814 OFFCURVE",
"738 984.333 OFFCURVE",
"738 1167 CURVE SMOOTH",
"738 1231 OFFCURVE",
"717.333 1291.667 OFFCURVE",
"676 1349 CURVE",
"730 1348 LINE SMOOTH",
"896 1348 OFFCURVE",
"1036.667 1362 OFFCURVE",
"1152 1390 CURVE",
"177 -102 LINE",
"309 -102 LINE",
"1381 1536 LINE"
);
},
{
closed = 1;
nodes = (
"513.333 1381 OFFCURVE",
"612 1282.333 OFFCURVE",
"612 1161 CURVE SMOOTH",
"612 1039.667 OFFCURVE",
"513.333 942 OFFCURVE",
"392 942 CURVE SMOOTH",
"270.667 942 OFFCURVE",
"173 1039.667 OFFCURVE",
"173 1161 CURVE SMOOTH",
"173 1282.333 OFFCURVE",
"270.667 1381 OFFCURVE",
"392 1381 CURVE SMOOTH"
);
},
{
closed = 1;
nodes = (
"1004.333 649 OFFCURVE",
"849 493.667 OFFCURVE",
"849 303 CURVE SMOOTH",
"849 112.333 OFFCURVE",
"1004.333 -43 OFFCURVE",
"1195 -43 CURVE SMOOTH",
"1385.667 -43 OFFCURVE",
"1541 112.333 OFFCURVE",
"1541 303 CURVE SMOOTH",
"1541 493.667 OFFCURVE",
"1385.667 649 OFFCURVE",
"1195 649 CURVE SMOOTH"
);
},
{
closed = 1;
nodes = (
"1316.333 522 OFFCURVE",
"1415 424.333 OFFCURVE",
"1415 303 CURVE SMOOTH",
"1415 181.667 OFFCURVE",
"1316.333 84 OFFCURVE",
"1195 84 CURVE SMOOTH",
"1073.667 84 OFFCURVE",
"976 181.667 OFFCURVE",
"976 303 CURVE SMOOTH",
"976 424.333 OFFCURVE",
"1073.667 522 OFFCURVE",
"1195 522 CURVE SMOOTH"
);
}
);
userData = {
assembly = "NPUSHB[ ]\011/* 28 values pushed */
24 2 1 101 8 3 2 3 4 2 93 1 0 20 1 1 0 3 5 0 2 25 1 159 44 38 97 50 
PUSHW[ ]\011/* 1 value pushed */
515 
NPUSHB[ ]\011/* 14 values pushed */
56 97 44 13 5 106 22 159 25 168 18 11 97 32 
PUSHW[ ]\011/* 1 value pushed */
515 
NPUSHB[ ]\011/* 9 values pushed */
26 97 18 5 0 0 59 53 2 
PUSHW[ ]\011/* 1 value pushed */
383 
PUSHB[ ]\011/* 7 values pushed */
1 1 35 29 53 121 47 
PUSHW[ ]\011/* 1 value pushed */
340 
PUSHB[ ]\011/* 8 values pushed */
59 121 41 74 63 35 121 8 
PUSHW[ ]\011/* 1 value pushed */
340 
PUSHB[ ]\011/* 8 values pushed */
29 121 14 73 62 89 153 24 
CALL[ ]\011/* CallFunction */
FLIPOFF[ ]\011/* SetAutoFlipOff */
SRP0[ ]\011/* SetRefPoint0 */
MIRP[10100]\011/* MoveIndirectRelPt */
FLIPON[ ]\011/* SetAutoFlipOn */
MIRP[01101]\011/* MoveIndirectRelPt */
MIRP[11101]\011/* MoveIndirectRelPt */
MIRP[01101]\011/* MoveIndirectRelPt */
FLIPOFF[ ]\011/* SetAutoFlipOff */
SRP0[ ]\011/* SetRefPoint0 */
MIRP[10110]\011/* MoveIndirectRelPt */
FLIPON[ ]\011/* SetAutoFlipOn */
MIRP[01101]\011/* MoveIndirectRelPt */
MIRP[11101]\011/* MoveIndirectRelPt */
MIRP[01101]\011/* MoveIndirectRelPt */
SRP1[ ]\011/* SetRefPoint1 */
SRP2[ ]\011/* SetRefPoint2 */
IP[ ]\011/* InterpolatePts */
MDAP[1]\011/* MoveDirectAbsPt */
MIRP[01101]\011/* MoveIndirectRelPt */
SRP1[ ]\011/* SetRefPoint1 */
SRP2[ ]\011/* SetRefPoint2 */
IP[ ]\011/* InterpolatePts */
MDAP[1]\011/* MoveDirectAbsPt */
SVTCA[0]\011/* SetFreedomAndProjectionVectorToAxis */
MIAP[1]\011/* MoveIndirectAbsPt */
MIRP[11101]\011/* MoveIndirectRelPt */
MIRP[10110]\011/* MoveIndirectRelPt */
MIRP[01101]\011/* MoveIndirectRelPt */
SRP0[ ]\011/* SetRefPoint0 */
MIRP[00100]\011/* MoveIndirectRelPt */
MIRP[10100]\011/* MoveIndirectRelPt */
MIRP[01101]\011/* MoveIndirectRelPt */
MIAP[1]\011/* MoveIndirectAbsPt */
MIRP[11101]\011/* MoveIndirectRelPt */
MIRP[10110]\011/* MoveIndirectRelPt */
MIRP[01101]\011/* MoveIndirectRelPt */
SRP0[ ]\011/* SetRefPoint0 */
MIRP[10100]\011/* MoveIndirectRelPt */
SRP1[ ]\011/* SetRefPoint1 */
IP[ ]\011/* InterpolatePts */
IP[ ]\011/* InterpolatePts */
SRP2[ ]\011/* SetRefPoint2 */
IP[ ]\011/* InterpolatePts */
SDPVTL[1]\011/* SetDualPVectorToLine */
SFVTCA[1]\011/* SetFVectorToAxis */
MDAP[0]\011/* MoveDirectAbsPt */
CALL[ ]\011/* CallFunction */
SFVTL[0]\011/* SetFVectorToLine */
RDTG[ ]\011/* RoundDownToGrid */
SRP0[ ]\011/* SetRefPoint0 */
MDRP[00100]\011/* MoveDirectRelPt */
IUP[1]\011/* InterpolateUntPts */
IUP[0]\011/* InterpolateUntPts */
RTG[ ]\011/* RoundToGrid */
RS[ ]\011/* ReadStore */
JROF[ ]\011/* JumpRelativeOnFalse */
NPUSHB[ ]\011/* 78 values pushed */
39 61 27 34 9 17 16 38 33 10 35 87 1 31 12 29 87 0 27 17 29 87 0 57 43 59 87 1 55 45 53 87 0 61 39 59 87 1 51 49 53 87 0 34 9 32 87 0 30 13 32 87 0 28 15 26 87 1 58 42 56 87 0 54 46 56 87 0 60 40 50 87 1 52 48 50 87 1 
SVTCA[0]\011/* SetFreedomAndProjectionVectorToAxis */
CALL[ ]\011/* CallFunction */
CALL[ ]\011/* CallFunction */
CALL[ ]\011/* CallFunction */
CALL[ ]\011/* CallFunction */
CALL[ ]\011/* CallFunction */
CALL[ ]\011/* CallFunction */
CALL[ ]\011/* CallFunction */
SVTCA[1]\011/* SetFreedomAndProjectionVectorToAxis */
CALL[ ]\011/* CallFunction */
CALL[ ]\011/* CallFunction */
CALL[ ]\011/* CallFunction */
CALL[ ]\011/* CallFunction */
CALL[ ]\011/* CallFunction */
CALL[ ]\011/* CallFunction */
CALL[ ]\011/* CallFunction */
CALL[ ]\011/* CallFunction */
FLIPRGON[ ]\011/* FlipRangeOn */
FLIPRGON[ ]\011/* FlipRangeOn */
FLIPRGON[ ]\011/* FlipRangeOn */
SVTCA[1]\011/* SetFreedomAndProjectionVectorToAxis */
DELTAP1[ ]\011/* DeltaExceptionP1 */";
};
width = 1587;
}
);
note = percent;
unicode = 0025;
},
{
glyphname = ampersand;
lastChange = "2018-11-24 07:25:13 +0000";
layers = (
{
layerId = "F6FCABFB-DB8B-4A8A-BD05-D26D4B0CC58D";
paths = (
{
closed = 1;
nodes = (
"1246.667 503.333 OFFCURVE",
"1187.333 452.333 OFFCURVE",
"1114 391 CURVE",
"961 544 LINE",
"738 778 LINE",
"840 864.667 OFFCURVE",
"908.333 935.833 OFFCURVE",
"943 991.5 CURVE SMOOTH",
"977.667 1047.167 OFFCURVE",
"995 1099.667 OFFCURVE",
"995 1149 CURVE SMOOTH",
"995 1242.333 OFFCURVE",
"940.333 1331.667 OFFCURVE",
"839 1381 CURVE SMOOTH",
"788.333 1405.667 OFFCURVE",
"732.333 1418 OFFCURVE",
"671 1418 CURVE SMOOTH",
"573.667 1418 OFFCURVE",
"492.333 1390 OFFCURVE",
"427 1334 CURVE SMOOTH",
"370.333 1286 OFFCURVE",
"342 1225.333 OFFCURVE",
"342 1152 CURVE SMOOTH",
"342 1110 OFFCURVE",
"353.5 1065.833 OFFCURVE",
"376.5 1019.5 CURVE SMOOTH",
"399.5 973.167 OFFCURVE",
"451.333 901.333 OFFCURVE",
"532 804 CURVE",
"246.667 578.667 OFFCURVE",
"179 450.667 OFFCURVE",
"179 304 CURVE SMOOTH",
"179 109.333 OFFCURVE",
"328.333 -37 OFFCURVE",
"555 -37 CURVE SMOOTH",
"725.667 -37 OFFCURVE",
"849.667 5 OFFCURVE",
"1103 197 CURVE",
"1292 0 LINE",
"1497 0 LINE",
"1460.333 42.667 OFFCURVE",
"1416.667 89.333 OFFCURVE",
"1366 140 CURVE SMOOTH",
"1302 204.667 OFFCURVE",
"1253 255 OFFCURVE",
"1219 291 CURVE",
"1270.333 332.333 OFFCURVE",
"1328 381.333 OFFCURVE",
"1392 438 CURVE",
"1292 544 LINE"
);
},
{
closed = 1;
nodes = (
"587.667 955.333 OFFCURVE",
"541.667 1017.333 OFFCURVE",
"509 1074 CURVE SMOOTH",
"495.667 1097.333 OFFCURVE",
"489 1122.333 OFFCURVE",
"489 1149 CURVE SMOOTH",
"489 1218.333 OFFCURVE",
"561 1277 OFFCURVE",
"665 1277 CURVE SMOOTH",
"774.333 1277 OFFCURVE",
"846 1220 OFFCURVE",
"846 1152 CURVE SMOOTH",
"846 1122.667 OFFCURVE",
"833.333 1089 OFFCURVE",
"808 1051 CURVE SMOOTH",
"772 997.667 OFFCURVE",
"718.333 943.333 OFFCURVE",
"647 888 CURVE"
);
},
{
closed = 1;
nodes = (
"678.333 636.333 OFFCURVE",
"723 587 OFFCURVE",
"763 545 CURVE SMOOTH",
"1003 299 LINE",
"895.667 222.333 OFFCURVE",
"802.667 167 OFFCURVE",
"724 133 CURVE SMOOTH",
"674 111.667 OFFCURVE",
"623 101 OFFCURVE",
"571 101 CURVE SMOOTH",
"433.667 101 OFFCURVE",
"326 202 OFFCURVE",
"326 314 CURVE SMOOTH",
"326 361.333 OFFCURVE",
"345.333 412.833 OFFCURVE",
"384 468.5 CURVE SMOOTH",
"422.667 524.167 OFFCURVE",
"504.333 599 OFFCURVE",
"629 693 CURVE"
);
}
);
userData = {
assembly = "NPUSHB[ ]\011/* 177 values pushed */
10 9 31 0 31 1 47 0 47 1 47 2 52 31 7 132 48 171 38 180 31 180 32 180 49 5 10 19 32 0 32 2 59 37 75 31 79 37 100 32 111 37 127 18 112 31 10 59 8 130 18 130 36 146 18 146 36 162 18 162 36 178 18 178 36 194 18 194 36 10 239 29 239 40 2 0 7 62 50 18 3 61 36 32 33 62 50 18 3 61 36 32 33 2 1 1 10 35 59 59 0 4 5 6 7 7 33 60 59 0 61 8 34 59 0 33 7 9 10 1 61 8 3 10 1 33 7 1 10 10 85 59 0 20 59 59 0 61 8 8 85 7 33 20 7 7 33 33 1 61 3 8 0 43 218 25 3 0 201 8 8 56 97 12 9 61 33 53 8 40 99 9 15 29 1 8 29 
PUSHW[ ]\011/* 5 values pushed */
517 1 381 8 516 
PUSHB[ ]\011/* 6 values pushed */
7 74 64 46 99 21 
PUSHW[ ]\011/* 1 value pushed */
301 
PUSHB[ ]\011/* 8 values pushed */
53 99 15 73 63 103 114 24 
CALL[ ]\011/* CallFunction */
FLIPOFF[ ]\011/* SetAutoFlipOff */
SRP0[ ]\011/* SetRefPoint0 */
MIRP[10100]\011/* MoveIndirectRelPt */
FLIPON[ ]\011/* SetAutoFlipOn */
MIRP[01101]\011/* MoveIndirectRelPt */
MIRP[10100]\011/* MoveIndirectRelPt */
MIRP[01101]\011/* MoveIndirectRelPt */
FLIPOFF[ ]\011/* SetAutoFlipOff */
SRP0[ ]\011/* SetRefPoint0 */
MIRP[10110]\011/* MoveIndirectRelPt */
FLIPON[ ]\011/* SetAutoFlipOn */
MIRP[01101]\011/* MoveIndirectRelPt */
MIRP[00100]\011/* MoveIndirectRelPt */
MIRP[10100]\011/* MoveIndirectRelPt */
SDB[ ]\011/* SetDeltaBaseInGState */
DELTAP1[ ]\011/* DeltaExceptionP1 */
SDB[ ]\011/* SetDeltaBaseInGState */
MIRP[01101]\011/* MoveIndirectRelPt */
SRP1[ ]\011/* SetRefPoint1 */
SRP2[ ]\011/* SetRefPoint2 */
IP[ ]\011/* InterpolatePts */
IP[ ]\011/* InterpolatePts */
SVTCA[0]\011/* SetFreedomAndProjectionVectorToAxis */
MIAP[1]\011/* MoveIndirectAbsPt */
MIRP[01101]\011/* MoveIndirectRelPt */
MIAP[1]\011/* MoveIndirectAbsPt */
MIRP[01101]\011/* MoveIndirectRelPt */
MIAP[1]\011/* MoveIndirectAbsPt */
MIRP[01101]\011/* MoveIndirectRelPt */
SRP1[ ]\011/* SetRefPoint1 */
SRP2[ ]\011/* SetRefPoint2 */
SLOOP[ ]\011/* SetLoopVariable */
IP[ ]\011/* InterpolatePts */
SDPVTL[1]\011/* SetDualPVectorToLine */
SFVTCA[1]\011/* SetFVectorToAxis */
MDAP[0]\011/* MoveDirectAbsPt */
CALL[ ]\011/* CallFunction */
SFVTPV[ ]\011/* SetFVectorToPVector */
RDTG[ ]\011/* RoundDownToGrid */
SRP0[ ]\011/* SetRefPoint0 */
MDRP[00100]\011/* MoveDirectRelPt */
SDPVTL[1]\011/* SetDualPVectorToLine */
SFVTPV[ ]\011/* SetFVectorToPVector */
MDAP[0]\011/* MoveDirectAbsPt */
RTG[ ]\011/* RoundToGrid */
CALL[ ]\011/* CallFunction */
SFVTPV[ ]\011/* SetFVectorToPVector */
RDTG[ ]\011/* RoundDownToGrid */
SRP0[ ]\011/* SetRefPoint0 */
MDRP[00100]\011/* MoveDirectRelPt */
ISECT[ ]\011/* MovePtToIntersect */
ISECT[ ]\011/* MovePtToIntersect */
ISECT[ ]\011/* MovePtToIntersect */
ISECT[ ]\011/* MovePtToIntersect */
SDPVTL[1]\011/* SetDualPVectorToLine */
SFVTPV[ ]\011/* SetFVectorToPVector */
SRP0[ ]\011/* SetRefPoint0 */
MDRP[00100]\011/* MoveDirectRelPt */
MDRP[00100]\011/* MoveDirectRelPt */
MDRP[00100]\011/* MoveDirectRelPt */
SDPVTL[1]\011/* SetDualPVectorToLine */
SFVTPV[ ]\011/* SetFVectorToPVector */
SRP0[ ]\011/* SetRefPoint0 */
MDRP[00100]\011/* MoveDirectRelPt */
SDPVTL[1]\011/* SetDualPVectorToLine */
SFVTPV[ ]\011/* SetFVectorToPVector */
SRP0[ ]\011/* SetRefPoint0 */
MDRP[00100]\011/* MoveDirectRelPt */
SVTCA[1]\011/* SetFreedomAndProjectionVectorToAxis */
SRP1[ ]\011/* SetRefPoint1 */
SHP[1]\011/* ShiftPointByLastPoint */
SHP[1]\011/* ShiftPointByLastPoint */
SRP1[ ]\011/* SetRefPoint1 */
SLOOP[ ]\011/* SetLoopVariable */
SHP[1]\011/* ShiftPointByLastPoint */
SVTCA[0]\011/* SetFreedomAndProjectionVectorToAxis */
SRP1[ ]\011/* SetRefPoint1 */
SHP[1]\011/* ShiftPointByLastPoint */
SHP[1]\011/* ShiftPointByLastPoint */
SRP1[ ]\011/* SetRefPoint1 */
SLOOP[ ]\011/* SetLoopVariable */
SHP[1]\011/* ShiftPointByLastPoint */
MDAP[0]\011/* MoveDirectAbsPt */
SVTCA[1]\011/* SetFreedomAndProjectionVectorToAxis */
MDAP[0]\011/* MoveDirectAbsPt */
SVTCA[1]\011/* SetFreedomAndProjectionVectorToAxis */
DELTAP1[ ]\011/* DeltaExceptionP1 */
SVTCA[0]\011/* SetFreedomAndProjectionVectorToAxis */
DELTAP1[ ]\011/* DeltaExceptionP1 */
IUP[1]\011/* InterpolateUntPts */
IUP[0]\011/* InterpolateUntPts */
RTG[ ]\011/* RoundToGrid */
RS[ ]\011/* ReadStore */
JROF[ ]\011/* JumpRelativeOnFalse */
NPUSHB[ ]\011/* 42 values pushed */
54 55 41 45 22 28 13 14 27 37 23 38 55 13 53 87 0 42 26 40 107 1 44 24 46 107 0 54 14 56 87 0 41 28 43 107 1 45 22 43 107 1 
SVTCA[0]\011/* SetFreedomAndProjectionVectorToAxis */
CALL[ ]\011/* CallFunction */
CALL[ ]\011/* CallFunction */
CALL[ ]\011/* CallFunction */
SVTCA[1]\011/* SetFreedomAndProjectionVectorToAxis */
CALL[ ]\011/* CallFunction */
CALL[ ]\011/* CallFunction */
CALL[ ]\011/* CallFunction */
CALL[ ]\011/* CallFunction */
CALL[ ]\011/* CallFunction */
FLIPRGON[ ]\011/* FlipRangeOn */
FLIPRGON[ ]\011/* FlipRangeOn */
FLIPRGON[ ]\011/* FlipRangeOn */
FLIPRGON[ ]\011/* FlipRangeOn */
SVTCA[1]\011/* SetFreedomAndProjectionVectorToAxis */
DELTAP1[ ]\011/* DeltaExceptionP1 */
DELTAP1[ ]\011/* DeltaExceptionP1 */
SVTCA[0]\011/* SetFreedomAndProjectionVectorToAxis */
DELTAP1[ ]\011/* DeltaExceptionP1 */";
};
width = 1550;
}
);
note = ampersand;
unicode = 0026;
},
{
glyphname = quotesingle;
lastChange = "2018-11-24 07:25:13 +0000";
layers = (
{
layerId = "F6FCABFB-DB8B-4A8A-BD05-D26D4B0CC58D";
paths = (
{
closed = 1;
nodes = (
"277 1508 LINE",
"129 1508 LINE",
"151 1045 LINE",
"254 1045 LINE"
);
}
);
userData = {
assembly = "PUSHW[ ]\011/* 2 values pushed */
1 261 
NPUSHB[ ]\011/* 10 values pushed */
2 0 3 182 2 73 4 95 113 24 
CALL[ ]\011/* CallFunction */
FLIPOFF[ ]\011/* SetAutoFlipOff */
SRP0[ ]\011/* SetRefPoint0 */
MIRP[10100]\011/* MoveIndirectRelPt */
FLIPON[ ]\011/* SetAutoFlipOn */
MIRP[01101]\011/* MoveIndirectRelPt */
SVTCA[0]\011/* SetFreedomAndProjectionVectorToAxis */
MIAP[1]\011/* MoveIndirectAbsPt */
MIRP[01101]\011/* MoveIndirectRelPt */
IUP[1]\011/* InterpolateUntPts */
IUP[0]\011/* InterpolateUntPts */";
};
width = 405;
}
);
note = quotesingle;
unicode = 0027;
},
{
glyphname = parenleft;
lastChange = "2018-11-24 07:25:13 +0000";
layers = (
{
layerId = "F6FCABFB-DB8B-4A8A-BD05-D26D4B0CC58D";
paths = (
{
closed = 1;
nodes = (
"338 1233.333 OFFCURVE",
"267 869.667 OFFCURVE",
"267 495 CURVE SMOOTH",
"267 147 OFFCURVE",
"330.333 -188.667 OFFCURVE",
"429 -426 CURVE",
"583 -426 LINE",
"479 -178 OFFCURVE",
"416 162 OFFCURVE",
"416 514 CURVE SMOOTH",
"416 894 OFFCURVE",
"501.333 1268 OFFCURVE",
"632 1536 CURVE",
"470 1536 LINE"
);
}
);
userData = {
assembly = "NPUSHB[ ]\011/* 27 values pushed */
7 1 0 8 19 0 17 15 71 71 74 8 99 7 155 0 197 1 162 4 99 11 73 14 149 151 24 
CALL[ ]\011/* CallFunction */
FLIPOFF[ ]\011/* SetAutoFlipOff */
SRP0[ ]\011/* SetRefPoint0 */
MIRP[10100]\011/* MoveIndirectRelPt */
FLIPON[ ]\011/* SetAutoFlipOn */
MIRP[11101]\011/* MoveIndirectRelPt */
MIRP[10100]\011/* MoveIndirectRelPt */
MIRP[01101]\011/* MoveIndirectRelPt */
MIRP[10100]\011/* MoveIndirectRelPt */
MIRP[01101]\011/* MoveIndirectRelPt */
FLIPOFF[ ]\011/* SetAutoFlipOff */
RCVT[ ]\011/* ReadCVT */
NEG[ ]\011/* Negate */
WCVTP[ ]\011/* WriteCVTInPixels */
MIRP[00110]\011/* MoveIndirectRelPt */
SVTCA[0]\011/* SetFreedomAndProjectionVectorToAxis */
MIAP[1]\011/* MoveIndirectAbsPt */
MIAP[1]\011/* MoveIndirectAbsPt */
SRP2[ ]\011/* SetRefPoint2 */
IP[ ]\011/* InterpolatePts */
IP[ ]\011/* InterpolatePts */
IUP[1]\011/* InterpolateUntPts */
IUP[0]\011/* InterpolateUntPts */";
};
width = 756;
}
);
note = parenleft;
unicode = 0028;
},
{
glyphname = parenright;
lastChange = "2018-11-24 07:25:13 +0000";
layers = (
{
layerId = "F6FCABFB-DB8B-4A8A-BD05-D26D4B0CC58D";
paths = (
{
closed = 1;
nodes = (
"418 -123.333 OFFCURVE",
"489 240.667 OFFCURVE",
"489 614 CURVE SMOOTH",
"489 962 OFFCURVE",
"427 1298.667 OFFCURVE",
"327 1536 CURVE",
"173 1536 LINE",
"277 1288 OFFCURVE",
"340 948 OFFCURVE",
"340 596 CURVE SMOOTH",
"340 216 OFFCURVE",
"256 -158 OFFCURVE",
"124 -426 CURVE",
"286 -426 LINE"
);
}
);
userData = {
assembly = "NPUSHB[ ]\011/* 14 values pushed */
7 1 0 8 17 0 19 15 71 71 74 11 99 4 
PUSHW[ ]\011/* 1 value pushed */
301 
NPUSHB[ ]\011/* 12 values pushed */
8 99 7 155 0 197 1 73 14 95 173 24 
CALL[ ]\011/* CallFunction */
FLIPOFF[ ]\011/* SetAutoFlipOff */
SRP0[ ]\011/* SetRefPoint0 */
MIRP[10100]\011/* MoveIndirectRelPt */
FLIPON[ ]\011/* SetAutoFlipOn */
MIRP[01101]\011/* MoveIndirectRelPt */
MIRP[10100]\011/* MoveIndirectRelPt */
MIRP[01101]\011/* MoveIndirectRelPt */
MIRP[10100]\011/* MoveIndirectRelPt */
MIRP[11101]\011/* MoveIndirectRelPt */
FLIPOFF[ ]\011/* SetAutoFlipOff */
RCVT[ ]\011/* ReadCVT */
NEG[ ]\011/* Negate */
WCVTP[ ]\011/* WriteCVTInPixels */
MIRP[00110]\011/* MoveIndirectRelPt */
SVTCA[0]\011/* SetFreedomAndProjectionVectorToAxis */
MIAP[1]\011/* MoveIndirectAbsPt */
MIAP[1]\011/* MoveIndirectAbsPt */
SRP2[ ]\011/* SetRefPoint2 */
IP[ ]\011/* InterpolatePts */
IP[ ]\011/* InterpolatePts */
IUP[1]\011/* InterpolateUntPts */
IUP[0]\011/* InterpolateUntPts */";
};
width = 756;
}
);
note = parenright;
unicode = 0029;
},
{
glyphname = asterisk;
lastChange = "2018-11-24 07:25:13 +0000";
layers = (
{
layerId = "F6FCABFB-DB8B-4A8A-BD05-D26D4B0CC58D";
paths = (
{
closed = 1;
nodes = (
"400 1211 LINE",
"154 1387 LINE",
"88 1275 LINE",
"369 1150 LINE",
"88 1027 LINE",
"154 914 LINE",
"400 1088 LINE",
"369 791 LINE",
"499 791 LINE",
"470 1088 LINE",
"716 914 LINE",
"782 1027 LINE",
"505 1150 LINE",
"782 1275 LINE",
"716 1387 LINE",
"470 1211 LINE",
"499 1508 LINE",
"369 1508 LINE"
);
}
);
userData = {
assembly = "NPUSHB[ ]\011/* 19 values pushed */
9 8 7 6 11 12 13 7 10 15 16 1 2 3 4 5 7 0 10 
PUSHW[ ]\011/* 3 values pushed */
258 14 258 
NPUSHB[ ]\011/* 28 values pushed */
0 0 3 4 5 7 4 6 11 17 0 1 2 8 6 9 12 14 15 16 4 10 13 19 71 71 74 6 
PUSHW[ ]\011/* 5 values pushed */
518 9 383 10 518 
PUSHB[ ]\011/* 6 values pushed */
13 73 18 119 152 24 
CALL[ ]\011/* CallFunction */
FLIPOFF[ ]\011/* SetAutoFlipOff */
SRP0[ ]\011/* SetRefPoint0 */
MIRP[10100]\011/* MoveIndirectRelPt */
FLIPON[ ]\011/* SetAutoFlipOn */
MIRP[10100]\011/* MoveIndirectRelPt */
MIRP[11101]\011/* MoveIndirectRelPt */
MIRP[10100]\011/* MoveIndirectRelPt */
FLIPOFF[ ]\011/* SetAutoFlipOff */
RCVT[ ]\011/* ReadCVT */
NEG[ ]\011/* Negate */
WCVTP[ ]\011/* WriteCVTInPixels */
MIRP[00110]\011/* MoveIndirectRelPt */
SRP1[ ]\011/* SetRefPoint1 */
SRP2[ ]\011/* SetRefPoint2 */
SLOOP[ ]\011/* SetLoopVariable */
IP[ ]\011/* InterpolatePts */
SRP1[ ]\011/* SetRefPoint1 */
SLOOP[ ]\011/* SetLoopVariable */
IP[ ]\011/* InterpolatePts */
SRP2[ ]\011/* SetRefPoint2 */
SLOOP[ ]\011/* SetLoopVariable */
IP[ ]\011/* InterpolatePts */
SVTCA[0]\011/* SetFreedomAndProjectionVectorToAxis */
MIAP[1]\011/* MoveIndirectAbsPt */
FLIPON[ ]\011/* SetAutoFlipOn */
MIRP[11101]\011/* MoveIndirectRelPt */
MIRP[00101]\011/* MoveIndirectRelPt */
SRP2[ ]\011/* SetRefPoint2 */
SLOOP[ ]\011/* SetLoopVariable */
IP[ ]\011/* InterpolatePts */
SRP2[ ]\011/* SetRefPoint2 */
SLOOP[ ]\011/* SetLoopVariable */
IP[ ]\011/* InterpolatePts */
IUP[1]\011/* InterpolateUntPts */
IUP[0]\011/* InterpolateUntPts */";
};
width = 870;
}
);
note = asterisk;
unicode = 002A;
},
{
glyphname = plus;
lastChange = "2018-11-24 07:25:13 +0000";
layers = (
{
layerId = "F6FCABFB-DB8B-4A8A-BD05-D26D4B0CC58D";
paths = (
{
closed = 1;
nodes = (
"115 804 LINE",
"115 667 LINE",
"552 667 LINE",
"552 233 LINE",
"689 233 LINE",
"689 667 LINE",
"1127 667 LINE",
"1127 804 LINE",
"689 804 LINE",
"689 1238 LINE",
"552 1238 LINE",
"552 804 LINE"
);
}
);
userData = {
assembly = "NPUSHB[ ]\011/* 53 values pushed */
9 10 5 1 8 6 10 5 2 7 3 11 4 2 7 0 11 4 1 8 4 5 10 1 228 11 127 8 228 10 2 1 7 8 13 71 71 74 5 228 7 127 8 228 0 10 1 10 73 12 95 113 24 
CALL[ ]\011/* CallFunction */
FLIPOFF[ ]\011/* SetAutoFlipOff */
SRP0[ ]\011/* SetRefPoint0 */
MIRP[10100]\011/* MoveIndirectRelPt */
DELTAP1[ ]\011/* DeltaExceptionP1 */
FLIPON[ ]\011/* SetAutoFlipOn */
MIRP[10100]\011/* MoveIndirectRelPt */
MIRP[11101]\011/* MoveIndirectRelPt */
MIRP[10100]\011/* MoveIndirectRelPt */
FLIPOFF[ ]\011/* SetAutoFlipOff */
RCVT[ ]\011/* ReadCVT */
NEG[ ]\011/* Negate */
WCVTP[ ]\011/* WriteCVTInPixels */
MIRP[00110]\011/* MoveIndirectRelPt */
SRP1[ ]\011/* SetRefPoint1 */
SRP2[ ]\011/* SetRefPoint2 */
IP[ ]\011/* InterpolatePts */
IP[ ]\011/* InterpolatePts */
SVTCA[0]\011/* SetFreedomAndProjectionVectorToAxis */
MDAP[1]\011/* MoveDirectAbsPt */
FLIPON[ ]\011/* SetAutoFlipOn */
MIRP[00100]\011/* MoveIndirectRelPt */
MIRP[11101]\011/* MoveIndirectRelPt */
MIRP[00100]\011/* MoveIndirectRelPt */
SRP2[ ]\011/* SetRefPoint2 */
IP[ ]\011/* InterpolatePts */
IP[ ]\011/* InterpolatePts */
ISECT[ ]\011/* MovePtToIntersect */
ISECT[ ]\011/* MovePtToIntersect */
ISECT[ ]\011/* MovePtToIntersect */
ISECT[ ]\011/* MovePtToIntersect */
IUP[1]\011/* InterpolateUntPts */
IUP[0]\011/* InterpolateUntPts */";
};
width = 1241;
}
);
note = plus;
unicode = 002B;
},
{
glyphname = comma;
lastChange = "2018-11-24 07:25:13 +0000";
layers = (
{
layerId = "F6FCABFB-DB8B-4A8A-BD05-D26D4B0CC58D";
paths = (
{
closed = 1;
nodes = (
"128 -130 LINE",
"227 -172 LINE",
"430 206 LINE",
"295 270 LINE"
);
}
);
userData = {
assembly = "PUSHB[ ]\011/* 3 values pushed */
3 1 2 
PUSHW[ ]\011/* 1 value pushed */
261 
NPUSHB[ ]\011/* 9 values pushed */
0 0 2 3 5 71 71 74 1 
PUSHW[ ]\011/* 1 value pushed */
519 
PUSHB[ ]\011/* 6 values pushed */
3 73 4 95 113 24 
CALL[ ]\011/* CallFunction */
FLIPOFF[ ]\011/* SetAutoFlipOff */
SRP0[ ]\011/* SetRefPoint0 */
MIRP[10100]\011/* MoveIndirectRelPt */
FLIPON[ ]\011/* SetAutoFlipOn */
MIRP[11101]\011/* MoveIndirectRelPt */
FLIPOFF[ ]\011/* SetAutoFlipOff */
RCVT[ ]\011/* ReadCVT */
NEG[ ]\011/* Negate */
WCVTP[ ]\011/* WriteCVTInPixels */
MIRP[00110]\011/* MoveIndirectRelPt */
SRP2[ ]\011/* SetRefPoint2 */
IP[ ]\011/* InterpolatePts */
IP[ ]\011/* InterpolatePts */
SVTCA[0]\011/* SetFreedomAndProjectionVectorToAxis */
MDAP[1]\011/* MoveDirectAbsPt */
FLIPON[ ]\011/* SetAutoFlipOn */
MIRP[01101]\011/* MoveIndirectRelPt */
IP[ ]\011/* InterpolatePts */
IP[ ]\011/* InterpolatePts */
IUP[1]\011/* InterpolateUntPts */
IUP[0]\011/* InterpolateUntPts */";
};
width = 567;
}
);
note = comma;
unicode = 002C;
},
{
glyphname = hyphen;
lastChange = "2018-11-24 07:25:13 +0000";
layers = (
{
layerId = "F6FCABFB-DB8B-4A8A-BD05-D26D4B0CC58D";
paths = (
{
closed = 1;
nodes = (
"65 492 LINE",
"615 492 LINE",
"615 614 LINE",
"65 614 LINE"
);
}
);
userData = {
assembly = "NPUSHB[ ]\011/* 18 values pushed */
1 2 0 98 22 3 1 0 3 2 74 5 3 73 4 89 114 24 
CALL[ ]\011/* CallFunction */
FLIPOFF[ ]\011/* SetAutoFlipOff */
SRP0[ ]\011/* SetRefPoint0 */
MIRP[00100]\011/* MoveIndirectRelPt */
SRP0[ ]\011/* SetRefPoint0 */
MIRP[01110]\011/* MoveIndirectRelPt */
SRP1[ ]\011/* SetRefPoint1 */
IP[ ]\011/* InterpolatePts */
IP[ ]\011/* InterpolatePts */
SVTCA[0]\011/* SetFreedomAndProjectionVectorToAxis */
MDAP[1]\011/* MoveDirectAbsPt */
MPPEM[ ]\011/* MeasurePixelPerEm */
LTEQ[ ]\011/* LessThenOrEqual */
IF[ ]\011/* If */
PUSHB[ ]\011/* 1 value pushed */
128 
SMD[ ]\011/* SetMinimumDistance */
EIF[ ]\011/* EndIf */
FLIPON[ ]\011/* SetAutoFlipOn */
MIRP[01101]\011/* MoveIndirectRelPt */
IP[ ]\011/* InterpolatePts */
IP[ ]\011/* InterpolatePts */
IUP[1]\011/* InterpolateUntPts */
IUP[0]\011/* InterpolateUntPts */";
};
width = 680;
}
);
note = hyphen;
unicode = 002D;
},
{
glyphname = period;
lastChange = "2018-11-24 07:25:13 +0000";
layers = (
{
layerId = "F6FCABFB-DB8B-4A8A-BD05-D26D4B0CC58D";
paths = (
{
closed = 1;
nodes = (
"242 220 OFFCURVE",
"187 165.333 OFFCURVE",
"187 96 CURVE SMOOTH",
"187 28 OFFCURVE",
"242 -28 OFFCURVE",
"310 -28 CURVE SMOOTH",
"378 -28 OFFCURVE",
"433 28 OFFCURVE",
"433 96 CURVE SMOOTH",
"433 165.333 OFFCURVE",
"378 220 OFFCURVE",
"310 220 CURVE SMOOTH"
);
}
);
userData = {
assembly = "NPUSHB[ ]\011/* 22 values pushed */
192 0 1 0 124 6 11 13 71 71 74 192 3 1 3 116 9 73 12 103 113 24 
CALL[ ]\011/* CallFunction */
FLIPOFF[ ]\011/* SetAutoFlipOff */
SRP0[ ]\011/* SetRefPoint0 */
MIRP[10100]\011/* MoveIndirectRelPt */
FLIPON[ ]\011/* SetAutoFlipOn */
MIRP[11101]\011/* MoveIndirectRelPt */
DELTAP1[ ]\011/* DeltaExceptionP1 */
FLIPOFF[ ]\011/* SetAutoFlipOff */
RCVT[ ]\011/* ReadCVT */
NEG[ ]\011/* Negate */
WCVTP[ ]\011/* WriteCVTInPixels */
MIRP[00110]\011/* MoveIndirectRelPt */
SVTCA[0]\011/* SetFreedomAndProjectionVectorToAxis */
MIAP[1]\011/* MoveIndirectAbsPt */
FLIPON[ ]\011/* SetAutoFlipOn */
MIRP[01101]\011/* MoveIndirectRelPt */
DELTAP1[ ]\011/* DeltaExceptionP1 */
IUP[1]\011/* InterpolateUntPts */
IUP[0]\011/* InterpolateUntPts */";
};
width = 567;
}
);
note = period;
unicode = 002E;
},
{
glyphname = slash;
lastChange = "2018-11-24 07:25:13 +0000";
layers = (
{
layerId = "F6FCABFB-DB8B-4A8A-BD05-D26D4B0CC58D";
paths = (
{
closed = 1;
nodes = (
"682 1508 LINE",
"72 -200 LINE",
"225 -200 LINE",
"836 1508 LINE"
);
}
);
userData = {
assembly = "NPUSHB[ ]\011/* 18 values pushed */
3 0 1 1 85 2 3 20 2 2 3 2 3 0 1 0 0 3 
PUSHW[ ]\011/* 1 value pushed */
389 
PUSHB[ ]\011/* 4 values pushed */
0 74 5 1 
PUSHW[ ]\011/* 1 value pushed */
389 
PUSHB[ ]\011/* 6 values pushed */
2 73 4 119 114 24 
CALL[ ]\011/* CallFunction */
FLIPOFF[ ]\011/* SetAutoFlipOff */
SRP0[ ]\011/* SetRefPoint0 */
MIRP[10100]\011/* MoveIndirectRelPt */
FLIPON[ ]\011/* SetAutoFlipOn */
MIRP[01101]\011/* MoveIndirectRelPt */
FLIPOFF[ ]\011/* SetAutoFlipOff */
SRP0[ ]\011/* SetRefPoint0 */
MIRP[10110]\011/* MoveIndirectRelPt */
FLIPON[ ]\011/* SetAutoFlipOn */
MIRP[01101]\011/* MoveIndirectRelPt */
SVTCA[0]\011/* SetFreedomAndProjectionVectorToAxis */
MIAP[1]\011/* MoveIndirectAbsPt */
MDAP[1]\011/* MoveDirectAbsPt */
SRP2[ ]\011/* SetRefPoint2 */
IP[ ]\011/* InterpolatePts */
IP[ ]\011/* InterpolatePts */
SDPVTL[1]\011/* SetDualPVectorToLine */
SFVTCA[1]\011/* SetFVectorToAxis */
MDAP[0]\011/* MoveDirectAbsPt */
CALL[ ]\011/* CallFunction */
SDPVTL[1]\011/* SetDualPVectorToLine */
RDTG[ ]\011/* RoundDownToGrid */
MDRP[00100]\011/* MoveDirectRelPt */
IUP[1]\011/* InterpolateUntPts */
IUP[0]\011/* InterpolateUntPts */";
};
width = 895;
}
);
note = slash;
unicode = 002F;
},
{
glyphname = zero;
lastChange = "2018-11-24 07:25:13 +0000";
layers = (
{
layerId = "F6FCABFB-DB8B-4A8A-BD05-D26D4B0CC58D";
paths = (
{
closed = 1;
nodes = (
"65 349.667 OFFCURVE",
"154.333 152 OFFCURVE",
"305 44 CURVE SMOOTH",
"380.333 -10 OFFCURVE",
"465 -37 OFFCURVE",
"559 -37 CURVE SMOOTH",
"749.667 -37 OFFCURVE",
"913.833 75.333 OFFCURVE",
"1002.5 294 CURVE SMOOTH",
"1046.833 403.333 OFFCURVE",
"1069 550.333 OFFCURVE",
"1069 735 CURVE SMOOTH",
"1069 1105.667 OFFCURVE",
"972.667 1315.5 OFFCURVE",
"818 1425.5 CURVE SMOOTH",
"740.667 1480.5 OFFCURVE",
"654.333 1508 OFFCURVE",
"559 1508 CURVE SMOOTH",
"371 1508 OFFCURVE",
"210.833 1397 OFFCURVE",
"127.5 1185 CURVE SMOOTH",
"85.833 1079 OFFCURVE",
"65 929 OFFCURVE",
"65 735 CURVE SMOOTH"
);
},
{
closed = 1;
nodes = (
"204 1065.333 OFFCURVE",
"265.333 1215.167 OFFCURVE",
"380 1302.5 CURVE SMOOTH",
"437.333 1346.167 OFFCURVE",
"498.667 1368 OFFCURVE",
"564 1368 CURVE SMOOTH",
"692 1368 OFFCURVE",
"816.667 1284.167 OFFCURVE",
"882 1095.5 CURVE SMOOTH",
"914.667 1001.167 OFFCURVE",
"931 880 OFFCURVE",
"931 732 CURVE SMOOTH",
"931 584.667 OFFCURVE",
"912.667 458.667 OFFCURVE",
"876 354 CURVE SMOOTH",
"817.333 182 OFFCURVE",
"694.667 96 OFFCURVE",
"564 96 CURVE SMOOTH",
"434.667 96 OFFCURVE",
"307.833 185.5 OFFCURVE",
"248.5 355.5 CURVE SMOOTH",
"218.833 440.5 OFFCURVE",
"204 566 OFFCURVE",
"204 732 CURVE SMOOTH"
);
}
);
userData = {
assembly = "NPUSHB[ ]\011/* 23 values pushed */
83 8 20 126 12 13 29 126 4 5 25 111 8 74 34 16 111 0 73 33 137 166 24 
CALL[ ]\011/* CallFunction */
FLIPOFF[ ]\011/* SetAutoFlipOff */
SRP0[ ]\011/* SetRefPoint0 */
MIRP[10100]\011/* MoveIndirectRelPt */
FLIPON[ ]\011/* SetAutoFlipOn */
MIRP[01101]\011/* MoveIndirectRelPt */
FLIPOFF[ ]\011/* SetAutoFlipOff */
SRP0[ ]\011/* SetRefPoint0 */
MIRP[10110]\011/* MoveIndirectRelPt */
FLIPON[ ]\011/* SetAutoFlipOn */
MIRP[01101]\011/* MoveIndirectRelPt */
SVTCA[0]\011/* SetFreedomAndProjectionVectorToAxis */
MIAP[1]\011/* MoveIndirectAbsPt */
MIRP[01101]\011/* MoveIndirectRelPt */
MIAP[1]\011/* MoveIndirectAbsPt */
MIRP[01101]\011/* MoveIndirectRelPt */
IUP[1]\011/* InterpolateUntPts */
IUP[0]\011/* InterpolateUntPts */
RS[ ]\011/* ReadStore */
JROF[ ]\011/* JumpRelativeOnFalse */
NPUSHB[ ]\011/* 62 values pushed */
1 32 10 38 23 24 22 24 2 6 18 38 14 37 6 37 27 38 31 37 2 38 21 11 25 229 1 19 13 16 229 0 28 5 25 229 1 30 3 16 229 0 24 9 20 229 0 17 15 20 229 0 26 7 29 229 1 32 1 29 229 1 
CALL[ ]\011/* CallFunction */
CALL[ ]\011/* CallFunction */
CALL[ ]\011/* CallFunction */
CALL[ ]\011/* CallFunction */
SVTCA[1]\011/* SetFreedomAndProjectionVectorToAxis */
CALL[ ]\011/* CallFunction */
CALL[ ]\011/* CallFunction */
CALL[ ]\011/* CallFunction */
CALL[ ]\011/* CallFunction */
CALL[ ]\011/* CallFunction */
CALL[ ]\011/* CallFunction */
CALL[ ]\011/* CallFunction */
CALL[ ]\011/* CallFunction */
CALL[ ]\011/* CallFunction */
CALL[ ]\011/* CallFunction */
LOOPCALL[ ]\011/* LoopAndCallFunction */
CALL[ ]\011/* CallFunction */
FLIPRGON[ ]\011/* FlipRangeOn */";
};
width = 1135;
}
);
note = zero;
unicode = 0030;
},
{
glyphname = one;
lastChange = "2018-11-24 07:25:13 +0000";
layers = (
{
layerId = "F6FCABFB-DB8B-4A8A-BD05-D26D4B0CC58D";
paths = (
{
closed = 1;
nodes = (
"291 1327 LINE",
"522 1327 LINE",
"522 0 LINE",
"668 0 LINE",
"668 1471 LINE",
"379 1471 LINE"
);
}
);
userData = {
assembly = "NPUSHB[ ]\011/* 18 values pushed */
2 1 3 4 5 194 0 4 3 12 1 4 2 0 5 2 249 3 
PUSHW[ ]\011/* 1 value pushed */
520 
PUSHB[ ]\011/* 3 values pushed */
5 73 6 
PUSHW[ ]\011/* 3 values pushed */
312 363 24 
CALL[ ]\011/* CallFunction */
FLIPOFF[ ]\011/* SetAutoFlipOff */
SRP0[ ]\011/* SetRefPoint0 */
MIRP[10100]\011/* MoveIndirectRelPt */
FLIPON[ ]\011/* SetAutoFlipOn */
MIRP[10100]\011/* MoveIndirectRelPt */
MIRP[01101]\011/* MoveIndirectRelPt */
SRP2[ ]\011/* SetRefPoint2 */
IP[ ]\011/* InterpolatePts */
SRP2[ ]\011/* SetRefPoint2 */
IP[ ]\011/* InterpolatePts */
IP[ ]\011/* InterpolatePts */
SVTCA[0]\011/* SetFreedomAndProjectionVectorToAxis */
MIAP[1]\011/* MoveIndirectAbsPt */
MIAP[1]\011/* MoveIndirectAbsPt */
MIRP[11101]\011/* MoveIndirectRelPt */
ALIGNRP[ ]\011/* AlignRelativePt */
SRP2[ ]\011/* SetRefPoint2 */
IP[ ]\011/* InterpolatePts */
IP[ ]\011/* InterpolatePts */
IUP[1]\011/* InterpolateUntPts */
IUP[0]\011/* InterpolateUntPts */";
};
width = 1135;
}
);
note = one;
unicode = 0031;
},
{
glyphname = two;
lastChange = "2018-11-24 07:25:13 +0000";
layers = (
{
layerId = "F6FCABFB-DB8B-4A8A-BD05-D26D4B0CC58D";
paths = (
{
closed = 1;
nodes = (
"254.333 1236.667 OFFCURVE",
"390 1368 OFFCURVE",
"578 1368 CURVE SMOOTH",
"756.667 1368 OFFCURVE",
"897 1230.333 OFFCURVE",
"897 1065 CURVE SMOOTH",
"897 999.667 OFFCURVE",
"879.833 937.5 OFFCURVE",
"845.5 878.5 CURVE SMOOTH",
"811.167 819.5 OFFCURVE",
"737 729 OFFCURVE",
"623 607 CURVE SMOOTH",
"61 0 LINE",
"1060 0 LINE",
"1060 142 LINE",
"381 142 LINE",
"747 537 LINE SMOOTH",
"977.667 786.333 OFFCURVE",
"1040 901.333 OFFCURVE",
"1040 1068 CURVE SMOOTH",
"1040 1305.333 OFFCURVE",
"856.667 1508 OFFCURVE",
"586 1508 CURVE SMOOTH",
"312.667 1508 OFFCURVE",
"104 1300.667 OFFCURVE",
"96 1010 CURVE",
"237 1010 LINE"
);
}
);
userData = {
assembly = "NPUSHB[ ]\011/* 56 values pushed */
88 2 153 17 201 3 198 9 4 57 3 73 2 73 3 3 23 22 39 22 56 2 3 23 8 0 48 18 20 57 1 64 18 20 57 10 11 11 140 14 15 20 14 14 15 11 13 14 10 15 21 12 194 14 12 0 
PUSHW[ ]\011/* 1 value pushed */
417 
NPUSHB[ ]\011/* 19 values pushed */
21 126 4 5 15 18 14 10 11 18 111 7 241 13 74 25 0 111 1 
PUSHW[ ]\011/* 3 values pushed */
522 11 521 
PUSHB[ ]\011/* 6 values pushed */
14 73 24 137 166 24 
CALL[ ]\011/* CallFunction */
FLIPOFF[ ]\011/* SetAutoFlipOff */
SRP0[ ]\011/* SetRefPoint0 */
MIRP[10100]\011/* MoveIndirectRelPt */
FLIPON[ ]\011/* SetAutoFlipOn */
MIRP[01101]\011/* MoveIndirectRelPt */
MIRP[10100]\011/* MoveIndirectRelPt */
MIRP[01101]\011/* MoveIndirectRelPt */
FLIPOFF[ ]\011/* SetAutoFlipOff */
SRP0[ ]\011/* SetRefPoint0 */
MIRP[10110]\011/* MoveIndirectRelPt */
FLIPON[ ]\011/* SetAutoFlipOn */
MIRP[10100]\011/* MoveIndirectRelPt */
MIRP[01101]\011/* MoveIndirectRelPt */
SRP2[ ]\011/* SetRefPoint2 */
IP[ ]\011/* InterpolatePts */
SRP1[ ]\011/* SetRefPoint1 */
SRP2[ ]\011/* SetRefPoint2 */
IP[ ]\011/* InterpolatePts */
SVTCA[0]\011/* SetFreedomAndProjectionVectorToAxis */
MIAP[1]\011/* MoveIndirectAbsPt */
MIRP[11101]\011/* MoveIndirectRelPt */
MIRP[00100]\011/* MoveIndirectRelPt */
MIAP[1]\011/* MoveIndirectAbsPt */
MIRP[01101]\011/* MoveIndirectRelPt */
SRP1[ ]\011/* SetRefPoint1 */
IP[ ]\011/* InterpolatePts */
IP[ ]\011/* InterpolatePts */
SRP1[ ]\011/* SetRefPoint1 */
IP[ ]\011/* InterpolatePts */
IP[ ]\011/* InterpolatePts */
SDPVTL[1]\011/* SetDualPVectorToLine */
SFVTCA[1]\011/* SetFVectorToAxis */
MDAP[0]\011/* MoveDirectAbsPt */
CALL[ ]\011/* CallFunction */
SFVTPV[ ]\011/* SetFVectorToPVector */
RDTG[ ]\011/* RoundDownToGrid */
SRP0[ ]\011/* SetRefPoint0 */
MDRP[00100]\011/* MoveDirectRelPt */
SVTCA[1]\011/* SetFreedomAndProjectionVectorToAxis */
CALL[ ]\011/* CallFunction */
CALL[ ]\011/* CallFunction */
IUP[1]\011/* InterpolateUntPts */
IUP[0]\011/* InterpolateUntPts */
RTG[ ]\011/* RoundToGrid */
RS[ ]\011/* ReadStore */
JROF[ ]\011/* JumpRelativeOnFalse */
NPUSHB[ ]\011/* 14 values pushed */
19 20 5 6 20 5 18 108 1 19 6 21 108 1 
SVTCA[0]\011/* SetFreedomAndProjectionVectorToAxis */
CALL[ ]\011/* CallFunction */
SVTCA[1]\011/* SetFreedomAndProjectionVectorToAxis */
CALL[ ]\011/* CallFunction */
FLIPRGON[ ]\011/* FlipRangeOn */
FLIPRGON[ ]\011/* FlipRangeOn */
SVTCA[1]\011/* SetFreedomAndProjectionVectorToAxis */
DELTAP1[ ]\011/* DeltaExceptionP1 */
DELTAP1[ ]\011/* DeltaExceptionP1 */
DELTAP1[ ]\011/* DeltaExceptionP1 */";
};
width = 1135;
}
);
note = two;
unicode = 0032;
},
{
glyphname = three;
lastChange = "2018-11-24 07:25:13 +0000";
layers = (
{
layerId = "F6FCABFB-DB8B-4A8A-BD05-D26D4B0CC58D";
paths = (
{
closed = 1;
nodes = (
"335 1300.667 OFFCURVE",
"425.333 1365 OFFCURVE",
"552 1365 CURVE SMOOTH",
"708 1365 OFFCURVE",
"822 1257 OFFCURVE",
"822 1129 CURVE SMOOTH",
"822 1042.333 OFFCURVE",
"774.667 965.833 OFFCURVE",
"664 918.5 CURVE SMOOTH",
"608.667 894.833 OFFCURVE",
"547.333 883 OFFCURVE",
"480 883 CURVE",
"480 748 LINE",
"708 736 OFFCURVE",
"797.833 688 OFFCURVE",
"862.5 588 CURVE SMOOTH",
"894.833 538 OFFCURVE",
"911 484.333 OFFCURVE",
"911 427 CURVE SMOOTH",
"911 255 OFFCURVE",
"770.333 106 OFFCURVE",
"557 106 CURVE SMOOTH",
"463 106 OFFCURVE",
"385.667 133 OFFCURVE",
"325 187 CURVE SMOOTH",
"277.667 229.667 OFFCURVE",
"241.333 298.667 OFFCURVE",
"216 394 CURVE",
"72 394 LINE",
"124 111.333 OFFCURVE",
"301.667 -37 OFFCURVE",
"555 -37 CURVE SMOOTH",
"743 -37 OFFCURVE",
"902 49.167 OFFCURVE",
"990 200.5 CURVE SMOOTH",
"1034 276.167 OFFCURVE",
"1056 355.667 OFFCURVE",
"1056 439 CURVE SMOOTH",
"1056 535.667 OFFCURVE",
"1024 623 OFFCURVE",
"960 701 CURVE SMOOTH",
"914.667 756.333 OFFCURVE",
"856.667 798.333 OFFCURVE",
"786 827 CURVE",
"912 901 OFFCURVE",
"975 1001.333 OFFCURVE",
"975 1128 CURVE SMOOTH",
"975 1257.333 OFFCURVE",
"899.167 1385.5 OFFCURVE",
"766.5 1455.5 CURVE SMOOTH",
"700.167 1490.5 OFFCURVE",
"628.667 1508 OFFCURVE",
"552 1508 CURVE SMOOTH",
"341.333 1508 OFFCURVE",
"175.667 1372.667 OFFCURVE",
"121 1130 CURVE",
"271 1130 LINE"
);
}
);
userData = {
assembly = "NPUSHB[ ]\011/* 20 values pushed */
93 31 91 36 107 3 107 36 4 31 64 18 21 57 36 64 16 21 57 24 
PUSHW[ ]\011/* 1 value pushed */
-64 
NPUSHB[ ]\011/* 30 values pushed */
11 21 57 185 35 207 32 2 169 31 169 35 185 31 3 46 8 10 33 126 15 34 96 34 2 34 34 41 21 22 
PUSHW[ ]\011/* 1 value pushed */
411 
PUSHB[ ]\011/* 6 values pushed */
26 126 18 13 1 0 
PUSHW[ ]\011/* 1 value pushed */
523 
NPUSHB[ ]\011/* 11 values pushed */
41 126 4 5 10 34 34 22 38 111 8 
PUSHW[ ]\011/* 1 value pushed */
532 
PUSHB[ ]\011/* 8 values pushed */
29 111 14 74 45 0 111 1 
PUSHW[ ]\011/* 1 value pushed */
522 
PUSHB[ ]\011/* 8 values pushed */
22 111 21 73 44 137 166 24 
CALL[ ]\011/* CallFunction */
FLIPOFF[ ]\011/* SetAutoFlipOff */
SRP0[ ]\011/* SetRefPoint0 */
MIRP[10100]\011/* MoveIndirectRelPt */
FLIPON[ ]\011/* SetAutoFlipOn */
MIRP[01101]\011/* MoveIndirectRelPt */
MIRP[10100]\011/* MoveIndirectRelPt */
MIRP[01101]\011/* MoveIndirectRelPt */
FLIPOFF[ ]\011/* SetAutoFlipOff */
SRP0[ ]\011/* SetRefPoint0 */
MIRP[10110]\011/* MoveIndirectRelPt */
FLIPON[ ]\011/* SetAutoFlipOn */
MIRP[01101]\011/* MoveIndirectRelPt */
MIRP[10100]\011/* MoveIndirectRelPt */
MIRP[01101]\011/* MoveIndirectRelPt */
SRP1[ ]\011/* SetRefPoint1 */
IP[ ]\011/* InterpolatePts */
MDAP[1]\011/* MoveDirectAbsPt */
IP[ ]\011/* InterpolatePts */
SVTCA[0]\011/* SetFreedomAndProjectionVectorToAxis */
MIAP[1]\011/* MoveIndirectAbsPt */
MIRP[11101]\011/* MoveIndirectRelPt */
MIRP[10100]\011/* MoveIndirectRelPt */
ALIGNRP[ ]\011/* AlignRelativePt */
MIAP[1]\011/* MoveIndirectAbsPt */
MIRP[11101]\011/* MoveIndirectRelPt */
MIRP[10100]\011/* MoveIndirectRelPt */
ALIGNRP[ ]\011/* AlignRelativePt */
SRP2[ ]\011/* SetRefPoint2 */
IP[ ]\011/* InterpolatePts */
MDAP[1]\011/* MoveDirectAbsPt */
DELTAP1[ ]\011/* DeltaExceptionP1 */
MIRP[01101]\011/* MoveIndirectRelPt */
IP[ ]\011/* InterpolatePts */
IUP[1]\011/* InterpolateUntPts */
IUP[0]\011/* InterpolateUntPts */
RS[ ]\011/* ReadStore */
JROF[ ]\011/* JumpRelativeOnFalse */
NPUSHB[ ]\011/* 32 values pushed */
39 40 27 28 15 17 5 7 16 38 6 37 27 17 29 108 1 40 5 38 108 1 28 15 26 108 0 39 7 41 108 1 
CALL[ ]\011/* CallFunction */
CALL[ ]\011/* CallFunction */
SVTCA[1]\011/* SetFreedomAndProjectionVectorToAxis */
CALL[ ]\011/* CallFunction */
CALL[ ]\011/* CallFunction */
CALL[ ]\011/* CallFunction */
CALL[ ]\011/* CallFunction */
FLIPRGON[ ]\011/* FlipRangeOn */
FLIPRGON[ ]\011/* FlipRangeOn */
FLIPRGON[ ]\011/* FlipRangeOn */
FLIPRGON[ ]\011/* FlipRangeOn */
SVTCA[1]\011/* SetFreedomAndProjectionVectorToAxis */
DELTAP1[ ]\011/* DeltaExceptionP1 */
DELTAP1[ ]\011/* DeltaExceptionP1 */
CALL[ ]\011/* CallFunction */
CALL[ ]\011/* CallFunction */
CALL[ ]\011/* CallFunction */
DELTAP1[ ]\011/* DeltaExceptionP1 */";
};
width = 1135;
}
);
note = three;
unicode = 0033;
},
{
glyphname = four;
lastChange = "2018-11-24 07:25:13 +0000";
layers = (
{
layerId = "F6FCABFB-DB8B-4A8A-BD05-D26D4B0CC58D";
paths = (
{
closed = 1;
nodes = (
"52 342 LINE",
"755 342 LINE",
"755 0 LINE",
"902 0 LINE",
"902 342 LINE",
"1080 342 LINE",
"1080 483 LINE",
"902 483 LINE",
"902 1508 LINE",
"872 1508 LINE"
);
},
{
closed = 1;
nodes = (
"322 483 LINE",
"755 1096 LINE",
"755 483 LINE"
);
}
);
userData = {
assembly = "NPUSHB[ ]\011/* 20 values pushed */
11 12 12 140 9 0 20 9 9 0 3 12 194 4 9 9 0 7 12 11 
PUSHW[ ]\011/* 1 value pushed */
525 
NPUSHB[ ]\011/* 10 values pushed */
0 5 0 11 1 11 7 249 1 6 
PUSHW[ ]\011/* 1 value pushed */
395 
NPUSHB[ ]\011/* 16 values pushed */
15 4 31 4 47 4 3 9 15 4 1 8 4 74 14 12 
PUSHW[ ]\011/* 1 value pushed */
524 
PUSHB[ ]\011/* 6 values pushed */
9 73 13 137 166 24 
CALL[ ]\011/* CallFunction */
FLIPOFF[ ]\011/* SetAutoFlipOff */
SRP0[ ]\011/* SetRefPoint0 */
MIRP[10100]\011/* MoveIndirectRelPt */
FLIPON[ ]\011/* SetAutoFlipOn */
MIRP[01101]\011/* MoveIndirectRelPt */
FLIPOFF[ ]\011/* SetAutoFlipOff */
SRP0[ ]\011/* SetRefPoint0 */
MIRP[10110]\011/* MoveIndirectRelPt */
SDB[ ]\011/* SetDeltaBaseInGState */
DELTAP1[ ]\011/* DeltaExceptionP1 */
SDB[ ]\011/* SetDeltaBaseInGState */
DELTAP1[ ]\011/* DeltaExceptionP1 */
FLIPON[ ]\011/* SetAutoFlipOn */
MIRP[11100]\011/* MoveIndirectRelPt */
ALIGNRP[ ]\011/* AlignRelativePt */
MIRP[11101]\011/* MoveIndirectRelPt */
ALIGNRP[ ]\011/* AlignRelativePt */
SRP1[ ]\011/* SetRefPoint1 */
SRP2[ ]\011/* SetRefPoint2 */
IP[ ]\011/* InterpolatePts */
SVTCA[0]\011/* SetFreedomAndProjectionVectorToAxis */
MIAP[1]\011/* MoveIndirectAbsPt */
MIRP[01101]\011/* MoveIndirectRelPt */
MIAP[1]\011/* MoveIndirectAbsPt */
SRP2[ ]\011/* SetRefPoint2 */
IP[ ]\011/* InterpolatePts */
MDAP[1]\011/* MoveDirectAbsPt */
ALIGNRP[ ]\011/* AlignRelativePt */
MIRP[11101]\011/* MoveIndirectRelPt */
ALIGNRP[ ]\011/* AlignRelativePt */
SDPVTL[1]\011/* SetDualPVectorToLine */
SFVTCA[1]\011/* SetFVectorToAxis */
MDAP[0]\011/* MoveDirectAbsPt */
CALL[ ]\011/* CallFunction */
SFVTCA[0]\011/* SetFVectorToAxis */
RDTG[ ]\011/* RoundDownToGrid */
SRP0[ ]\011/* SetRefPoint0 */
MDRP[00100]\011/* MoveDirectRelPt */
IUP[1]\011/* InterpolateUntPts */
IUP[0]\011/* InterpolateUntPts */";
};
width = 1135;
}
);
note = four;
unicode = 0034;
},
{
glyphname = five;
lastChange = "2018-11-24 07:25:13 +0000";
layers = (
{
layerId = "F6FCABFB-DB8B-4A8A-BD05-D26D4B0CC58D";
paths = (
{
closed = 1;
nodes = (
"370 1471 LINE",
"234 741 LINE",
"357.333 793.667 OFFCURVE",
"462.333 820 OFFCURVE",
"549 820 CURVE SMOOTH",
"758.333 820 OFFCURVE",
"894 683.667 OFFCURVE",
"894 485 CURVE SMOOTH",
"894 265 OFFCURVE",
"734.333 100 OFFCURVE",
"541 100 CURVE SMOOTH",
"442.333 100 OFFCURVE",
"345.5 147.333 OFFCURVE",
"291.5 218 CURVE SMOOTH",
"264.5 253.333 OFFCURVE",
"245.333 299.333 OFFCURVE",
"234 356 CURVE",
"83 356 LINE",
"115 124 OFFCURVE",
"293.333 -37 OFFCURVE",
"532 -37 CURVE SMOOTH",
"732 -37 OFFCURVE",
"888.667 51.667 OFFCURVE",
"978 213 CURVE SMOOTH",
"1022.667 293.667 OFFCURVE",
"1045 382.333 OFFCURVE",
"1045 479 CURVE SMOOTH",
"1045 759 OFFCURVE",
"851 958 OFFCURVE",
"583 958 CURVE SMOOTH",
"531.667 958 OFFCURVE",
"474 948.667 OFFCURVE",
"410 930 CURVE",
"483 1331 LINE",
"1007 1331 LINE",
"1007 1471 LINE"
);
}
);
userData = {
assembly = "NPUSHB[ ]\011/* 25 values pushed */
180 18 192 18 2 52 18 68 18 2 38 8 2 3 3 140 28 29 20 28 28 29 3 5 28 
PUSHW[ ]\011/* 1 value pushed */
528 
NPUSHB[ ]\011/* 13 values pushed */
26 126 5 5 20 2 2 1 194 29 0 4 16 
PUSHW[ ]\011/* 1 value pushed */
408 
PUSHB[ ]\011/* 5 values pushed */
20 126 12 13 0 
PUSHW[ ]\011/* 1 value pushed */
522 
PUSHB[ ]\011/* 6 values pushed */
23 111 8 74 31 2 
PUSHW[ ]\011/* 7 values pushed */
378 3 527 29 526 28 526 
PUSHB[ ]\011/* 6 values pushed */
16 111 15 73 30 213 
PUSHW[ ]\011/* 2 values pushed */
276 24 
CALL[ ]\011/* CallFunction */
FLIPOFF[ ]\011/* SetAutoFlipOff */
SRP0[ ]\011/* SetRefPoint0 */
MIRP[10100]\011/* MoveIndirectRelPt */
FLIPON[ ]\011/* SetAutoFlipOn */
MIRP[01101]\011/* MoveIndirectRelPt */
MIRP[10100]\011/* MoveIndirectRelPt */
MIRP[00100]\011/* MoveIndirectRelPt */
MIRP[11101]\011/* MoveIndirectRelPt */
MIRP[00100]\011/* MoveIndirectRelPt */
FLIPOFF[ ]\011/* SetAutoFlipOff */
SRP0[ ]\011/* SetRefPoint0 */
MIRP[10110]\011/* MoveIndirectRelPt */
FLIPON[ ]\011/* SetAutoFlipOn */
MIRP[01101]\011/* MoveIndirectRelPt */
MIRP[00100]\011/* MoveIndirectRelPt */
SVTCA[0]\011/* SetFreedomAndProjectionVectorToAxis */
MIAP[1]\011/* MoveIndirectAbsPt */
MIRP[11101]\011/* MoveIndirectRelPt */
MIRP[00100]\011/* MoveIndirectRelPt */
MIAP[1]\011/* MoveIndirectAbsPt */
ALIGNRP[ ]\011/* AlignRelativePt */
MIRP[11101]\011/* MoveIndirectRelPt */
ALIGNRP[ ]\011/* AlignRelativePt */
SRP1[ ]\011/* SetRefPoint1 */
SRP2[ ]\011/* SetRefPoint2 */
IP[ ]\011/* InterpolatePts */
MDAP[1]\011/* MoveDirectAbsPt */
MIRP[11101]\011/* MoveIndirectRelPt */
MIRP[00110]\011/* MoveIndirectRelPt */
SRP1[ ]\011/* SetRefPoint1 */
SHP[1]\011/* ShiftPointByLastPoint */
SDPVTL[1]\011/* SetDualPVectorToLine */
SFVTPV[ ]\011/* SetFVectorToPVector */
MDAP[0]\011/* MoveDirectAbsPt */
CALL[ ]\011/* CallFunction */
SFVTCA[1]\011/* SetFVectorToAxis */
RDTG[ ]\011/* RoundDownToGrid */
SRP0[ ]\011/* SetRefPoint0 */
MDRP[00100]\011/* MoveDirectRelPt */
IUP[1]\011/* InterpolateUntPts */
IUP[0]\011/* InterpolateUntPts */
RTG[ ]\011/* RoundToGrid */
RS[ ]\011/* ReadStore */
JROF[ ]\011/* JumpRelativeOnFalse */
NPUSHB[ ]\011/* 26 values pushed */
21 25 6 11 10 38 21 11 23 108 1 25 6 23 108 1 22 9 20 108 0 24 7 26 108 1 
SVTCA[0]\011/* SetFreedomAndProjectionVectorToAxis */
CALL[ ]\011/* CallFunction */
CALL[ ]\011/* CallFunction */
SVTCA[1]\011/* SetFreedomAndProjectionVectorToAxis */
CALL[ ]\011/* CallFunction */
CALL[ ]\011/* CallFunction */
CALL[ ]\011/* CallFunction */
FLIPRGON[ ]\011/* FlipRangeOn */
FLIPRGON[ ]\011/* FlipRangeOn */
SVTCA[1]\011/* SetFreedomAndProjectionVectorToAxis */
DELTAP1[ ]\011/* DeltaExceptionP1 */
DELTAP1[ ]\011/* DeltaExceptionP1 */";
};
width = 1135;
}
);
note = five;
unicode = 0035;
},
{
glyphname = six;
lastChange = "2018-11-24 07:25:13 +0000";
layers = (
{
layerId = "F6FCABFB-DB8B-4A8A-BD05-D26D4B0CC58D";
paths = (
{
closed = 1;
nodes = (
"305 842 LINE SMOOTH",
"179.667 655.333 OFFCURVE",
"138 533 OFFCURVE",
"138 413 CURVE SMOOTH",
"138 251.667 OFFCURVE",
"221.5 99.5 OFFCURVE",
"359.5 21.5 CURVE SMOOTH",
"428.5 -17.5 OFFCURVE",
"503.333 -37 OFFCURVE",
"584 -37 CURVE SMOOTH",
"750.667 -37 OFFCURVE",
"906.333 49.833 OFFCURVE",
"985 186.5 CURVE SMOOTH",
"1024.333 254.833 OFFCURVE",
"1044 331.333 OFFCURVE",
"1044 416 CURVE SMOOTH",
"1044 662.667 OFFCURVE",
"858.333 854 OFFCURVE",
"625 854 CURVE SMOOTH",
"578.333 854 OFFCURVE",
"528.333 845 OFFCURVE",
"475 827 CURVE",
"872 1429 LINE",
"751 1508 LINE"
);
},
{
closed = 1;
nodes = (
"760.667 725 OFFCURVE",
"899 587 OFFCURVE",
"899 415 CURVE SMOOTH",
"899 244.333 OFFCURVE",
"760.667 106 OFFCURVE",
"590 106 CURVE SMOOTH",
"419.333 106 OFFCURVE",
"281 244.333 OFFCURVE",
"281 415 CURVE SMOOTH",
"281 587 OFFCURVE",
"419.333 725 OFFCURVE",
"590 725 CURVE SMOOTH"
);
}
);
userData = {
assembly = "NPUSHB[ ]\011/* 24 values pushed */
54 2 1 143 21 1 52 8 18 3 20 2 1 1 140 0 18 20 0 0 18 19 126 2 
PUSHW[ ]\011/* 1 value pushed */
613 
NPUSHB[ ]\011/* 14 values pushed */
4 4 0 5 25 126 11 13 2 1 22 18 15 1 
PUSHW[ ]\011/* 1 value pushed */
529 
NPUSHB[ ]\011/* 24 values pushed */
0 0 15 28 111 0 7 16 7 2 7 74 32 22 111 0 15 16 15 2 15 73 31 215 
PUSHW[ ]\011/* 2 values pushed */
276 24 
CALL[ ]\011/* CallFunction */
FLIPOFF[ ]\011/* SetAutoFlipOff */
SRP0[ ]\011/* SetRefPoint0 */
MIRP[10100]\011/* MoveIndirectRelPt */
DELTAP1[ ]\011/* DeltaExceptionP1 */
FLIPON[ ]\011/* SetAutoFlipOn */
MIRP[01101]\011/* MoveIndirectRelPt */
FLIPOFF[ ]\011/* SetAutoFlipOff */
SRP0[ ]\011/* SetRefPoint0 */
MIRP[10110]\011/* MoveIndirectRelPt */
DELTAP1[ ]\011/* DeltaExceptionP1 */
FLIPON[ ]\011/* SetAutoFlipOn */
MIRP[01101]\011/* MoveIndirectRelPt */
SRP2[ ]\011/* SetRefPoint2 */
IP[ ]\011/* InterpolatePts */
MDAP[1]\011/* MoveDirectAbsPt */
MIRP[01101]\011/* MoveIndirectRelPt */
SRP2[ ]\011/* SetRefPoint2 */
IP[ ]\011/* InterpolatePts */
SRP1[ ]\011/* SetRefPoint1 */
SRP2[ ]\011/* SetRefPoint2 */
IP[ ]\011/* InterpolatePts */
SVTCA[0]\011/* SetFreedomAndProjectionVectorToAxis */
MIAP[1]\011/* MoveIndirectAbsPt */
MIRP[01101]\011/* MoveIndirectRelPt */
MIAP[1]\011/* MoveIndirectAbsPt */
IP[ ]\011/* InterpolatePts */
MDAP[1]\011/* MoveDirectAbsPt */
MIRP[01101]\011/* MoveIndirectRelPt */
MIRP[01101]\011/* MoveIndirectRelPt */
SDPVTL[1]\011/* SetDualPVectorToLine */
SFVTPV[ ]\011/* SetFVectorToPVector */
MDAP[0]\011/* MoveDirectAbsPt */
CALL[ ]\011/* CallFunction */
SFVTPV[ ]\011/* SetFVectorToPVector */
RDTG[ ]\011/* RoundDownToGrid */
SRP0[ ]\011/* SetRefPoint0 */
MDRP[00100]\011/* MoveDirectRelPt */
SVTCA[1]\011/* SetFreedomAndProjectionVectorToAxis */
SHP[0]\011/* ShiftPointByLastPoint */
SHP[0]\011/* ShiftPointByLastPoint */
SVTCA[0]\011/* SetFreedomAndProjectionVectorToAxis */
MDAP[0]\011/* MoveDirectAbsPt */
IUP[1]\011/* InterpolateUntPts */
IUP[0]\011/* InterpolateUntPts */
RTG[ ]\011/* RoundToGrid */
RS[ ]\011/* ReadStore */
JROF[ ]\011/* JumpRelativeOnFalse */
NPUSHB[ ]\011/* 38 values pushed */
23 30 5 14 9 38 13 37 26 10 28 108 1 24 12 22 108 0 30 5 28 108 1 27 8 25 108 0 23 14 25 108 0 29 6 19 108 1 
CALL[ ]\011/* CallFunction */
CALL[ ]\011/* CallFunction */
CALL[ ]\011/* CallFunction */
SVTCA[1]\011/* SetFreedomAndProjectionVectorToAxis */
CALL[ ]\011/* CallFunction */
CALL[ ]\011/* CallFunction */
CALL[ ]\011/* CallFunction */
CALL[ ]\011/* CallFunction */
CALL[ ]\011/* CallFunction */
FLIPRGON[ ]\011/* FlipRangeOn */
FLIPRGON[ ]\011/* FlipRangeOn */
SVTCA[0]\011/* SetFreedomAndProjectionVectorToAxis */
DELTAP1[ ]\011/* DeltaExceptionP1 */
SVTCA[1]\011/* SetFreedomAndProjectionVectorToAxis */
DELTAP1[ ]\011/* DeltaExceptionP1 */";
};
width = 1135;
}
);
note = six;
unicode = 0036;
},
{
glyphname = seven;
lastChange = "2018-11-24 07:25:13 +0000";
layers = (
{
layerId = "F6FCABFB-DB8B-4A8A-BD05-D26D4B0CC58D";
paths = (
{
closed = 1;
nodes = (
"147 1332 LINE",
"852 1332 LINE",
"172 25 LINE",
"293 -37 LINE",
"1080 1471 LINE",
"147 1471 LINE"
);
}
);
userData = {
assembly = "NPUSHB[ ]\011/* 21 values pushed */
3 4 4 140 1 2 20 1 1 2 4 1 5 194 0 4 2 13 0 5 4 
PUSHW[ ]\011/* 1 value pushed */
531 
PUSHB[ ]\011/* 6 values pushed */
1 74 7 5 241 2 
PUSHW[ ]\011/* 1 value pushed */
529 
PUSHB[ ]\011/* 3 values pushed */
3 73 6 
PUSHW[ ]\011/* 1 value pushed */
530 
PUSHB[ ]\011/* 2 values pushed */
166 24 
CALL[ ]\011/* CallFunction */
FLIPOFF[ ]\011/* SetAutoFlipOff */
SRP0[ ]\011/* SetRefPoint0 */
MIRP[10100]\011/* MoveIndirectRelPt */
FLIPON[ ]\011/* SetAutoFlipOn */
MIRP[01101]\011/* MoveIndirectRelPt */
MIRP[00100]\011/* MoveIndirectRelPt */
FLIPOFF[ ]\011/* SetAutoFlipOff */
SRP0[ ]\011/* SetRefPoint0 */
MIRP[10110]\011/* MoveIndirectRelPt */
FLIPON[ ]\011/* SetAutoFlipOn */
MIRP[01101]\011/* MoveIndirectRelPt */
SRP1[ ]\011/* SetRefPoint1 */
IP[ ]\011/* InterpolatePts */
SVTCA[0]\011/* SetFreedomAndProjectionVectorToAxis */
MIAP[1]\011/* MoveIndirectAbsPt */
MIAP[1]\011/* MoveIndirectAbsPt */
MIRP[01101]\011/* MoveIndirectRelPt */
IP[ ]\011/* InterpolatePts */
IP[ ]\011/* InterpolatePts */
SDPVTL[1]\011/* SetDualPVectorToLine */
SFVTCA[1]\011/* SetFVectorToAxis */
MDAP[0]\011/* MoveDirectAbsPt */
CALL[ ]\011/* CallFunction */
SFVTPV[ ]\011/* SetFVectorToPVector */
RDTG[ ]\011/* RoundDownToGrid */
SRP0[ ]\011/* SetRefPoint0 */
MDRP[00100]\011/* MoveDirectRelPt */
IUP[1]\011/* InterpolateUntPts */
IUP[0]\011/* InterpolateUntPts */";
};
width = 1135;
}
);
note = seven;
unicode = 0037;
},
{
glyphname = eight;
lastChange = "2018-11-24 07:25:13 +0000";
layers = (
{
layerId = "F6FCABFB-DB8B-4A8A-BD05-D26D4B0CC58D";
paths = (
{
closed = 1;
nodes = (
"927 883 OFFCURVE",
"997 986.667 OFFCURVE",
"997 1120 CURVE SMOOTH",
"997 1253.333 OFFCURVE",
"918.667 1384.333 OFFCURVE",
"788 1455 CURVE SMOOTH",
"722.667 1490.333 OFFCURVE",
"651.667 1508 OFFCURVE",
"575 1508 CURVE SMOOTH",
"417.667 1508 OFFCURVE",
"273.167 1433.5 OFFCURVE",
"196.5 1311.5 CURVE SMOOTH",
"158.167 1250.5 OFFCURVE",
"139 1188 OFFCURVE",
"139 1124 CURVE SMOOTH",
"139 997.333 OFFCURVE",
"211 881.667 OFFCURVE",
"355 807 CURVE",
"149.667 704.333 OFFCURVE",
"69 574 OFFCURVE",
"69 410 CURVE SMOOTH",
"69 186 OFFCURVE",
"239.667 -37 OFFCURVE",
"565 -37 CURVE SMOOTH",
"733.667 -37 OFFCURVE",
"863.333 16 OFFCURVE",
"954 122 CURVE SMOOTH",
"1028 208.667 OFFCURVE",
"1065 308.667 OFFCURVE",
"1065 422 CURVE SMOOTH",
"1065 583.333 OFFCURVE",
"985.667 708.333 OFFCURVE",
"787 807 CURVE"
);
},
{
closed = 1;
nodes = (
"750.667 1365 OFFCURVE",
"849 1244.667 OFFCURVE",
"849 1126 CURVE SMOOTH",
"849 1042 OFFCURVE",
"797.667 950 OFFCURVE",
"711 902 CURVE SMOOTH",
"667.667 878 OFFCURVE",
"621.667 866 OFFCURVE",
"573 866 CURVE SMOOTH",
"421 866 OFFCURVE",
"288 992.333 OFFCURVE",
"288 1123 CURVE SMOOTH",
"288 1255 OFFCURVE",
"406.667 1365 OFFCURVE",
"568 1365 CURVE SMOOTH"
);
},
{
closed = 1;
nodes = (
"764.333 733 OFFCURVE",
"918 583 OFFCURVE",
"918 419 CURVE SMOOTH",
"918 249.667 OFFCURVE",
"781.667 102 OFFCURVE",
"567 102 CURVE SMOOTH",
"428.333 102 OFFCURVE",
"319.667 156 OFFCURVE",
"261 252 CURVE SMOOTH",
"231.667 300 OFFCURVE",
"217 351 OFFCURVE",
"217 405 CURVE SMOOTH",
"217 579.667 OFFCURVE",
"372.333 733 OFFCURVE",
"575 733 CURVE SMOOTH"
);
}
);
userData = {
assembly = "NPUSHB[ ]\011/* 25 values pushed */
130 8 0 13 33 126 16 40 96 40 2 40 40 47 27 126 20 5 47 126 7 13 37 111 24 
PUSHW[ ]\011/* 1 value pushed */
532 
PUSHB[ ]\011/* 8 values pushed */
50 111 3 74 54 30 111 16 
PUSHW[ ]\011/* 1 value pushed */
532 
PUSHB[ ]\011/* 8 values pushed */
43 111 10 73 53 137 166 24 
CALL[ ]\011/* CallFunction */
FLIPOFF[ ]\011/* SetAutoFlipOff */
SRP0[ ]\011/* SetRefPoint0 */
MIRP[10100]\011/* MoveIndirectRelPt */
FLIPON[ ]\011/* SetAutoFlipOn */
MIRP[01101]\011/* MoveIndirectRelPt */
MIRP[10100]\011/* MoveIndirectRelPt */
MIRP[01101]\011/* MoveIndirectRelPt */
FLIPOFF[ ]\011/* SetAutoFlipOff */
SRP0[ ]\011/* SetRefPoint0 */
MIRP[10110]\011/* MoveIndirectRelPt */
FLIPON[ ]\011/* SetAutoFlipOn */
MIRP[01101]\011/* MoveIndirectRelPt */
MIRP[10100]\011/* MoveIndirectRelPt */
MIRP[01101]\011/* MoveIndirectRelPt */
SVTCA[0]\011/* SetFreedomAndProjectionVectorToAxis */
MIAP[1]\011/* MoveIndirectAbsPt */
MIRP[01101]\011/* MoveIndirectRelPt */
MIAP[1]\011/* MoveIndirectAbsPt */
MIRP[11101]\011/* MoveIndirectRelPt */
SRP1[ ]\011/* SetRefPoint1 */
IP[ ]\011/* InterpolatePts */
MDAP[1]\011/* MoveDirectAbsPt */
DELTAP1[ ]\011/* DeltaExceptionP1 */
MIRP[11101]\011/* MoveIndirectRelPt */
IP[ ]\011/* InterpolatePts */
IP[ ]\011/* InterpolatePts */
IUP[1]\011/* InterpolateUntPts */
IUP[0]\011/* InterpolateUntPts */
RS[ ]\011/* ReadStore */
JROF[ ]\011/* JumpRelativeOnFalse */
NPUSHB[ ]\011/* 98 values pushed */
1 52 5 38 45 38 22 37 18 38 35 37 48 6 50 108 1 46 8 43 108 0 39 21 37 108 1 28 19 30 108 0 41 12 43 108 2 32 14 30 108 2 34 26 37 108 3 52 1 50 108 3 49 4 47 108 0 44 9 47 108 0 38 23 27 108 1 29 17 27 108 1 42 11 40 108 1 12 31 15 33 108 0 14 13 36 25 33 108 0 26 51 2 40 108 1 1 0 
SRP0[ ]\011/* SetRefPoint0 */
ALIGNRP[ ]\011/* AlignRelativePt */
CALL[ ]\011/* CallFunction */
ALIGNRP[ ]\011/* AlignRelativePt */
CALL[ ]\011/* CallFunction */
SRP0[ ]\011/* SetRefPoint0 */
ALIGNRP[ ]\011/* AlignRelativePt */
CALL[ ]\011/* CallFunction */
ALIGNRP[ ]\011/* AlignRelativePt */
CALL[ ]\011/* CallFunction */
CALL[ ]\011/* CallFunction */
CALL[ ]\011/* CallFunction */
CALL[ ]\011/* CallFunction */
CALL[ ]\011/* CallFunction */
SVTCA[1]\011/* SetFreedomAndProjectionVectorToAxis */
CALL[ ]\011/* CallFunction */
CALL[ ]\011/* CallFunction */
CALL[ ]\011/* CallFunction */
CALL[ ]\011/* CallFunction */
CALL[ ]\011/* CallFunction */
CALL[ ]\011/* CallFunction */
CALL[ ]\011/* CallFunction */
CALL[ ]\011/* CallFunction */
CALL[ ]\011/* CallFunction */
CALL[ ]\011/* CallFunction */
CALL[ ]\011/* CallFunction */
CALL[ ]\011/* CallFunction */
CALL[ ]\011/* CallFunction */
FLIPRGON[ ]\011/* FlipRangeOn */";
};
width = 1135;
}
);
note = eight;
unicode = 0038;
},
{
glyphname = nine;
lastChange = "2018-11-24 07:25:13 +0000";
layers = (
{
layerId = "F6FCABFB-DB8B-4A8A-BD05-D26D4B0CC58D";
paths = (
{
closed = 1;
nodes = (
"839 628 LINE SMOOTH",
"964.333 814.667 OFFCURVE",
"1006 936.667 OFFCURVE",
"1006 1058 CURVE SMOOTH",
"1006 1218 OFFCURVE",
"922.5 1370.333 OFFCURVE",
"784.5 1449 CURVE SMOOTH",
"715.5 1488.333 OFFCURVE",
"640.333 1508 OFFCURVE",
"559 1508 CURVE SMOOTH",
"393.667 1508 OFFCURVE",
"237.667 1420 OFFCURVE",
"159 1284 CURVE SMOOTH",
"119.667 1216 OFFCURVE",
"100 1139.667 OFFCURVE",
"100 1055 CURVE SMOOTH",
"100 808.333 OFFCURVE",
"285.667 617 OFFCURVE",
"519 617 CURVE SMOOTH",
"565.667 617 OFFCURVE",
"615.667 625.667 OFFCURVE",
"669 643 CURVE",
"272 41 LINE",
"393 -37 LINE"
);
},
{
closed = 1;
nodes = (
"382.333 746 OFFCURVE",
"244 884.333 OFFCURVE",
"244 1055 CURVE SMOOTH",
"244 1225.667 OFFCURVE",
"382.333 1364 OFFCURVE",
"553 1364 CURVE SMOOTH",
"725 1364 OFFCURVE",
"863 1225.667 OFFCURVE",
"863 1055 CURVE SMOOTH",
"863 884.333 OFFCURVE",
"725 746 OFFCURVE",
"553 746 CURVE SMOOTH"
);
}
);
userData = {
assembly = "NPUSHB[ ]\011/* 23 values pushed */
84 21 116 21 2 52 8 18 3 20 2 1 1 140 0 18 20 0 0 18 19 126 2 
PUSHW[ ]\011/* 1 value pushed */
613 
NPUSHB[ ]\011/* 14 values pushed */
4 4 0 13 25 126 11 5 2 1 22 18 15 1 
PUSHW[ ]\011/* 1 value pushed */
529 
NPUSHB[ ]\011/* 14 values pushed */
0 0 7 22 111 15 74 32 28 111 7 73 31 213 
PUSHW[ ]\011/* 2 values pushed */
366 24 
CALL[ ]\011/* CallFunction */
FLIPOFF[ ]\011/* SetAutoFlipOff */
SRP0[ ]\011/* SetRefPoint0 */
MIRP[10100]\011/* MoveIndirectRelPt */
FLIPON[ ]\011/* SetAutoFlipOn */
MIRP[01101]\011/* MoveIndirectRelPt */
FLIPOFF[ ]\011/* SetAutoFlipOff */
SRP0[ ]\011/* SetRefPoint0 */
MIRP[10110]\011/* MoveIndirectRelPt */
FLIPON[ ]\011/* SetAutoFlipOn */
MIRP[01101]\011/* MoveIndirectRelPt */
SRP2[ ]\011/* SetRefPoint2 */
IP[ ]\011/* InterpolatePts */
MDAP[1]\011/* MoveDirectAbsPt */
MIRP[01101]\011/* MoveIndirectRelPt */
SRP2[ ]\011/* SetRefPoint2 */
IP[ ]\011/* InterpolatePts */
SRP1[ ]\011/* SetRefPoint1 */
SRP2[ ]\011/* SetRefPoint2 */
IP[ ]\011/* InterpolatePts */
SVTCA[0]\011/* SetFreedomAndProjectionVectorToAxis */
MIAP[1]\011/* MoveIndirectAbsPt */
MIRP[01101]\011/* MoveIndirectRelPt */
MIAP[1]\011/* MoveIndirectAbsPt */
IP[ ]\011/* InterpolatePts */
MDAP[1]\011/* MoveDirectAbsPt */
MIRP[01101]\011/* MoveIndirectRelPt */
MIRP[01101]\011/* MoveIndirectRelPt */
SDPVTL[1]\011/* SetDualPVectorToLine */
SFVTPV[ ]\011/* SetFVectorToPVector */
MDAP[0]\011/* MoveDirectAbsPt */
CALL[ ]\011/* CallFunction */
SFVTPV[ ]\011/* SetFVectorToPVector */
RDTG[ ]\011/* RoundDownToGrid */
SRP0[ ]\011/* SetRefPoint0 */
MDRP[00100]\011/* MoveDirectRelPt */
SVTCA[1]\011/* SetFreedomAndProjectionVectorToAxis */
SHP[0]\011/* ShiftPointByLastPoint */
SHP[0]\011/* ShiftPointByLastPoint */
SVTCA[0]\011/* SetFreedomAndProjectionVectorToAxis */
MDAP[0]\011/* MoveDirectAbsPt */
IUP[1]\011/* InterpolateUntPts */
IUP[0]\011/* InterpolateUntPts */
RTG[ ]\011/* RoundToGrid */
RS[ ]\011/* ReadStore */
JROF[ ]\011/* JumpRelativeOnFalse */
NPUSHB[ ]\011/* 38 values pushed */
23 30 5 14 13 37 9 38 30 5 28 108 0 24 12 22 108 1 26 10 28 108 0 29 6 19 108 0 23 14 25 108 1 27 8 25 108 1 
CALL[ ]\011/* CallFunction */
CALL[ ]\011/* CallFunction */
CALL[ ]\011/* CallFunction */
SVTCA[1]\011/* SetFreedomAndProjectionVectorToAxis */
CALL[ ]\011/* CallFunction */
CALL[ ]\011/* CallFunction */
CALL[ ]\011/* CallFunction */
CALL[ ]\011/* CallFunction */
CALL[ ]\011/* CallFunction */
FLIPRGON[ ]\011/* FlipRangeOn */
FLIPRGON[ ]\011/* FlipRangeOn */
SVTCA[0]\011/* SetFreedomAndProjectionVectorToAxis */
DELTAP1[ ]\011/* DeltaExceptionP1 */";
};
width = 1135;
}
);
note = nine;
unicode = 0039;
},
{
glyphname = colon;
lastChange = "2018-11-24 07:25:13 +0000";
layers = (
{
layerId = "F6FCABFB-DB8B-4A8A-BD05-D26D4B0CC58D";
paths = (
{
closed = 1;
nodes = (
"242 1116 OFFCURVE",
"187 1060 OFFCURVE",
"187 992 CURVE SMOOTH",
"187 922.667 OFFCURVE",
"242 868 OFFCURVE",
"310 868 CURVE SMOOTH",
"378 868 OFFCURVE",
"433 922.667 OFFCURVE",
"433 992 CURVE SMOOTH",
"433 1061.333 OFFCURVE",
"378 1116 OFFCURVE",
"310 1116 CURVE SMOOTH"
);
},
{
closed = 1;
nodes = (
"242 220 OFFCURVE",
"187 165.333 OFFCURVE",
"187 96 CURVE SMOOTH",
"187 28 OFFCURVE",
"242 -28 OFFCURVE",
"310 -28 CURVE SMOOTH",
"378 -28 OFFCURVE",
"433 28 OFFCURVE",
"433 96 CURVE SMOOTH",
"433 165.333 OFFCURVE",
"378 220 OFFCURVE",
"310 220 CURVE SMOOTH"
);
}
);
userData = {
assembly = "NPUSHB[ ]\011/* 36 values pushed */
207 6 1 6 124 0 7 192 12 1 12 124 18 11 25 71 71 74 192 3 1 3 164 9 9 192 15 1 15 164 21 73 24 103 113 24 
CALL[ ]\011/* CallFunction */
FLIPOFF[ ]\011/* SetAutoFlipOff */
SRP0[ ]\011/* SetRefPoint0 */
MIRP[10100]\011/* MoveIndirectRelPt */
FLIPON[ ]\011/* SetAutoFlipOn */
MIRP[01101]\011/* MoveIndirectRelPt */
DELTAP1[ ]\011/* DeltaExceptionP1 */
ALIGNRP[ ]\011/* AlignRelativePt */
SRP0[ ]\011/* SetRefPoint0 */
MIRP[11101]\011/* MoveIndirectRelPt */
DELTAP1[ ]\011/* DeltaExceptionP1 */
FLIPOFF[ ]\011/* SetAutoFlipOff */
RCVT[ ]\011/* ReadCVT */
NEG[ ]\011/* Negate */
WCVTP[ ]\011/* WriteCVTInPixels */
MIRP[00110]\011/* MoveIndirectRelPt */
SVTCA[0]\011/* SetFreedomAndProjectionVectorToAxis */
MIAP[1]\011/* MoveIndirectAbsPt */
FLIPON[ ]\011/* SetAutoFlipOn */
MIRP[01101]\011/* MoveIndirectRelPt */
DELTAP1[ ]\011/* DeltaExceptionP1 */
MIAP[1]\011/* MoveIndirectAbsPt */
MIRP[01101]\011/* MoveIndirectRelPt */
DELTAP1[ ]\011/* DeltaExceptionP1 */
IUP[1]\011/* InterpolateUntPts */
IUP[0]\011/* InterpolateUntPts */";
};
width = 567;
}
);
note = colon;
unicode = 003A;
},
{
glyphname = semicolon;
lastChange = "2018-11-24 07:25:13 +0000";
layers = (
{
layerId = "F6FCABFB-DB8B-4A8A-BD05-D26D4B0CC58D";
paths = (
{
closed = 1;
nodes = (
"242 1116 OFFCURVE",
"187 1060 OFFCURVE",
"187 992 CURVE SMOOTH",
"187 922.667 OFFCURVE",
"242 868 OFFCURVE",
"310 868 CURVE SMOOTH",
"378 868 OFFCURVE",
"433 922.667 OFFCURVE",
"433 992 CURVE SMOOTH",
"433 1061.333 OFFCURVE",
"378 1116 OFFCURVE",
"310 1116 CURVE SMOOTH"
);
},
{
closed = 1;
nodes = (
"128 -130 LINE",
"227 -172 LINE",
"430 206 LINE",
"295 270 LINE"
);
}
);
userData = {
assembly = "PUSHW[ ]\011/* 2 values pushed */
14 261 
NPUSHB[ ]\011/* 24 values pushed */
12 207 6 1 6 124 0 7 12 14 15 17 71 71 74 13 207 9 1 9 164 3 129 13 
PUSHW[ ]\011/* 1 value pushed */
519 
NPUSHB[ ]\011/* 9 values pushed */
0 15 1 15 73 16 95 113 24 
CALL[ ]\011/* CallFunction */
FLIPOFF[ ]\011/* SetAutoFlipOff */
SRP0[ ]\011/* SetRefPoint0 */
MIRP[10100]\011/* MoveIndirectRelPt */
DELTAP1[ ]\011/* DeltaExceptionP1 */
FLIPON[ ]\011/* SetAutoFlipOn */
MIRP[11101]\011/* MoveIndirectRelPt */
MIRP[10100]\011/* MoveIndirectRelPt */
MIRP[01101]\011/* MoveIndirectRelPt */
DELTAP1[ ]\011/* DeltaExceptionP1 */
FLIPOFF[ ]\011/* SetAutoFlipOff */
SRP0[ ]\011/* SetRefPoint0 */
RCVT[ ]\011/* ReadCVT */
NEG[ ]\011/* Negate */
WCVTP[ ]\011/* WriteCVTInPixels */
MIRP[00110]\011/* MoveIndirectRelPt */
SRP2[ ]\011/* SetRefPoint2 */
IP[ ]\011/* InterpolatePts */
IP[ ]\011/* InterpolatePts */
SVTCA[0]\011/* SetFreedomAndProjectionVectorToAxis */
MIAP[1]\011/* MoveIndirectAbsPt */
FLIPON[ ]\011/* SetAutoFlipOn */
MIRP[01101]\011/* MoveIndirectRelPt */
DELTAP1[ ]\011/* DeltaExceptionP1 */
MDAP[1]\011/* MoveDirectAbsPt */
MIRP[01101]\011/* MoveIndirectRelPt */
IUP[1]\011/* InterpolateUntPts */
IUP[0]\011/* InterpolateUntPts */";
};
width = 567;
}
);
note = semicolon;
unicode = 003B;
},
{
glyphname = less;
lastChange = "2018-11-24 07:25:13 +0000";
layers = (
{
layerId = "F6FCABFB-DB8B-4A8A-BD05-D26D4B0CC58D";
paths = (
{
closed = 1;
nodes = (
"298 734 LINE",
"1137 1124 LINE",
"1137 1271 LINE",
"104 800 LINE",
"104 670 LINE",
"1137 201 LINE",
"1137 347 LINE"
);
}
);
userData = {
assembly = "NPUSHB[ ]\011/* 62 values pushed */
5 4 3 3 85 6 5 20 6 6 5 0 1 2 2 85 6 0 20 6 6 0 5 218 64 4 201 6 32 0 218 64 1 201 32 6 6 3 2 5 0 4 4 0 1 16 1 2 1 74 8 0 2 16 2 2 2 73 7 95 152 24 
CALL[ ]\011/* CallFunction */
FLIPOFF[ ]\011/* SetAutoFlipOff */
SRP0[ ]\011/* SetRefPoint0 */
MIRP[00100]\011/* MoveIndirectRelPt */
DELTAP1[ ]\011/* DeltaExceptionP1 */
SRP0[ ]\011/* SetRefPoint0 */
MIRP[10110]\011/* MoveIndirectRelPt */
DELTAP1[ ]\011/* DeltaExceptionP1 */
ALIGNRP[ ]\011/* AlignRelativePt */
SRP1[ ]\011/* SetRefPoint1 */
IP[ ]\011/* InterpolatePts */
IP[ ]\011/* InterpolatePts */
SRP1[ ]\011/* SetRefPoint1 */
SHP[1]\011/* ShiftPointByLastPoint */
SHP[1]\011/* ShiftPointByLastPoint */
SVTCA[0]\011/* SetFreedomAndProjectionVectorToAxis */
RTHG[ ]\011/* RoundToHalfGrid */
MDAP[1]\011/* MoveDirectAbsPt */
SMD[ ]\011/* SetMinimumDistance */
FLIPON[ ]\011/* SetAutoFlipOn */
MIRP[11101]\011/* MoveIndirectRelPt */
SMD[ ]\011/* SetMinimumDistance */
RTG[ ]\011/* RoundToGrid */
MIRP[01101]\011/* MoveIndirectRelPt */
SMD[ ]\011/* SetMinimumDistance */
RTHG[ ]\011/* RoundToHalfGrid */
SRP0[ ]\011/* SetRefPoint0 */
MIRP[11101]\011/* MoveIndirectRelPt */
SMD[ ]\011/* SetMinimumDistance */
RTG[ ]\011/* RoundToGrid */
MIRP[01101]\011/* MoveIndirectRelPt */
SDPVTL[1]\011/* SetDualPVectorToLine */
MDAP[0]\011/* MoveDirectAbsPt */
CALL[ ]\011/* CallFunction */
SDPVTL[1]\011/* SetDualPVectorToLine */
RDTG[ ]\011/* RoundDownToGrid */
MDRP[00100]\011/* MoveDirectRelPt */
SDPVTL[1]\011/* SetDualPVectorToLine */
MDAP[0]\011/* MoveDirectAbsPt */
RTG[ ]\011/* RoundToGrid */
CALL[ ]\011/* CallFunction */
SDPVTL[1]\011/* SetDualPVectorToLine */
RDTG[ ]\011/* RoundDownToGrid */
MDRP[00100]\011/* MoveDirectRelPt */
IUP[1]\011/* InterpolateUntPts */
IUP[0]\011/* InterpolateUntPts */";
};
width = 1241;
}
);
note = less;
unicode = 003C;
},
{
glyphname = equal;
lastChange = "2018-11-24 07:25:13 +0000";
layers = (
{
layerId = "F6FCABFB-DB8B-4A8A-BD05-D26D4B0CC58D";
paths = (
{
closed = 1;
nodes = (
"115 1024 LINE",
"115 887 LINE",
"1127 887 LINE",
"1127 1024 LINE"
);
},
{
closed = 1;
nodes = (
"115 584 LINE",
"115 447 LINE",
"1127 447 LINE",
"1127 584 LINE"
);
}
);
userData = {
assembly = "NPUSHB[ ]\011/* 11 values pushed */
1 0 2 3 5 4 6 7 3 127 2 
PUSHW[ ]\011/* 1 value pushed */
313 
NPUSHB[ ]\011/* 21 values pushed */
6 127 7 7 2 6 3 4 1 0 0 5 74 9 3 6 73 8 95 113 24 
CALL[ ]\011/* CallFunction */
FLIPOFF[ ]\011/* SetAutoFlipOff */
SRP0[ ]\011/* SetRefPoint0 */
MIRP[10100]\011/* MoveIndirectRelPt */
ALIGNRP[ ]\011/* AlignRelativePt */
SRP0[ ]\011/* SetRefPoint0 */
MIRP[10110]\011/* MoveIndirectRelPt */
ALIGNRP[ ]\011/* AlignRelativePt */
SRP1[ ]\011/* SetRefPoint1 */
IP[ ]\011/* InterpolatePts */
IP[ ]\011/* InterpolatePts */
SRP1[ ]\011/* SetRefPoint1 */
SRP2[ ]\011/* SetRefPoint2 */
IP[ ]\011/* InterpolatePts */
IP[ ]\011/* InterpolatePts */
SVTCA[0]\011/* SetFreedomAndProjectionVectorToAxis */
MDAP[1]\011/* MoveDirectAbsPt */
FLIPON[ ]\011/* SetAutoFlipOn */
MIRP[01101]\011/* MoveIndirectRelPt */
MIRP[11110]\011/* MoveIndirectRelPt */
MIRP[01101]\011/* MoveIndirectRelPt */
SRP1[ ]\011/* SetRefPoint1 */
SRP2[ ]\011/* SetRefPoint2 */
IP[ ]\011/* InterpolatePts */
IP[ ]\011/* InterpolatePts */
SRP1[ ]\011/* SetRefPoint1 */
SRP2[ ]\011/* SetRefPoint2 */
IP[ ]\011/* InterpolatePts */
IP[ ]\011/* InterpolatePts */
IUP[1]\011/* InterpolateUntPts */
IUP[0]\011/* InterpolateUntPts */";
};
width = 1241;
}
);
note = equal;
unicode = 003D;
},
{
glyphname = greater;
lastChange = "2018-11-24 07:25:13 +0000";
layers = (
{
layerId = "F6FCABFB-DB8B-4A8A-BD05-D26D4B0CC58D";
paths = (
{
closed = 1;
nodes = (
"104 201 LINE",
"1137 670 LINE",
"1137 800 LINE",
"104 1271 LINE",
"104 1124 LINE",
"943 734 LINE",
"104 347 LINE"
);
}
);
userData = {
assembly = "NPUSHB[ ]\011/* 63 values pushed */
4 1 2 2 85 3 4 20 3 3 4 5 1 0 0 85 6 5 20 6 6 5 0 218 64 6 201 1 32 2 218 64 3 201 32 1 1 4 5 2 0 3 6 0 5 16 5 2 5 74 8 3 0 6 16 6 2 6 73 7 95 152 24 
CALL[ ]\011/* CallFunction */
FLIPOFF[ ]\011/* SetAutoFlipOff */
SRP0[ ]\011/* SetRefPoint0 */
MIRP[10100]\011/* MoveIndirectRelPt */
DELTAP1[ ]\011/* DeltaExceptionP1 */
ALIGNRP[ ]\011/* AlignRelativePt */
SRP0[ ]\011/* SetRefPoint0 */
MIRP[00110]\011/* MoveIndirectRelPt */
DELTAP1[ ]\011/* DeltaExceptionP1 */
SRP1[ ]\011/* SetRefPoint1 */
SRP2[ ]\011/* SetRefPoint2 */
IP[ ]\011/* InterpolatePts */
IP[ ]\011/* InterpolatePts */
SRP1[ ]\011/* SetRefPoint1 */
SHP[1]\011/* ShiftPointByLastPoint */
SHP[1]\011/* ShiftPointByLastPoint */
SVTCA[0]\011/* SetFreedomAndProjectionVectorToAxis */
RTHG[ ]\011/* RoundToHalfGrid */
MDAP[1]\011/* MoveDirectAbsPt */
SMD[ ]\011/* SetMinimumDistance */
FLIPON[ ]\011/* SetAutoFlipOn */
MIRP[11101]\011/* MoveIndirectRelPt */
SMD[ ]\011/* SetMinimumDistance */
RTG[ ]\011/* RoundToGrid */
MIRP[01101]\011/* MoveIndirectRelPt */
SMD[ ]\011/* SetMinimumDistance */
RTHG[ ]\011/* RoundToHalfGrid */
SRP0[ ]\011/* SetRefPoint0 */
MIRP[11101]\011/* MoveIndirectRelPt */
SMD[ ]\011/* SetMinimumDistance */
RTG[ ]\011/* RoundToGrid */
MIRP[01101]\011/* MoveIndirectRelPt */
SDPVTL[1]\011/* SetDualPVectorToLine */
MDAP[0]\011/* MoveDirectAbsPt */
CALL[ ]\011/* CallFunction */
SDPVTL[1]\011/* SetDualPVectorToLine */
RDTG[ ]\011/* RoundDownToGrid */
MDRP[00100]\011/* MoveDirectRelPt */
SDPVTL[1]\011/* SetDualPVectorToLine */
MDAP[0]\011/* MoveDirectAbsPt */
RTG[ ]\011/* RoundToGrid */
CALL[ ]\011/* CallFunction */
SDPVTL[1]\011/* SetDualPVectorToLine */
RDTG[ ]\011/* RoundDownToGrid */
MDRP[00100]\011/* MoveDirectRelPt */
IUP[1]\011/* InterpolateUntPts */
IUP[0]\011/* InterpolateUntPts */";
};
width = 1241;
}
);
note = greater;
unicode = 003E;
},
{
glyphname = question;
lastChange = "2018-11-24 07:25:13 +0000";
layers = (
{
layerId = "F6FCABFB-DB8B-4A8A-BD05-D26D4B0CC58D";
paths = (
{
closed = 1;
nodes = (
"317.667 1157 OFFCURVE",
"338.333 1223 OFFCURVE",
"377 1269 CURVE SMOOTH",
"432.333 1335 OFFCURVE",
"510 1368 OFFCURVE",
"610 1368 CURVE SMOOTH",
"774 1368 OFFCURVE",
"880 1277 OFFCURVE",
"880 1161 CURVE SMOOTH",
"880 1106.333 OFFCURVE",
"860 1064.333 OFFCURVE",
"820 1035 CURVE SMOOTH",
"779.333 1005.667 OFFCURVE",
"687 961.667 OFFCURVE",
"543 903 CURVE SMOOTH",
"453.667 866.333 OFFCURVE",
"392.833 836 OFFCURVE",
"360.5 812 CURVE SMOOTH",
"328.167 788 OFFCURVE",
"303.167 758.167 OFFCURVE",
"285.5 722.5 CURVE",
"295.833 764 OFFCURVE",
"259 689 OFFCURVE",
"259 609 CURVE SMOOTH",
"259 445 OFFCURVE",
"397 318 OFFCURVE",
"613 318 CURVE SMOOTH",
"830.333 318 OFFCURVE",
"966.667 447.333 OFFCURVE",
"976 670 CURVE",
"830 670 LINE",
"814 522 OFFCURVE",
"745 458 OFFCURVE",
"613 458 CURVE SMOOTH",
"493 458 OFFCURVE",
"410 530.667 OFFCURVE",
"410 608 CURVE SMOOTH",
"410 644.667 OFFCURVE",
"424 676 OFFCURVE",
"452 702 CURVE SMOOTH",
"479.333 727.333 OFFCURVE",
"558 766 OFFCURVE",
"688 818 CURVE SMOOTH",
"894.667 899.333 OFFCURVE",
"956.833 954.167 OFFCURVE",
"997.5 1033.5 CURVE SMOOTH",
"1017.833 1073.167 OFFCURVE",
"1028 1116.333 OFFCURVE",
"1028 1163 CURVE SMOOTH",
"1028 1359 OFFCURVE",
"869.333 1508 OFFCURVE",
"608 1508 CURVE SMOOTH",
"342.667 1508 OFFCURVE",
"172.667 1340.333 OFFCURVE",
"170 1071 CURVE",
"315 1071 LINE"
);
},
{
closed = 1;
nodes = (
"539 220 OFFCURVE",
"484 165.333 OFFCURVE",
"484 96 CURVE SMOOTH",
"484 28 OFFCURVE",
"539 -28 OFFCURVE",
"607 -28 CURVE SMOOTH",
"675 -28 OFFCURVE",
"730 28 OFFCURVE",
"730 96 CURVE SMOOTH",
"730 165.333 OFFCURVE",
"675 220 OFFCURVE",
"607 220 CURVE SMOOTH"
);
}
);
userData = {
assembly = "NPUSHB[ ]\011/* 34 values pushed */
180 32 180 33 196 32 196 33 4 61 12 61 30 95 12 95 30 100 9 125 30 128 12 144 10 175 33 9 20 48 17 21 57 41 
PUSHW[ ]\011/* 1 value pushed */
-48 
NPUSHB[ ]\011/* 24 values pushed */
12 17 57 40 8 11 32 39 48 21 1 0 21 16 21 32 21 3 9 0 21 1 8 21 
PUSHW[ ]\011/* 1 value pushed */
402 
PUSHB[ ]\011/* 3 values pushed */
18 97 25 
PUSHW[ ]\011/* 1 value pushed */
382 
NPUSHB[ ]\011/* 20 values pushed */
192 43 1 43 124 49 11 15 0 31 0 47 0 3 9 15 0 1 8 0 
PUSHW[ ]\011/* 1 value pushed */
412 
NPUSHB[ ]\011/* 36 values pushed */
39 97 15 4 1 4 1 192 46 1 46 164 52 52 28 21 99 22 155 36 99 7 74 56 15 99 28 246 0 99 1 73 55 103 150 24 
CALL[ ]\011/* CallFunction */
FLIPOFF[ ]\011/* SetAutoFlipOff */
SRP0[ ]\011/* SetRefPoint0 */
MIRP[10100]\011/* MoveIndirectRelPt */
FLIPON[ ]\011/* SetAutoFlipOn */
MIRP[01101]\011/* MoveIndirectRelPt */
MIRP[10100]\011/* MoveIndirectRelPt */
MIRP[01101]\011/* MoveIndirectRelPt */
FLIPOFF[ ]\011/* SetAutoFlipOff */
SRP0[ ]\011/* SetRefPoint0 */
MIRP[10110]\011/* MoveIndirectRelPt */
FLIPON[ ]\011/* SetAutoFlipOn */
MIRP[01101]\011/* MoveIndirectRelPt */
MIRP[10100]\011/* MoveIndirectRelPt */
MIRP[01101]\011/* MoveIndirectRelPt */
SRP2[ ]\011/* SetRefPoint2 */
IP[ ]\011/* InterpolatePts */
MDAP[1]\011/* MoveDirectAbsPt */
MIRP[01101]\011/* MoveIndirectRelPt */
DELTAP1[ ]\011/* DeltaExceptionP1 */
SVTCA[0]\011/* SetFreedomAndProjectionVectorToAxis */
MIAP[1]\011/* MoveIndirectAbsPt */
DELTAP1[ ]\011/* DeltaExceptionP1 */
MIRP[11101]\011/* MoveIndirectRelPt */
MIRP[00100]\011/* MoveIndirectRelPt */
SDB[ ]\011/* SetDeltaBaseInGState */
DELTAP1[ ]\011/* DeltaExceptionP1 */
SDB[ ]\011/* SetDeltaBaseInGState */
DELTAP1[ ]\011/* DeltaExceptionP1 */
MIAP[1]\011/* MoveIndirectAbsPt */
MIRP[11101]\011/* MoveIndirectRelPt */
DELTAP1[ ]\011/* DeltaExceptionP1 */
MIRP[11110]\011/* MoveIndirectRelPt */
MIRP[11101]\011/* MoveIndirectRelPt */
MIRP[00100]\011/* MoveIndirectRelPt */
SDB[ ]\011/* SetDeltaBaseInGState */
DELTAP1[ ]\011/* DeltaExceptionP1 */
SDB[ ]\011/* SetDeltaBaseInGState */
DELTAP1[ ]\011/* DeltaExceptionP1 */
DELTAP1[ ]\011/* DeltaExceptionP1 */
SRP2[ ]\011/* SetRefPoint2 */
IP[ ]\011/* InterpolatePts */
IP[ ]\011/* InterpolatePts */
IUP[1]\011/* InterpolateUntPts */
IUP[0]\011/* InterpolateUntPts */
RS[ ]\011/* ReadStore */
JROF[ ]\011/* JumpRelativeOnFalse */
NPUSHB[ ]\011/* 28 values pushed */
37 38 26 27 16 17 5 6 17 26 15 87 0 38 5 36 87 1 16 27 18 87 0 37 6 39 87 1 
CALL[ ]\011/* CallFunction */
CALL[ ]\011/* CallFunction */
SVTCA[1]\011/* SetFreedomAndProjectionVectorToAxis */
CALL[ ]\011/* CallFunction */
CALL[ ]\011/* CallFunction */
FLIPRGON[ ]\011/* FlipRangeOn */
FLIPRGON[ ]\011/* FlipRangeOn */
FLIPRGON[ ]\011/* FlipRangeOn */
FLIPRGON[ ]\011/* FlipRangeOn */
SVTCA[1]\011/* SetFreedomAndProjectionVectorToAxis */
CALL[ ]\011/* CallFunction */
CALL[ ]\011/* CallFunction */
DELTAP1[ ]\011/* DeltaExceptionP1 */
SVTCA[0]\011/* SetFreedomAndProjectionVectorToAxis */
DELTAP1[ ]\011/* DeltaExceptionP1 */";
};
width = 1210;
}
);
note = question;
unicode = 003F;
},
{
glyphname = at;
lastChange = "2018-11-24 07:25:13 +0000";
layers = (
{
layerId = "F6FCABFB-DB8B-4A8A-BD05-D26D4B0CC58D";
paths = (
{
closed = 1;
nodes = (
"1264 119.667 OFFCURVE",
"1121.333 61 OFFCURVE",
"928 61 CURVE SMOOTH",
"664 61 OFFCURVE",
"432 191.167 OFFCURVE",
"308 406.5 CURVE SMOOTH",
"246 514.167 OFFCURVE",
"215 631.667 OFFCURVE",
"215 759 CURVE SMOOTH",
"215 1011 OFFCURVE",
"346.833 1243.167 OFFCURVE",
"559.5 1362.5 CURVE SMOOTH",
"665.833 1422.167 OFFCURVE",
"784.333 1452 OFFCURVE",
"915 1452 CURVE SMOOTH",
"1091 1452 OFFCURVE",
"1240.333 1400.333 OFFCURVE",
"1363 1297 CURVE SMOOTH",
"1494.333 1185.667 OFFCURVE",
"1560 1045.333 OFFCURVE",
"1560 876 CURVE SMOOTH",
"1560 701.333 OFFCURVE",
"1486.5 552.833 OFFCURVE",
"1360.5 461.5 CURVE SMOOTH",
"1297.5 415.833 OFFCURVE",
"1246.333 393 OFFCURVE",
"1207 393 CURVE SMOOTH",
"1177.667 393 OFFCURVE",
"1157 411.333 OFFCURVE",
"1157 442 CURVE SMOOTH",
"1157 448 OFFCURVE",
"1158.667 461.667 OFFCURVE",
"1162 483 CURVE SMOOTH",
"1278 1137 LINE",
"1170 1137 LINE",
"1144 999 LINE",
"1073.333 1108.333 OFFCURVE",
"1001.333 1147 OFFCURVE",
"884 1147 CURVE SMOOTH",
"617.333 1147 OFFCURVE",
"456 914 OFFCURVE",
"456 678 CURVE SMOOTH",
"456 459.333 OFFCURVE",
"596 315 OFFCURVE",
"788 315 CURVE SMOOTH",
"873.333 315 OFFCURVE",
"959.667 358.667 OFFCURVE",
"1005 416 CURVE",
"1005.667 378 OFFCURVE",
"1014.667 351.333 OFFCURVE",
"1032 336 CURVE SMOOTH",
"1054.667 315.333 OFFCURVE",
"1085.333 305 OFFCURVE",
"1124 305 CURVE SMOOTH",
"1177.333 305 OFFCURVE",
"1241.667 324.333 OFFCURVE",
"1317 363 CURVE SMOOTH",
"1514.333 463 OFFCURVE",
"1638 646.667 OFFCURVE",
"1638 896 CURVE SMOOTH",
"1638 1238.667 OFFCURVE",
"1322.667 1540 OFFCURVE",
"920 1540 CURVE SMOOTH",
"634.667 1540 OFFCURVE",
"380.833 1396.667 OFFCURVE",
"241.5 1150 CURVE SMOOTH",
"171.833 1026.667 OFFCURVE",
"137 893.333 OFFCURVE",
"137 750 CURVE SMOOTH",
"137 467.333 OFFCURVE",
"282.333 214.5 OFFCURVE",
"529 76.5 CURVE SMOOTH",
"652.333 7.5 OFFCURVE",
"787 -27 OFFCURVE",
"933 -27 CURVE SMOOTH",
"1071 -27 OFFCURVE",
"1194 4.333 OFFCURVE",
"1302 67 CURVE SMOOTH",
"1378 111.667 OFFCURVE",
"1460.667 189.667 OFFCURVE",
"1550 301 CURVE",
"1444 301 LINE"
);
},
{
closed = 1;
nodes = (
"698 428 OFFCURVE",
"600 532 OFFCURVE",
"600 696 CURVE SMOOTH",
"600 892 OFFCURVE",
"735 1040 OFFCURVE",
"895 1040 CURVE SMOOTH",
"1015 1040 OFFCURVE",
"1098 947.667 OFFCURVE",
"1098 813 CURVE SMOOTH",
"1098 739.667 OFFCURVE",
"1083.333 666.667 OFFCURVE",
"1054 594 CURVE SMOOTH",
"1008.667 483.333 OFFCURVE",
"926 428 OFFCURVE",
"838 428 CURVE SMOOTH"
);
}
);
userData = {
assembly = "NPUSHB[ ]\011/* 72 values pushed */
0 6 0 60 16 35 48 33 48 73 70 39 86 39 118 39 138 66 180 35 180 63 207 66 12 4 60 16 0 16 1 16 63 43 4 59 73 148 63 7 190 8 37 69 25 38 38 25 25 85 41 39 20 41 41 39 39 34 38 25 45 37 72 64 106 28 186 45 170 21 188 1 
PUSHW[ ]\011/* 1 value pushed */
416 
NPUSHB[ ]\011/* 39 values pushed */
5 72 106 34 186 38 53 170 13 1 0 38 1 38 7 61 170 5 11 63 64 12 27 57 0 64 12 27 57 1 64 12 27 57 1 39 49 42 25 
NPUSHW[ ]\011/* 9 values pushed */
389 41 381 38 383 39 611 49 286 
PUSHB[ ]\011/* 6 values pushed */
16 74 79 75 99 31 
PUSHW[ ]\011/* 3 values pushed */
611 57 286 
PUSHB[ ]\011/* 6 values pushed */
9 73 78 110 113 24 
CALL[ ]\011/* CallFunction */
FLIPOFF[ ]\011/* SetAutoFlipOff */
SRP0[ ]\011/* SetRefPoint0 */
MIRP[10100]\011/* MoveIndirectRelPt */
FLIPON[ ]\011/* SetAutoFlipOn */
MIRP[01101]\011/* MoveIndirectRelPt */
MIRP[10100]\011/* MoveIndirectRelPt */
MIRP[01101]\011/* MoveIndirectRelPt */
FLIPOFF[ ]\011/* SetAutoFlipOff */
SRP0[ ]\011/* SetRefPoint0 */
MIRP[10110]\011/* MoveIndirectRelPt */
FLIPON[ ]\011/* SetAutoFlipOn */
MIRP[01101]\011/* MoveIndirectRelPt */
MIRP[10100]\011/* MoveIndirectRelPt */
MIRP[01101]\011/* MoveIndirectRelPt */
MIRP[10100]\011/* MoveIndirectRelPt */
MIRP[01101]\011/* MoveIndirectRelPt */
SRP1[ ]\011/* SetRefPoint1 */
SRP2[ ]\011/* SetRefPoint2 */
IP[ ]\011/* InterpolatePts */
IP[ ]\011/* InterpolatePts */
CALL[ ]\011/* CallFunction */
CALL[ ]\011/* CallFunction */
CALL[ ]\011/* CallFunction */
SVTCA[0]\011/* SetFreedomAndProjectionVectorToAxis */
MIAP[1]\011/* MoveIndirectAbsPt */
MIRP[01101]\011/* MoveIndirectRelPt */
MIAP[1]\011/* MoveIndirectAbsPt */
DELTAP1[ ]\011/* DeltaExceptionP1 */
MIAP[1]\011/* MoveIndirectAbsPt */
MIRP[01101]\011/* MoveIndirectRelPt */
SRP0[ ]\011/* SetRefPoint0 */
MIRP[10100]\011/* MoveIndirectRelPt */
MIRP[01101]\011/* MoveIndirectRelPt */
SRP0[ ]\011/* SetRefPoint0 */
MIRP[11101]\011/* MoveIndirectRelPt */
MIRP[10110]\011/* MoveIndirectRelPt */
MIRP[01101]\011/* MoveIndirectRelPt */
MIRP[10100]\011/* MoveIndirectRelPt */
MIRP[11101]\011/* MoveIndirectRelPt */
SRP1[ ]\011/* SetRefPoint1 */
IP[ ]\011/* InterpolatePts */
SRP1[ ]\011/* SetRefPoint1 */
IP[ ]\011/* InterpolatePts */
SRP1[ ]\011/* SetRefPoint1 */
SRP2[ ]\011/* SetRefPoint2 */
IP[ ]\011/* InterpolatePts */
SDPVTL[1]\011/* SetDualPVectorToLine */
SFVTPV[ ]\011/* SetFVectorToPVector */
MDAP[0]\011/* MoveDirectAbsPt */
CALL[ ]\011/* CallFunction */
SFVTCA[1]\011/* SetFVectorToAxis */
RDTG[ ]\011/* RoundDownToGrid */
SRP0[ ]\011/* SetRefPoint0 */
MDRP[00100]\011/* MoveDirectRelPt */
SDPVTL[1]\011/* SetDualPVectorToLine */
SFVTPV[ ]\011/* SetFVectorToPVector */
MDRP[00100]\011/* MoveDirectRelPt */
MDRP[00100]\011/* MoveDirectRelPt */
IUP[1]\011/* InterpolateUntPts */
IUP[0]\011/* InterpolateUntPts */
RTG[ ]\011/* RoundToGrid */
RS[ ]\011/* ReadStore */
JROF[ ]\011/* JumpRelativeOnFalse */
NPUSHB[ ]\011/* 33 values pushed */
70 77 43 63 29 36 2 24 3 38 59 38 7 37 18 17 19 17 2 6 47 37 23 37 51 38 55 37 11 38 62 4 0 
PUSHW[ ]\011/* 1 value pushed */
422 
NPUSHB[ ]\011/* 13 values pushed */
1 2 1 63 0 60 6 57 165 0 46 20 49 
PUSHW[ ]\011/* 1 value pushed */
422 
NPUSHB[ ]\011/* 31 values pushed */
1 44 22 42 107 0 77 29 75 87 0 52 14 49 165 1 54 12 57 165 0 71 35 69 87 1 36 37 73 33 75 
PUSHW[ ]\011/* 1 value pushed */
422 
PUSHB[ ]\011/* 4 values pushed */
0 63 2 61 
PUSHW[ ]\011/* 1 value pushed */
422 
NPUSHB[ ]\011/* 9 values pushed */
0 58 8 61 165 0 48 17 45 
PUSHW[ ]\011/* 1 value pushed */
422 
NPUSHB[ ]\011/* 29 values pushed */
0 43 24 45 107 0 76 30 64 87 0 50 15 53 165 1 56 10 53 165 1 70 36 72 87 1 74 32 72 
PUSHW[ ]\011/* 2 values pushed */
422 1 
SVTCA[0]\011/* SetFreedomAndProjectionVectorToAxis */
CALL[ ]\011/* CallFunction */
CALL[ ]\011/* CallFunction */
CALL[ ]\011/* CallFunction */
CALL[ ]\011/* CallFunction */
CALL[ ]\011/* CallFunction */
CALL[ ]\011/* CallFunction */
CALL[ ]\011/* CallFunction */
CALL[ ]\011/* CallFunction */
CALL[ ]\011/* CallFunction */
SVTCA[1]\011/* SetFreedomAndProjectionVectorToAxis */
CALL[ ]\011/* CallFunction */
SRP0[ ]\011/* SetRefPoint0 */
ALIGNRP[ ]\011/* AlignRelativePt */
CALL[ ]\011/* CallFunction */
CALL[ ]\011/* CallFunction */
CALL[ ]\011/* CallFunction */
CALL[ ]\011/* CallFunction */
CALL[ ]\011/* CallFunction */
CALL[ ]\011/* CallFunction */
CALL[ ]\011/* CallFunction */
SRP0[ ]\011/* SetRefPoint0 */
ALIGNRP[ ]\011/* AlignRelativePt */
SRP0[ ]\011/* SetRefPoint0 */
ALIGNRP[ ]\011/* AlignRelativePt */
CALL[ ]\011/* CallFunction */
CALL[ ]\011/* CallFunction */
CALL[ ]\011/* CallFunction */
CALL[ ]\011/* CallFunction */
CALL[ ]\011/* CallFunction */
CALL[ ]\011/* CallFunction */
LOOPCALL[ ]\011/* LoopAndCallFunction */
CALL[ ]\011/* CallFunction */
CALL[ ]\011/* CallFunction */
CALL[ ]\011/* CallFunction */
FLIPRGON[ ]\011/* FlipRangeOn */
FLIPRGON[ ]\011/* FlipRangeOn */
FLIPRGON[ ]\011/* FlipRangeOn */
FLIPRGON[ ]\011/* FlipRangeOn */
SVTCA[0]\011/* SetFreedomAndProjectionVectorToAxis */
DELTAP1[ ]\011/* DeltaExceptionP1 */
SVTCA[1]\011/* SetFreedomAndProjectionVectorToAxis */
DELTAP1[ ]\011/* DeltaExceptionP1 */";
};
width = 1776;
}
);
note = at;
unicode = 0040;
},
{
glyphname = A;
lastChange = "2018-11-24 07:25:13 +0000";
layers = (
{
layerId = "F6FCABFB-DB8B-4A8A-BD05-D26D4B0CC58D";
paths = (
{
closed = 1;
nodes = (
"744 1471 LINE",
"49 0 LINE",
"213 0 LINE",
"443 484 LINE",
"1077 484 LINE",
"1308 0 LINE",
"1466 0 LINE",
"780 1471 LINE"
);
},
{
closed = 1;
nodes = (
"1012 626 LINE",
"509 626 LINE",
"762 1159 LINE"
);
}
);
userData = {
assembly = "NPUSHB[ ]\011/* 62 values pushed */
103 9 1 10 3 2 2 8 9 4 5 5 8 8 2 8 5 2 86 1 0 20 1 1 0 8 5 8 2 5 86 6 7 20 6 6 7 8 7 0 3 10 4 9 2 5 1 6 4 94 9 9 6 0 2 1 6 8 8 0 7 12 
PUSHW[ ]\011/* 5 values pushed */
283 2 535 1 337 
PUSHB[ ]\011/* 3 values pushed */
0 189 7 
NPUSHW[ ]\011/* 9 values pushed */
337 5 535 6 283 11 533 534 24 
CALL[ ]\011/* CallFunction */
SRP0[ ]\011/* SetRefPoint0 */
MIRP[10110]\011/* MoveIndirectRelPt */
MIRP[01101]\011/* MoveIndirectRelPt */
MIRP[10100]\011/* MoveIndirectRelPt */
MIRP[11110]\011/* MoveIndirectRelPt */
MIRP[10100]\011/* MoveIndirectRelPt */
MIRP[01101]\011/* MoveIndirectRelPt */
MIRP[00110]\011/* MoveIndirectRelPt */
SRP1[ ]\011/* SetRefPoint1 */
SRP2[ ]\011/* SetRefPoint2 */
IP[ ]\011/* InterpolatePts */
SVTCA[0]\011/* SetFreedomAndProjectionVectorToAxis */
MIAP[1]\011/* MoveIndirectAbsPt */
ALIGNRP[ ]\011/* AlignRelativePt */
MIAP[1]\011/* MoveIndirectAbsPt */
SRP1[ ]\011/* SetRefPoint1 */
IP[ ]\011/* InterpolatePts */
MDAP[1]\011/* MoveDirectAbsPt */
MIRP[01101]\011/* MoveIndirectRelPt */
SRP1[ ]\011/* SetRefPoint1 */
SRP2[ ]\011/* SetRefPoint2 */
IP[ ]\011/* InterpolatePts */
IP[ ]\011/* InterpolatePts */
SRP1[ ]\011/* SetRefPoint1 */
SRP2[ ]\011/* SetRefPoint2 */
IP[ ]\011/* InterpolatePts */
IP[ ]\011/* InterpolatePts */
SRP2[ ]\011/* SetRefPoint2 */
IP[ ]\011/* InterpolatePts */
IP[ ]\011/* InterpolatePts */
SDPVTL[1]\011/* SetDualPVectorToLine */
SFVTCA[1]\011/* SetFVectorToAxis */
MDAP[0]\011/* MoveDirectAbsPt */
CALL[ ]\011/* CallFunction */
SFVTL[0]\011/* SetFVectorToLine */
RDTG[ ]\011/* RoundDownToGrid */
SRP0[ ]\011/* SetRefPoint0 */
MDRP[00100]\011/* MoveDirectRelPt */
SDPVTL[1]\011/* SetDualPVectorToLine */
SFVTCA[1]\011/* SetFVectorToAxis */
MDAP[0]\011/* MoveDirectAbsPt */
RTG[ ]\011/* RoundToGrid */
CALL[ ]\011/* CallFunction */
SFVTL[0]\011/* SetFVectorToLine */
RDTG[ ]\011/* RoundDownToGrid */
SRP0[ ]\011/* SetRefPoint0 */
MDRP[00100]\011/* MoveDirectRelPt */
SPVTL[1]\011/* SetPVectorToLine */
SFVTCA[1]\011/* SetFVectorToAxis */
SRP0[ ]\011/* SetRefPoint0 */
ALIGNRP[ ]\011/* AlignRelativePt */
ALIGNRP[ ]\011/* AlignRelativePt */
SDPVTL[1]\011/* SetDualPVectorToLine */
SRP0[ ]\011/* SetRefPoint0 */
MDRP[00100]\011/* MoveDirectRelPt */
ALIGNRP[ ]\011/* AlignRelativePt */
IUP[1]\011/* InterpolateUntPts */
IUP[0]\011/* InterpolateUntPts */
SVTCA[1]\011/* SetFreedomAndProjectionVectorToAxis */
DELTAP1[ ]\011/* DeltaExceptionP1 */";
};
width = 1515;
}
);
note = A;
unicode = 0041;
},
{
glyphname = B;
lastChange = "2018-11-24 07:25:13 +0000";
layers = (
{
layerId = "F6FCABFB-DB8B-4A8A-BD05-D26D4B0CC58D";
paths = (
{
closed = 1;
nodes = (
"183 0 LINE",
"587 0 LINE SMOOTH",
"877.667 0 OFFCURVE",
"1064 186 OFFCURVE",
"1064 422 CURVE SMOOTH",
"1064 538 OFFCURVE",
"1015.667 640.5 OFFCURVE",
"933 710.5 CURVE SMOOTH",
"891.667 745.5 OFFCURVE",
"832.667 776 OFFCURVE",
"756 802 CURVE",
"880 868.667 OFFCURVE",
"945 980.333 OFFCURVE",
"945 1111 CURVE SMOOTH",
"945 1251 OFFCURVE",
"867.333 1374.167 OFFCURVE",
"742 1429.5 CURVE SMOOTH",
"679.333 1457.167 OFFCURVE",
"589.667 1471 OFFCURVE",
"473 1471 CURVE SMOOTH",
"183 1471 LINE"
);
},
{
closed = 1;
nodes = (
"497 1327 LINE SMOOTH",
"702.333 1327 OFFCURVE",
"792 1245.667 OFFCURVE",
"792 1111 CURVE SMOOTH",
"792 1011 OFFCURVE",
"732 922.5 OFFCURVE",
"636 884.5 CURVE SMOOTH",
"588 865.5 OFFCURVE",
"513 856 OFFCURVE",
"411 856 CURVE SMOOTH",
"327 856 LINE",
"327 1327 LINE"
);
},
{
closed = 1;
nodes = (
"410 708 LINE SMOOTH",
"534 708 OFFCURVE",
"621 702 OFFCURVE",
"671 690 CURVE SMOOTH",
"820.333 654 OFFCURVE",
"911 549.667 OFFCURVE",
"911 419 CURVE SMOOTH",
"911 315 OFFCURVE",
"845 217.5 OFFCURVE",
"745 175.5 CURVE SMOOTH",
"695 154.5 OFFCURVE",
"616.333 144 OFFCURVE",
"509 144 CURVE SMOOTH",
"327 144 LINE",
"327 708 LINE"
);
}
);
userData = {
assembly = "NPUSHB[ ]\011/* 57 values pushed */
81 8 27 18 17 8 27 19 38 18 28 15 29 16 17 1 26 0 38 94 15 18 1 9 15 18 1 8 18 18 0 29 94 16 8 26 94 0 2 36 8 21 3 23 0 17 18 27 4 28 16 23 112 15 5 1 5 
PUSHW[ ]\011/* 1 value pushed */
536 
NPUSHB[ ]\011/* 13 values pushed */
33 112 12 74 40 28 101 16 73 39 102 131 24 
CALL[ ]\011/* CallFunction */
FLIPOFF[ ]\011/* SetAutoFlipOff */
SRP0[ ]\011/* SetRefPoint0 */
MIRP[10100]\011/* MoveIndirectRelPt */
FLIPON[ ]\011/* SetAutoFlipOn */
MIRP[01101]\011/* MoveIndirectRelPt */
FLIPOFF[ ]\011/* SetAutoFlipOff */
SRP0[ ]\011/* SetRefPoint0 */
MIRP[10110]\011/* MoveIndirectRelPt */
FLIPON[ ]\011/* SetAutoFlipOn */
MIRP[01101]\011/* MoveIndirectRelPt */
MIRP[10100]\011/* MoveIndirectRelPt */
DELTAP1[ ]\011/* DeltaExceptionP1 */
MIRP[01101]\011/* MoveIndirectRelPt */
SRP1[ ]\011/* SetRefPoint1 */
SRP2[ ]\011/* SetRefPoint2 */
SLOOP[ ]\011/* SetLoopVariable */
IP[ ]\011/* InterpolatePts */
SRP1[ ]\011/* SetRefPoint1 */
SLOOP[ ]\011/* SetLoopVariable */
IP[ ]\011/* InterpolatePts */
SVTCA[0]\011/* SetFreedomAndProjectionVectorToAxis */
MIAP[1]\011/* MoveIndirectAbsPt */
MIRP[01101]\011/* MoveIndirectRelPt */
MIAP[1]\011/* MoveIndirectAbsPt */
MIRP[01101]\011/* MoveIndirectRelPt */
SRP2[ ]\011/* SetRefPoint2 */
IP[ ]\011/* InterpolatePts */
MDAP[1]\011/* MoveDirectAbsPt */
SDB[ ]\011/* SetDeltaBaseInGState */
DELTAP1[ ]\011/* DeltaExceptionP1 */
SDB[ ]\011/* SetDeltaBaseInGState */
DELTAP1[ ]\011/* DeltaExceptionP1 */
MIRP[01101]\011/* MoveIndirectRelPt */
SRP1[ ]\011/* SetRefPoint1 */
SRP2[ ]\011/* SetRefPoint2 */
IP[ ]\011/* InterpolatePts */
IP[ ]\011/* InterpolatePts */
SRP1[ ]\011/* SetRefPoint1 */
SRP2[ ]\011/* SetRefPoint2 */
IP[ ]\011/* InterpolatePts */
IP[ ]\011/* InterpolatePts */
SRP1[ ]\011/* SetRefPoint1 */
SRP2[ ]\011/* SetRefPoint2 */
IP[ ]\011/* InterpolatePts */
IP[ ]\011/* InterpolatePts */
IP[ ]\011/* InterpolatePts */
SPVTCA[1]\011/* SetPVectorToAxis */
SFVTCA[1]\011/* SetFVectorToAxis */
SRP0[ ]\011/* SetRefPoint0 */
ALIGNRP[ ]\011/* AlignRelativePt */
ALIGNRP[ ]\011/* AlignRelativePt */
IUP[1]\011/* InterpolateUntPts */
IUP[0]\011/* InterpolateUntPts */
RS[ ]\011/* ReadStore */
JROF[ ]\011/* JumpRelativeOnFalse */
NPUSHB[ ]\011/* 59 values pushed */
2 37 21 37 3 37 31 37 10 37 35 34 36 34 2 6 20 7 23 117 3 25 2 23 117 1 30 14 33 117 1 37 9 33 117 3 22 6 19 117 0 7 24 4 26 117 1 32 13 29 117 0 34 11 38 117 1 9 8 
SVTCA[0]\011/* SetFreedomAndProjectionVectorToAxis */
SRP0[ ]\011/* SetRefPoint0 */
ALIGNRP[ ]\011/* AlignRelativePt */
CALL[ ]\011/* CallFunction */
CALL[ ]\011/* CallFunction */
CALL[ ]\011/* CallFunction */
ALIGNRP[ ]\011/* AlignRelativePt */
CALL[ ]\011/* CallFunction */
SVTCA[1]\011/* SetFreedomAndProjectionVectorToAxis */
CALL[ ]\011/* CallFunction */
CALL[ ]\011/* CallFunction */
CALL[ ]\011/* CallFunction */
CALL[ ]\011/* CallFunction */
LOOPCALL[ ]\011/* LoopAndCallFunction */
CALL[ ]\011/* CallFunction */
CALL[ ]\011/* CallFunction */
CALL[ ]\011/* CallFunction */
CALL[ ]\011/* CallFunction */
FLIPRGON[ ]\011/* FlipRangeOn */";
};
width = 1176;
}
);
note = B;
unicode = 0042;
},
{
glyphname = C;
lastChange = "2018-11-24 07:25:13 +0000";
layers = (
{
layerId = "F6FCABFB-DB8B-4A8A-BD05-D26D4B0CC58D";
paths = (
{
closed = 1;
nodes = (
"1407.667 1394 OFFCURVE",
"1179.667 1508 OFFCURVE",
"905 1508 CURVE SMOOTH",
"450.333 1508 OFFCURVE",
"111 1174.667 OFFCURVE",
"111 744 CURVE SMOOTH",
"111 539.333 OFFCURVE",
"173.333 364.667 OFFCURVE",
"298 220 CURVE SMOOTH",
"446.667 48.667 OFFCURVE",
"649.667 -37 OFFCURVE",
"907 -37 CURVE SMOOTH",
"1177.667 -37 OFFCURVE",
"1402.333 69.333 OFFCURVE",
"1549 256 CURVE",
"1433 344 LINE",
"1294.333 182.667 OFFCURVE",
"1122 102 OFFCURVE",
"916 102 CURVE SMOOTH",
"541.333 102 OFFCURVE",
"266 372.333 OFFCURVE",
"266 731 CURVE SMOOTH",
"266 968.333 OFFCURVE",
"381 1165.833 OFFCURVE",
"581 1278.5 CURVE SMOOTH",
"681 1334.833 OFFCURVE",
"789.667 1363 OFFCURVE",
"907 1363 CURVE SMOOTH",
"1121.667 1363 OFFCURVE",
"1305 1275.667 OFFCURVE",
"1433 1109 CURVE",
"1549 1198 LINE"
);
}
);
userData = {
assembly = "NPUSHB[ ]\011/* 53 values pushed */
135 2 1 200 13 198 26 217 1 3 200 1 203 2 203 12 3 187 1 186 12 186 13 3 173 2 173 12 168 13 3 136 12 155 2 155 12 3 116 16 116 25 136 2 132 25 4 40 8 14 0 1 13 
PUSHW[ ]\011/* 1 value pushed */
537 
PUSHB[ ]\011/* 5 values pushed */
11 122 17 9 1 
PUSHW[ ]\011/* 1 value pushed */
537 
NPUSHB[ ]\011/* 22 values pushed */
4 122 24 3 1 0 13 0 14 74 28 48 28 1 8 112 21 73 27 120 131 24 
CALL[ ]\011/* CallFunction */
FLIPOFF[ ]\011/* SetAutoFlipOff */
SRP0[ ]\011/* SetRefPoint0 */
MIRP[10100]\011/* MoveIndirectRelPt */
FLIPON[ ]\011/* SetAutoFlipOn */
MIRP[01101]\011/* MoveIndirectRelPt */
DELTAP1[ ]\011/* DeltaExceptionP1 */
FLIPOFF[ ]\011/* SetAutoFlipOff */
SRP0[ ]\011/* SetRefPoint0 */
MIRP[10110]\011/* MoveIndirectRelPt */
ALIGNRP[ ]\011/* AlignRelativePt */
SHP[0]\011/* ShiftPointByLastPoint */
SRP1[ ]\011/* SetRefPoint1 */
SHP[1]\011/* ShiftPointByLastPoint */
SVTCA[0]\011/* SetFreedomAndProjectionVectorToAxis */
MIAP[1]\011/* MoveIndirectAbsPt */
FLIPON[ ]\011/* SetAutoFlipOn */
MIRP[11101]\011/* MoveIndirectRelPt */
MIRP[00100]\011/* MoveIndirectRelPt */
MIAP[1]\011/* MoveIndirectAbsPt */
MIRP[11101]\011/* MoveIndirectRelPt */
MIRP[00100]\011/* MoveIndirectRelPt */
SRP1[ ]\011/* SetRefPoint1 */
SHP[1]\011/* ShiftPointByLastPoint */
SHP[0]\011/* ShiftPointByLastPoint */
IUP[1]\011/* InterpolateUntPts */
IUP[0]\011/* InterpolateUntPts */
RS[ ]\011/* ReadStore */
JROF[ ]\011/* JumpRelativeOnFalse */
NPUSHB[ ]\011/* 28 values pushed */
18 23 5 10 6 37 19 37 5 23 8 100 0 10 18 8 100 0 7 22 4 100 1 9 20 11 100 0 
CALL[ ]\011/* CallFunction */
CALL[ ]\011/* CallFunction */
SVTCA[1]\011/* SetFreedomAndProjectionVectorToAxis */
CALL[ ]\011/* CallFunction */
CALL[ ]\011/* CallFunction */
CALL[ ]\011/* CallFunction */
CALL[ ]\011/* CallFunction */
FLIPRGON[ ]\011/* FlipRangeOn */
FLIPRGON[ ]\011/* FlipRangeOn */
SVTCA[1]\011/* SetFreedomAndProjectionVectorToAxis */
DELTAP1[ ]\011/* DeltaExceptionP1 */
DELTAP1[ ]\011/* DeltaExceptionP1 */
DELTAP1[ ]\011/* DeltaExceptionP1 */
DELTAP1[ ]\011/* DeltaExceptionP1 */
DELTAP1[ ]\011/* DeltaExceptionP1 */
DELTAP1[ ]\011/* DeltaExceptionP1 */
SVTCA[0]\011/* SetFreedomAndProjectionVectorToAxis */
DELTAP1[ ]\011/* DeltaExceptionP1 */";
};
width = 1665;
}
);
note = C;
unicode = 0043;
},
{
glyphname = D;
lastChange = "2018-11-24 07:25:13 +0000";
layers = (
{
layerId = "F6FCABFB-DB8B-4A8A-BD05-D26D4B0CC58D";
paths = (
{
closed = 1;
nodes = (
"647 0 LINE SMOOTH",
"1013.667 0 OFFCURVE",
"1195.167 104 OFFCURVE",
"1322.5 328 CURVE SMOOTH",
"1386.167 440 OFFCURVE",
"1418 569.667 OFFCURVE",
"1418 717 CURVE SMOOTH",
"1418 1058.333 OFFCURVE",
"1248.333 1318 OFFCURVE",
"963 1418 CURVE SMOOTH",
"863.667 1453.333 OFFCURVE",
"704 1471 OFFCURVE",
"484 1471 CURVE SMOOTH",
"179 1471 LINE",
"179 0 LINE"
);
},
{
closed = 1;
nodes = (
"320 1328 LINE",
"424 1328 LINE SMOOTH",
"635.333 1328 OFFCURVE",
"787 1314 OFFCURVE",
"879 1286 CURVE SMOOTH",
"1124.333 1211.333 OFFCURVE",
"1269 999 OFFCURVE",
"1269 715 CURVE SMOOTH",
"1269 444.333 OFFCURVE",
"1134.333 249 OFFCURVE",
"913 177 CURVE SMOOTH",
"834.333 151.667 OFFCURVE",
"693.333 139 OFFCURVE",
"490 139 CURVE SMOOTH",
"320 139 LINE"
);
}
);
userData = {
assembly = "NPUSHB[ ]\011/* 35 values pushed */
55 8 12 11 13 0 23 2 24 1 13 94 0 8 24 94 1 2 24 1 12 0 18 112 7 74 26 12 101 0 73 25 102 131 24 
CALL[ ]\011/* CallFunction */
FLIPOFF[ ]\011/* SetAutoFlipOff */
SRP0[ ]\011/* SetRefPoint0 */
MIRP[10100]\011/* MoveIndirectRelPt */
FLIPON[ ]\011/* SetAutoFlipOn */
MIRP[01101]\011/* MoveIndirectRelPt */
FLIPOFF[ ]\011/* SetAutoFlipOff */
SRP0[ ]\011/* SetRefPoint0 */
MIRP[10110]\011/* MoveIndirectRelPt */
FLIPON[ ]\011/* SetAutoFlipOn */
MIRP[01101]\011/* MoveIndirectRelPt */
SRP1[ ]\011/* SetRefPoint1 */
SRP2[ ]\011/* SetRefPoint2 */
IP[ ]\011/* InterpolatePts */
IP[ ]\011/* InterpolatePts */
SVTCA[0]\011/* SetFreedomAndProjectionVectorToAxis */
MIAP[1]\011/* MoveIndirectAbsPt */
MIRP[01101]\011/* MoveIndirectRelPt */
MIAP[1]\011/* MoveIndirectAbsPt */
MIRP[01101]\011/* MoveIndirectRelPt */
SRP1[ ]\011/* SetRefPoint1 */
SRP2[ ]\011/* SetRefPoint2 */
IP[ ]\011/* InterpolatePts */
IP[ ]\011/* InterpolatePts */
SRP1[ ]\011/* SetRefPoint1 */
SRP2[ ]\011/* SetRefPoint2 */
IP[ ]\011/* InterpolatePts */
IP[ ]\011/* InterpolatePts */
IUP[1]\011/* InterpolateUntPts */
IUP[0]\011/* InterpolateUntPts */
RS[ ]\011/* ReadStore */
JROF[ ]\011/* JumpRelativeOnFalse */
NPUSHB[ ]\011/* 42 values pushed */
3 22 9 38 16 17 15 17 2 6 5 6 4 6 2 6 20 19 21 19 2 6 14 10 18 100 1 22 3 18 100 1 17 8 13 100 0 19 6 23 100 1 
CALL[ ]\011/* CallFunction */
CALL[ ]\011/* CallFunction */
SVTCA[1]\011/* SetFreedomAndProjectionVectorToAxis */
CALL[ ]\011/* CallFunction */
CALL[ ]\011/* CallFunction */
LOOPCALL[ ]\011/* LoopAndCallFunction */
LOOPCALL[ ]\011/* LoopAndCallFunction */
LOOPCALL[ ]\011/* LoopAndCallFunction */
CALL[ ]\011/* CallFunction */
FLIPRGON[ ]\011/* FlipRangeOn */";
};
width = 1524;
}
);
note = D;
unicode = 0044;
},
{
glyphname = E;
lastChange = "2018-11-24 07:25:13 +0000";
layers = (
{
layerId = "F6FCABFB-DB8B-4A8A-BD05-D26D4B0CC58D";
paths = (
{
closed = 1;
nodes = (
"180 0 LINE",
"1017 0 LINE",
"1017 145 LINE",
"327 145 LINE",
"327 722 LINE",
"1017 722 LINE",
"1017 866 LINE",
"327 866 LINE",
"327 1326 LINE",
"1023 1326 LINE",
"1023 1471 LINE",
"180 1471 LINE"
);
}
);
userData = {
assembly = "NPUSHB[ ]\011/* 54 values pushed */
7 4 3 10 9 11 8 6 5 7 4 2 1 3 0 7 94 4 4 11 3 94 0 2 8 94 11 8 5 9 13 10 3 0 8 11 5 167 1 167 0 10 1 10 74 13 8 101 11 73 12 102 175 24 
CALL[ ]\011/* CallFunction */
FLIPOFF[ ]\011/* SetAutoFlipOff */
SRP0[ ]\011/* SetRefPoint0 */
MIRP[10100]\011/* MoveIndirectRelPt */
FLIPON[ ]\011/* SetAutoFlipOn */
MIRP[01101]\011/* MoveIndirectRelPt */
FLIPOFF[ ]\011/* SetAutoFlipOff */
SRP0[ ]\011/* SetRefPoint0 */
MIRP[10110]\011/* MoveIndirectRelPt */
DELTAP1[ ]\011/* DeltaExceptionP1 */
FLIPON[ ]\011/* SetAutoFlipOn */
MIRP[10100]\011/* MoveIndirectRelPt */
MIRP[00100]\011/* MoveIndirectRelPt */
SRP1[ ]\011/* SetRefPoint1 */
SRP2[ ]\011/* SetRefPoint2 */
IP[ ]\011/* InterpolatePts */
IP[ ]\011/* InterpolatePts */
SRP1[ ]\011/* SetRefPoint1 */
SRP2[ ]\011/* SetRefPoint2 */
IP[ ]\011/* InterpolatePts */
IP[ ]\011/* InterpolatePts */
SVTCA[0]\011/* SetFreedomAndProjectionVectorToAxis */
MIAP[1]\011/* MoveIndirectAbsPt */
MIRP[01101]\011/* MoveIndirectRelPt */
MIAP[1]\011/* MoveIndirectAbsPt */
MIRP[01101]\011/* MoveIndirectRelPt */
SRP2[ ]\011/* SetRefPoint2 */
IP[ ]\011/* InterpolatePts */
MDAP[1]\011/* MoveDirectAbsPt */
MIRP[01101]\011/* MoveIndirectRelPt */
SRP1[ ]\011/* SetRefPoint1 */
SRP2[ ]\011/* SetRefPoint2 */
IP[ ]\011/* InterpolatePts */
IP[ ]\011/* InterpolatePts */
SRP1[ ]\011/* SetRefPoint1 */
SRP2[ ]\011/* SetRefPoint2 */
IP[ ]\011/* InterpolatePts */
IP[ ]\011/* InterpolatePts */
SRP1[ ]\011/* SetRefPoint1 */
SRP2[ ]\011/* SetRefPoint2 */
IP[ ]\011/* InterpolatePts */
IP[ ]\011/* InterpolatePts */
SPVTCA[1]\011/* SetPVectorToAxis */
SFVTCA[1]\011/* SetFVectorToAxis */
SRP0[ ]\011/* SetRefPoint0 */
ALIGNRP[ ]\011/* AlignRelativePt */
ALIGNRP[ ]\011/* AlignRelativePt */
IUP[1]\011/* InterpolateUntPts */
IUP[0]\011/* InterpolateUntPts */";
};
width = 1098;
}
);
note = E;
unicode = 0045;
},
{
glyphname = F;
lastChange = "2018-11-24 07:25:13 +0000";
layers = (
{
layerId = "F6FCABFB-DB8B-4A8A-BD05-D26D4B0CC58D";
paths = (
{
closed = 1;
nodes = (
"179 0 LINE",
"325 0 LINE",
"325 721 LINE",
"916 721 LINE",
"916 866 LINE",
"325 866 LINE",
"325 1326 LINE",
"916 1326 LINE",
"916 1471 LINE",
"179 1471 LINE"
);
}
);
userData = {
assembly = "NPUSHB[ ]\011/* 42 values pushed */
4 7 8 6 5 7 4 2 1 3 0 7 94 4 4 9 3 94 0 2 9 8 5 2 6 1 3 0 8 9 6 1 74 11 8 101 9 73 10 102 175 24 
CALL[ ]\011/* CallFunction */
FLIPOFF[ ]\011/* SetAutoFlipOff */
SRP0[ ]\011/* SetRefPoint0 */
MIRP[10100]\011/* MoveIndirectRelPt */
FLIPON[ ]\011/* SetAutoFlipOn */
MIRP[01101]\011/* MoveIndirectRelPt */
FLIPOFF[ ]\011/* SetAutoFlipOff */
SRP0[ ]\011/* SetRefPoint0 */
MIRP[10110]\011/* MoveIndirectRelPt */
ALIGNRP[ ]\011/* AlignRelativePt */
SRP1[ ]\011/* SetRefPoint1 */
SRP2[ ]\011/* SetRefPoint2 */
IP[ ]\011/* InterpolatePts */
IP[ ]\011/* InterpolatePts */
SRP1[ ]\011/* SetRefPoint1 */
SRP2[ ]\011/* SetRefPoint2 */
IP[ ]\011/* InterpolatePts */
IP[ ]\011/* InterpolatePts */
SVTCA[0]\011/* SetFreedomAndProjectionVectorToAxis */
MIAP[1]\011/* MoveIndirectAbsPt */
MIAP[1]\011/* MoveIndirectAbsPt */
FLIPON[ ]\011/* SetAutoFlipOn */
MIRP[01101]\011/* MoveIndirectRelPt */
SRP2[ ]\011/* SetRefPoint2 */
IP[ ]\011/* InterpolatePts */
MDAP[1]\011/* MoveDirectAbsPt */
MIRP[01101]\011/* MoveIndirectRelPt */
SRP1[ ]\011/* SetRefPoint1 */
SRP2[ ]\011/* SetRefPoint2 */
IP[ ]\011/* InterpolatePts */
IP[ ]\011/* InterpolatePts */
SRP1[ ]\011/* SetRefPoint1 */
SRP2[ ]\011/* SetRefPoint2 */
IP[ ]\011/* InterpolatePts */
IP[ ]\011/* InterpolatePts */
SPVTCA[1]\011/* SetPVectorToAxis */
SFVTCA[1]\011/* SetFVectorToAxis */
SRP0[ ]\011/* SetRefPoint0 */
ALIGNRP[ ]\011/* AlignRelativePt */
ALIGNRP[ ]\011/* AlignRelativePt */
IUP[1]\011/* InterpolateUntPts */
IUP[0]\011/* InterpolateUntPts */";
};
width = 993;
}
);
note = F;
unicode = 0046;
},
{
glyphname = G;
lastChange = "2018-11-24 07:25:13 +0000";
layers = (
{
layerId = "F6FCABFB-DB8B-4A8A-BD05-D26D4B0CC58D";
paths = (
{
closed = 1;
nodes = (
"1388.667 1422.667 OFFCURVE",
"1173.333 1508 OFFCURVE",
"924 1508 CURVE SMOOTH",
"616 1508 OFFCURVE",
"362 1365 OFFCURVE",
"222 1125 CURVE SMOOTH",
"152 1005 OFFCURVE",
"117 875.333 OFFCURVE",
"117 736 CURVE SMOOTH",
"117 548.667 OFFCURVE",
"178 383.667 OFFCURVE",
"300 241 CURVE SMOOTH",
"458.667 55.667 OFFCURVE",
"674 -37 OFFCURVE",
"946 -37 CURVE SMOOTH",
"1394 -37 OFFCURVE",
"1682.333 250.333 OFFCURVE",
"1685 705 CURVE",
"1051 705 LINE",
"1051 563 LINE",
"1520 563 LINE",
"1481.333 291 OFFCURVE",
"1252.667 103 OFFCURVE",
"950 103 CURVE SMOOTH",
"700.667 103 OFFCURVE",
"478.667 224.167 OFFCURVE",
"360 423.5 CURVE SMOOTH",
"300.667 523.167 OFFCURVE",
"271 628.333 OFFCURVE",
"271 739 CURVE SMOOTH",
"271 955 OFFCURVE",
"390.833 1163.667 OFFCURVE",
"599.5 1277 CURVE SMOOTH",
"703.833 1333.667 OFFCURVE",
"813.667 1362 OFFCURVE",
"929 1362 CURVE SMOOTH",
"1114.333 1362 OFFCURVE",
"1320 1277.333 OFFCURVE",
"1484 1116 CURVE",
"1598 1224 LINE"
);
}
);
userData = {
assembly = "NPUSHB[ ]\011/* 72 values pushed */
169 19 185 19 199 0 201 19 4 203 3 202 13 2 182 20 201 1 202 2 3 166 20 189 1 189 3 3 152 14 171 1 171 3 3 137 13 153 1 153 2 3 102 20 116 30 137 2 3 90 13 106 3 102 19 3 46 8 0 1 15 18 16 94 17 17 4 12 122 21 9 1 
PUSHW[ ]\011/* 1 value pushed */
537 
NPUSHB[ ]\011/* 10 values pushed */
4 122 29 3 17 17 15 8 1 0 
PUSHW[ ]\011/* 1 value pushed */
377 
NPUSHB[ ]\011/* 13 values pushed */
15 112 18 74 33 8 112 25 73 32 120 131 24 
CALL[ ]\011/* CallFunction */
FLIPOFF[ ]\011/* SetAutoFlipOff */
SRP0[ ]\011/* SetRefPoint0 */
MIRP[10100]\011/* MoveIndirectRelPt */
FLIPON[ ]\011/* SetAutoFlipOn */
MIRP[01101]\011/* MoveIndirectRelPt */
FLIPOFF[ ]\011/* SetAutoFlipOff */
SRP0[ ]\011/* SetRefPoint0 */
MIRP[10110]\011/* MoveIndirectRelPt */
FLIPON[ ]\011/* SetAutoFlipOn */
MIRP[01101]\011/* MoveIndirectRelPt */
MIRP[10100]\011/* MoveIndirectRelPt */
SHP[0]\011/* ShiftPointByLastPoint */
SRP1[ ]\011/* SetRefPoint1 */
SRP2[ ]\011/* SetRefPoint2 */
IP[ ]\011/* InterpolatePts */
MDAP[1]\011/* MoveDirectAbsPt */
SVTCA[0]\011/* SetFreedomAndProjectionVectorToAxis */
MIAP[1]\011/* MoveIndirectAbsPt */
MIRP[11101]\011/* MoveIndirectRelPt */
MIRP[00100]\011/* MoveIndirectRelPt */
MIAP[1]\011/* MoveIndirectAbsPt */
MIRP[11101]\011/* MoveIndirectRelPt */
SRP1[ ]\011/* SetRefPoint1 */
IP[ ]\011/* InterpolatePts */
MDAP[1]\011/* MoveDirectAbsPt */
MIRP[01101]\011/* MoveIndirectRelPt */
IP[ ]\011/* InterpolatePts */
IP[ ]\011/* InterpolatePts */
SRP1[ ]\011/* SetRefPoint1 */
SHP[1]\011/* ShiftPointByLastPoint */
IUP[1]\011/* InterpolateUntPts */
IUP[0]\011/* InterpolateUntPts */
RS[ ]\011/* ReadStore */
JROF[ ]\011/* JumpRelativeOnFalse */
NPUSHB[ ]\011/* 32 values pushed */
22 28 5 11 6 37 27 38 10 38 23 37 5 28 8 100 0 11 22 8 100 0 7 26 4 100 1 9 24 12 100 0 
CALL[ ]\011/* CallFunction */
CALL[ ]\011/* CallFunction */
SVTCA[1]\011/* SetFreedomAndProjectionVectorToAxis */
CALL[ ]\011/* CallFunction */
CALL[ ]\011/* CallFunction */
CALL[ ]\011/* CallFunction */
CALL[ ]\011/* CallFunction */
CALL[ ]\011/* CallFunction */
CALL[ ]\011/* CallFunction */
FLIPRGON[ ]\011/* FlipRangeOn */
FLIPRGON[ ]\011/* FlipRangeOn */
SVTCA[1]\011/* SetFreedomAndProjectionVectorToAxis */
DELTAP1[ ]\011/* DeltaExceptionP1 */
DELTAP1[ ]\011/* DeltaExceptionP1 */
DELTAP1[ ]\011/* DeltaExceptionP1 */
DELTAP1[ ]\011/* DeltaExceptionP1 */
DELTAP1[ ]\011/* DeltaExceptionP1 */
DELTAP1[ ]\011/* DeltaExceptionP1 */
DELTAP1[ ]\011/* DeltaExceptionP1 */
SVTCA[0]\011/* SetFreedomAndProjectionVectorToAxis */
DELTAP1[ ]\011/* DeltaExceptionP1 */";
};
width = 1786;
}
);
note = G;
unicode = 0047;
},
{
glyphname = H;
lastChange = "2018-11-24 07:25:13 +0000";
layers = (
{
layerId = "F6FCABFB-DB8B-4A8A-BD05-D26D4B0CC58D";
paths = (
{
closed = 1;
nodes = (
"177 0 LINE",
"325 0 LINE",
"325 710 LINE",
"1073 710 LINE",
"1073 0 LINE",
"1221 0 LINE",
"1221 1471 LINE",
"1073 1471 LINE",
"1073 854 LINE",
"325 854 LINE",
"325 1471 LINE",
"177 1471 LINE"
);
}
);
userData = {
assembly = "NPUSHB[ ]\011/* 65 values pushed */
8 3 4 9 2 1 7 10 6 11 4 1 5 0 3 2 94 8 9 9 0 6 11 8 5 0 2 5 4 5 8 4 7 6 0 1 2 9 4 10 11 7 101 80 6 1 6 74 13 9 15 13 1 8 10 101 95 11 1 11 73 12 102 174 24 
CALL[ ]\011/* CallFunction */
FLIPOFF[ ]\011/* SetAutoFlipOff */
SRP0[ ]\011/* SetRefPoint0 */
MIRP[10100]\011/* MoveIndirectRelPt */
DELTAP1[ ]\011/* DeltaExceptionP1 */
FLIPON[ ]\011/* SetAutoFlipOn */
MIRP[01101]\011/* MoveIndirectRelPt */
SDB[ ]\011/* SetDeltaBaseInGState */
DELTAP1[ ]\011/* DeltaExceptionP1 */
SDB[ ]\011/* SetDeltaBaseInGState */
FLIPOFF[ ]\011/* SetAutoFlipOff */
SRP0[ ]\011/* SetRefPoint0 */
MIRP[10110]\011/* MoveIndirectRelPt */
DELTAP1[ ]\011/* DeltaExceptionP1 */
FLIPON[ ]\011/* SetAutoFlipOn */
MIRP[01101]\011/* MoveIndirectRelPt */
SRP1[ ]\011/* SetRefPoint1 */
SRP2[ ]\011/* SetRefPoint2 */
SLOOP[ ]\011/* SetLoopVariable */
IP[ ]\011/* InterpolatePts */
SRP1[ ]\011/* SetRefPoint1 */
SRP2[ ]\011/* SetRefPoint2 */
SLOOP[ ]\011/* SetLoopVariable */
IP[ ]\011/* InterpolatePts */
SVTCA[0]\011/* SetFreedomAndProjectionVectorToAxis */
MIAP[1]\011/* MoveIndirectAbsPt */
ALIGNRP[ ]\011/* AlignRelativePt */
MIAP[1]\011/* MoveIndirectAbsPt */
ALIGNRP[ ]\011/* AlignRelativePt */
SRP2[ ]\011/* SetRefPoint2 */
IP[ ]\011/* InterpolatePts */
MDAP[1]\011/* MoveDirectAbsPt */
ALIGNRP[ ]\011/* AlignRelativePt */
MIRP[11101]\011/* MoveIndirectRelPt */
ALIGNRP[ ]\011/* AlignRelativePt */
SRP1[ ]\011/* SetRefPoint1 */
SRP2[ ]\011/* SetRefPoint2 */
IP[ ]\011/* InterpolatePts */
IP[ ]\011/* InterpolatePts */
SRP1[ ]\011/* SetRefPoint1 */
SRP2[ ]\011/* SetRefPoint2 */
IP[ ]\011/* InterpolatePts */
IP[ ]\011/* InterpolatePts */
SPVTCA[1]\011/* SetPVectorToAxis */
SFVTCA[1]\011/* SetFVectorToAxis */
SRP0[ ]\011/* SetRefPoint0 */
ALIGNRP[ ]\011/* AlignRelativePt */
ALIGNRP[ ]\011/* AlignRelativePt */
SRP0[ ]\011/* SetRefPoint0 */
ALIGNRP[ ]\011/* AlignRelativePt */
ALIGNRP[ ]\011/* AlignRelativePt */
IUP[1]\011/* InterpolateUntPts */
IUP[0]\011/* InterpolateUntPts */";
};
width = 1399;
}
);
note = H;
unicode = 0048;
},
{
glyphname = I;
lastChange = "2018-11-24 07:25:13 +0000";
layers = (
{
layerId = "F6FCABFB-DB8B-4A8A-BD05-D26D4B0CC58D";
paths = (
{
closed = 1;
nodes = (
"158 0 LINE",
"305 0 LINE",
"305 1471 LINE",
"158 1471 LINE"
);
}
);
userData = {
assembly = "NPUSHB[ ]\011/* 21 values pushed */
2 1 0 2 3 8 1 0 3 5 71 71 74 2 101 3 73 4 102 174 24 
CALL[ ]\011/* CallFunction */
FLIPOFF[ ]\011/* SetAutoFlipOff */
SRP0[ ]\011/* SetRefPoint0 */
MIRP[10100]\011/* MoveIndirectRelPt */
FLIPON[ ]\011/* SetAutoFlipOn */
MIRP[11101]\011/* MoveIndirectRelPt */
FLIPOFF[ ]\011/* SetAutoFlipOff */
RCVT[ ]\011/* ReadCVT */
NEG[ ]\011/* Negate */
WCVTP[ ]\011/* WriteCVTInPixels */
MIRP[00110]\011/* MoveIndirectRelPt */
SRP2[ ]\011/* SetRefPoint2 */
IP[ ]\011/* InterpolatePts */
IP[ ]\011/* InterpolatePts */
SVTCA[0]\011/* SetFreedomAndProjectionVectorToAxis */
MIAP[1]\011/* MoveIndirectAbsPt */
MIAP[1]\011/* MoveIndirectAbsPt */
IP[ ]\011/* InterpolatePts */
IP[ ]\011/* InterpolatePts */
IUP[1]\011/* InterpolateUntPts */
IUP[0]\011/* InterpolateUntPts */";
};
width = 463;
}
);
note = I;
unicode = 0049;
},
{
glyphname = J;
lastChange = "2018-11-24 07:25:13 +0000";
layers = (
{
layerId = "F6FCABFB-DB8B-4A8A-BD05-D26D4B0CC58D";
paths = (
{
closed = 1;
nodes = (
"660 483 LINE SMOOTH",
"660 362.333 OFFCURVE",
"653.167 281 OFFCURVE",
"639.5 239 CURVE SMOOTH",
"625.833 197 OFFCURVE",
"601.833 163.333 OFFCURVE",
"567.5 138 CURVE",
"612.167 155 OFFCURVE",
"537 100 OFFCURVE",
"453 100 CURVE SMOOTH",
"421 100 OFFCURVE",
"388.333 107.333 OFFCURVE",
"355 122 CURVE SMOOTH",
"304.333 144 OFFCURVE",
"240.667 182 OFFCURVE",
"164 236 CURVE",
"86 119 LINE",
"226 3 OFFCURVE",
"334.333 -37 OFFCURVE",
"453 -37 CURVE SMOOTH",
"610.333 -37 OFFCURVE",
"725.167 40.167 OFFCURVE",
"772.5 159.5 CURVE SMOOTH",
"796.167 219.167 OFFCURVE",
"808 325.333 OFFCURVE",
"808 478 CURVE SMOOTH",
"808 1471 LINE",
"660 1471 LINE"
);
}
);
userData = {
assembly = "PUSHW[ ]\011/* 2 values pushed */
11 -64 
NPUSHB[ ]\011/* 9 values pushed */
18 21 57 9 8 1 28 8 9 
PUSHW[ ]\011/* 3 values pushed */
540 10 539 
NPUSHB[ ]\011/* 21 values pushed */
14 122 6 9 0 2 10 9 1 0 18 101 2 74 20 9 73 19 180 174 24 
CALL[ ]\011/* CallFunction */
FLIPOFF[ ]\011/* SetAutoFlipOff */
SRP0[ ]\011/* SetRefPoint0 */
MIRP[00100]\011/* MoveIndirectRelPt */
SRP0[ ]\011/* SetRefPoint0 */
MIRP[10110]\011/* MoveIndirectRelPt */
FLIPON[ ]\011/* SetAutoFlipOn */
MIRP[11101]\011/* MoveIndirectRelPt */
IP[ ]\011/* InterpolatePts */
IP[ ]\011/* InterpolatePts */
SRP1[ ]\011/* SetRefPoint1 */
SHP[1]\011/* ShiftPointByLastPoint */
SVTCA[0]\011/* SetFreedomAndProjectionVectorToAxis */
MIAP[1]\011/* MoveIndirectAbsPt */
MIAP[1]\011/* MoveIndirectAbsPt */
MIRP[11101]\011/* MoveIndirectRelPt */
MIRP[10100]\011/* MoveIndirectRelPt */
MIRP[01101]\011/* MoveIndirectRelPt */
IUP[1]\011/* InterpolateUntPts */
IUP[0]\011/* InterpolateUntPts */
RS[ ]\011/* ReadStore */
JROF[ ]\011/* JumpRelativeOnFalse */
NPUSHB[ ]\011/* 18 values pushed */
15 17 3 5 4 38 16 37 15 5 18 117 1 17 3 14 117 0 
CALL[ ]\011/* CallFunction */
SVTCA[1]\011/* SetFreedomAndProjectionVectorToAxis */
CALL[ ]\011/* CallFunction */
CALL[ ]\011/* CallFunction */
CALL[ ]\011/* CallFunction */
FLIPRGON[ ]\011/* FlipRangeOn */
FLIPRGON[ ]\011/* FlipRangeOn */
SVTCA[0]\011/* SetFreedomAndProjectionVectorToAxis */
DELTAP1[ ]\011/* DeltaExceptionP1 */
SVTCA[1]\011/* SetFreedomAndProjectionVectorToAxis */
CALL[ ]\011/* CallFunction */";
};
width = 987;
}
);
note = J;
unicode = 004A;
},
{
glyphname = K;
lastChange = "2018-11-24 07:25:13 +0000";
layers = (
{
layerId = "F6FCABFB-DB8B-4A8A-BD05-D26D4B0CC58D";
paths = (
{
closed = 1;
nodes = (
"179 0 LINE",
"329 0 LINE",
"329 686 LINE",
"975 0 LINE",
"1170 0 LINE",
"408 811 LINE",
"1115 1471 LINE",
"916 1471 LINE",
"329 919 LINE",
"329 1471 LINE",
"179 1471 LINE"
);
}
);
userData = {
assembly = "NPUSHB[ ]\011/* 62 values pushed */
92 6 1 8 8 7 2 1 2 3 3 2 2 86 5 4 20 5 5 4 7 8 8 86 5 6 20 5 5 6 2 8 5 7 9 6 10 3 1 4 0 128 5 1 5 5 10 4 0 2 6 10 8 5 0 1 2 8 4 9 10 3 
PUSHW[ ]\011/* 1 value pushed */
541 
PUSHB[ ]\011/* 3 values pushed */
4 190 7 
PUSHW[ ]\011/* 1 value pushed */
541 
NPUSHB[ ]\011/* 17 values pushed */
6 74 12 15 12 1 9 15 12 1 8 9 101 10 73 11 102 
PUSHW[ ]\011/* 2 values pushed */
277 24 
CALL[ ]\011/* CallFunction */
FLIPOFF[ ]\011/* SetAutoFlipOff */
SRP0[ ]\011/* SetRefPoint0 */
MIRP[10100]\011/* MoveIndirectRelPt */
FLIPON[ ]\011/* SetAutoFlipOn */
MIRP[01101]\011/* MoveIndirectRelPt */
SDB[ ]\011/* SetDeltaBaseInGState */
DELTAP1[ ]\011/* DeltaExceptionP1 */
SDB[ ]\011/* SetDeltaBaseInGState */
DELTAP1[ ]\011/* DeltaExceptionP1 */
RTHG[ ]\011/* RoundToHalfGrid */
FLIPOFF[ ]\011/* SetAutoFlipOff */
SRP0[ ]\011/* SetRefPoint0 */
MIRP[10110]\011/* MoveIndirectRelPt */
RTG[ ]\011/* RoundToGrid */
FLIPON[ ]\011/* SetAutoFlipOn */
MIRP[01101]\011/* MoveIndirectRelPt */
MIRP[10100]\011/* MoveIndirectRelPt */
MIRP[01101]\011/* MoveIndirectRelPt */
SRP1[ ]\011/* SetRefPoint1 */
SRP2[ ]\011/* SetRefPoint2 */
SLOOP[ ]\011/* SetLoopVariable */
IP[ ]\011/* InterpolatePts */
SHP[0]\011/* ShiftPointByLastPoint */
SVTCA[0]\011/* SetFreedomAndProjectionVectorToAxis */
MIAP[1]\011/* MoveIndirectAbsPt */
ALIGNRP[ ]\011/* AlignRelativePt */
MIAP[1]\011/* MoveIndirectAbsPt */
ALIGNRP[ ]\011/* AlignRelativePt */
SRP2[ ]\011/* SetRefPoint2 */
IP[ ]\011/* InterpolatePts */
MDAP[1]\011/* MoveDirectAbsPt */
DELTAP1[ ]\011/* DeltaExceptionP1 */
SRP1[ ]\011/* SetRefPoint1 */
SRP2[ ]\011/* SetRefPoint2 */
IP[ ]\011/* InterpolatePts */
IP[ ]\011/* InterpolatePts */
SRP1[ ]\011/* SetRefPoint1 */
SRP2[ ]\011/* SetRefPoint2 */
IP[ ]\011/* InterpolatePts */
IP[ ]\011/* InterpolatePts */
SRP1[ ]\011/* SetRefPoint1 */
SHP[1]\011/* ShiftPointByLastPoint */
SHP[1]\011/* ShiftPointByLastPoint */
SDPVTL[1]\011/* SetDualPVectorToLine */
MDAP[0]\011/* MoveDirectAbsPt */
CALL[ ]\011/* CallFunction */
SFVTCA[1]\011/* SetFVectorToAxis */
RDTG[ ]\011/* RoundDownToGrid */
SRP0[ ]\011/* SetRefPoint0 */
MDRP[00100]\011/* MoveDirectRelPt */
SDPVTL[1]\011/* SetDualPVectorToLine */
SFVTCA[0]\011/* SetFVectorToAxis */
MDAP[0]\011/* MoveDirectAbsPt */
RTG[ ]\011/* RoundToGrid */
CALL[ ]\011/* CallFunction */
SFVTCA[1]\011/* SetFVectorToAxis */
RDTG[ ]\011/* RoundDownToGrid */
SRP0[ ]\011/* SetRefPoint0 */
MDRP[00100]\011/* MoveDirectRelPt */
SPVTCA[1]\011/* SetPVectorToAxis */
SFVTL[0]\011/* SetFVectorToLine */
SRP0[ ]\011/* SetRefPoint0 */
ALIGNRP[ ]\011/* AlignRelativePt */
SFVTL[0]\011/* SetFVectorToLine */
ALIGNRP[ ]\011/* AlignRelativePt */
IUP[1]\011/* InterpolateUntPts */
IUP[0]\011/* InterpolateUntPts */
SVTCA[1]\011/* SetFreedomAndProjectionVectorToAxis */
DELTAP2[ ]\011/* DeltaExceptionP2 */";
};
width = 1210;
}
);
note = K;
unicode = 004B;
},
{
glyphname = L;
lastChange = "2018-11-24 07:25:13 +0000";
layers = (
{
layerId = "F6FCABFB-DB8B-4A8A-BD05-D26D4B0CC58D";
paths = (
{
closed = 1;
nodes = (
"179 0 LINE",
"892 0 LINE",
"892 142 LINE",
"327 142 LINE",
"327 1471 LINE",
"179 1471 LINE"
);
}
);
userData = {
assembly = "NPUSHB[ ]\011/* 23 values pushed */
4 3 2 94 5 8 0 2 1 0 2 5 4 74 7 2 101 5 73 6 102 237 24 
CALL[ ]\011/* CallFunction */
FLIPOFF[ ]\011/* SetAutoFlipOff */
SRP0[ ]\011/* SetRefPoint0 */
MIRP[10100]\011/* MoveIndirectRelPt */
FLIPON[ ]\011/* SetAutoFlipOn */
MIRP[01101]\011/* MoveIndirectRelPt */
FLIPOFF[ ]\011/* SetAutoFlipOff */
SRP0[ ]\011/* SetRefPoint0 */
MIRP[00110]\011/* MoveIndirectRelPt */
SRP1[ ]\011/* SetRefPoint1 */
SRP2[ ]\011/* SetRefPoint2 */
IP[ ]\011/* InterpolatePts */
IP[ ]\011/* InterpolatePts */
SVTCA[0]\011/* SetFreedomAndProjectionVectorToAxis */
MIAP[1]\011/* MoveIndirectAbsPt */
MIAP[1]\011/* MoveIndirectAbsPt */
FLIPON[ ]\011/* SetAutoFlipOn */
MIRP[11101]\011/* MoveIndirectRelPt */
IP[ ]\011/* InterpolatePts */
IP[ ]\011/* InterpolatePts */
IUP[1]\011/* InterpolateUntPts */
IUP[0]\011/* InterpolateUntPts */";
};
width = 946;
}
);
note = L;
unicode = 004C;
},
{
glyphname = M;
lastChange = "2018-11-24 07:25:13 +0000";
layers = (
{
layerId = "F6FCABFB-DB8B-4A8A-BD05-D26D4B0CC58D";
paths = (
{
closed = 1;
nodes = (
"254 0 LINE",
"397 1060 LINE",
"924 0 LINE",
"961 0 LINE",
"1481 1052 LINE",
"1625 0 LINE",
"1770 0 LINE",
"1559 1471 LINE",
"1535 1471 LINE",
"943 264 LINE",
"345 1471 LINE",
"321 1471 LINE",
"112 0 LINE"
);
}
);
userData = {
assembly = "NPUSHB[ ]\011/* 115 values pushed */
48 8 48 11 2 15 3 103 8 2 24 1 23 5 2 201 8 198 11 2 9 10 196 5 2 203 1 202 2 198 4 3 186 1 185 2 181 5 3 170 1 169 2 165 5 3 155 2 151 4 148 5 3 133 5 136 8 155 1 3 121 2 117 5 138 1 3 105 2 102 5 122 1 3 89 2 86 5 105 1 3 54 5 55 11 90 1 3 40 1 57 1 57 2 3 3 24 1 1 4 9 8 1 1 8 168 11 1 2 32 168 8 4 5 32 
PUSHW[ ]\011/* 1 value pushed */
-103 
NPUSHB[ ]\011/* 62 values pushed */
3 10 9 32 7 6 5 5 86 8 7 20 8 8 7 4 8 9 9 86 3 4 20 3 3 4 10 3 2 2 86 11 10 20 11 11 10 1 11 12 12 86 0 1 20 0 0 1 4 2 5 1 12 10 9 7 4 6 0 8 240 11 
PUSHW[ ]\011/* 1 value pushed */
545 
PUSHB[ ]\011/* 5 values pushed */
0 5 1 2 3 
PUSHW[ ]\011/* 1 value pushed */
544 
NPUSHB[ ]\011/* 17 values pushed */
6 0 8 9 10 3 4 5 6 2 1 0 14 71 71 74 6 
NPUSHW[ ]\011/* 11 values pushed */
296 7 542 8 543 3 543 11 542 12 296 
PUSHB[ ]\011/* 6 values pushed */
0 73 13 120 131 24 
CALL[ ]\011/* CallFunction */
FLIPOFF[ ]\011/* SetAutoFlipOff */
SRP0[ ]\011/* SetRefPoint0 */
MIRP[10100]\011/* MoveIndirectRelPt */
FLIPON[ ]\011/* SetAutoFlipOn */
MIRP[11101]\011/* MoveIndirectRelPt */
RTHG[ ]\011/* RoundToHalfGrid */
MIRP[10100]\011/* MoveIndirectRelPt */
RTG[ ]\011/* RoundToGrid */
MIRP[11101]\011/* MoveIndirectRelPt */
MIRP[11101]\011/* MoveIndirectRelPt */
RTHG[ ]\011/* RoundToHalfGrid */
MIRP[10100]\011/* MoveIndirectRelPt */
RTG[ ]\011/* RoundToGrid */
MIRP[11101]\011/* MoveIndirectRelPt */
FLIPOFF[ ]\011/* SetAutoFlipOff */
RCVT[ ]\011/* ReadCVT */
NEG[ ]\011/* Negate */
WCVTP[ ]\011/* WriteCVTInPixels */
MIRP[00110]\011/* MoveIndirectRelPt */
SRP1[ ]\011/* SetRefPoint1 */
SHP[1]\011/* ShiftPointByLastPoint */
SHP[1]\011/* ShiftPointByLastPoint */
SRP1[ ]\011/* SetRefPoint1 */
SHP[1]\011/* ShiftPointByLastPoint */
SHP[1]\011/* ShiftPointByLastPoint */
SRP1[ ]\011/* SetRefPoint1 */
SHP[1]\011/* ShiftPointByLastPoint */
SHP[1]\011/* ShiftPointByLastPoint */
SVTCA[0]\011/* SetFreedomAndProjectionVectorToAxis */
MIAP[1]\011/* MoveIndirectAbsPt */
ALIGNRP[ ]\011/* AlignRelativePt */
FLIPON[ ]\011/* SetAutoFlipOn */
MIRP[01101]\011/* MoveIndirectRelPt */
MIAP[1]\011/* MoveIndirectAbsPt */
ALIGNRP[ ]\011/* AlignRelativePt */
SRP0[ ]\011/* SetRefPoint0 */
MIRP[10100]\011/* MoveIndirectRelPt */
MIRP[00100]\011/* MoveIndirectRelPt */
SRP1[ ]\011/* SetRefPoint1 */
SRP2[ ]\011/* SetRefPoint2 */
SLOOP[ ]\011/* SetLoopVariable */
IP[ ]\011/* InterpolatePts */
SRP1[ ]\011/* SetRefPoint1 */
SRP2[ ]\011/* SetRefPoint2 */
IP[ ]\011/* InterpolatePts */
IP[ ]\011/* InterpolatePts */
SDPVTL[1]\011/* SetDualPVectorToLine */
SFVTCA[1]\011/* SetFVectorToAxis */
MDAP[0]\011/* MoveDirectAbsPt */
CALL[ ]\011/* CallFunction */
SDPVTL[1]\011/* SetDualPVectorToLine */
RDTG[ ]\011/* RoundDownToGrid */
MDRP[00100]\011/* MoveDirectRelPt */
SDPVTL[1]\011/* SetDualPVectorToLine */
MDAP[0]\011/* MoveDirectAbsPt */
RTG[ ]\011/* RoundToGrid */
CALL[ ]\011/* CallFunction */
SDPVTL[1]\011/* SetDualPVectorToLine */
RDTG[ ]\011/* RoundDownToGrid */
MDRP[00100]\011/* MoveDirectRelPt */
SDPVTL[1]\011/* SetDualPVectorToLine */
MDAP[0]\011/* MoveDirectAbsPt */
RTG[ ]\011/* RoundToGrid */
CALL[ ]\011/* CallFunction */
SDPVTL[1]\011/* SetDualPVectorToLine */
RDTG[ ]\011/* RoundDownToGrid */
MDRP[00100]\011/* MoveDirectRelPt */
SDPVTL[1]\011/* SetDualPVectorToLine */
MDAP[0]\011/* MoveDirectAbsPt */
RTG[ ]\011/* RoundToGrid */
CALL[ ]\011/* CallFunction */
SDPVTL[1]\011/* SetDualPVectorToLine */
RDTG[ ]\011/* RoundDownToGrid */
MDRP[00100]\011/* MoveDirectRelPt */
CALL[ ]\011/* CallFunction */
CALL[ ]\011/* CallFunction */
CALL[ ]\011/* CallFunction */
IUP[1]\011/* InterpolateUntPts */
IUP[0]\011/* InterpolateUntPts */
SVTCA[1]\011/* SetFreedomAndProjectionVectorToAxis */
SDB[ ]\011/* SetDeltaBaseInGState */
DELTAP1[ ]\011/* DeltaExceptionP1 */
SDB[ ]\011/* SetDeltaBaseInGState */
SDS[ ]\011/* SetDeltaShiftInGState */
DELTAP1[ ]\011/* DeltaExceptionP1 */
SDS[ ]\011/* SetDeltaShiftInGState */
DELTAP1[ ]\011/* DeltaExceptionP1 */
DELTAP1[ ]\011/* DeltaExceptionP1 */
DELTAP1[ ]\011/* DeltaExceptionP1 */
DELTAP1[ ]\011/* DeltaExceptionP1 */
DELTAP1[ ]\011/* DeltaExceptionP1 */
DELTAP1[ ]\011/* DeltaExceptionP1 */
DELTAP1[ ]\011/* DeltaExceptionP1 */
DELTAP1[ ]\011/* DeltaExceptionP1 */
DELTAP1[ ]\011/* DeltaExceptionP1 */
DELTAP1[ ]\011/* DeltaExceptionP1 */
DELTAP1[ ]\011/* DeltaExceptionP1 */
DELTAP2[ ]\011/* DeltaExceptionP2 */
DELTAP1[ ]\011/* DeltaExceptionP1 */
SVTCA[0]\011/* SetFreedomAndProjectionVectorToAxis */
DELTAP1[ ]\011/* DeltaExceptionP1 */
DELTAP2[ ]\011/* DeltaExceptionP2 */";
};
width = 1882;
}
);
note = M;
unicode = 004D;
},
{
glyphname = N;
lastChange = "2018-11-24 07:25:13 +0000";
layers = (
{
layerId = "F6FCABFB-DB8B-4A8A-BD05-D26D4B0CC58D";
paths = (
{
closed = 1;
nodes = (
"332 0 LINE",
"332 1112 LINE",
"1302 0 LINE",
"1335 0 LINE",
"1335 1471 LINE",
"1190 1471 LINE",
"1190 345 LINE",
"212 1471 LINE",
"180 1471 LINE",
"180 0 LINE"
);
}
);
userData = {
assembly = "NPUSHB[ ]\011/* 75 values pushed */
55 8 72 3 71 8 3 40 3 39 8 56 3 3 0 3 15 8 2 9 0 3 15 8 2 8 3 7 8 8 86 2 3 20 2 2 3 4 2 5 1 7 9 0 5 1 2 6 0 8 7 4 5 3 6 3 1 2 8 3 9 0 3 101 6 74 11 9 101 0 73 10 102 174 24 
CALL[ ]\011/* CallFunction */
FLIPOFF[ ]\011/* SetAutoFlipOff */
SRP0[ ]\011/* SetRefPoint0 */
MIRP[10100]\011/* MoveIndirectRelPt */
FLIPON[ ]\011/* SetAutoFlipOn */
MIRP[01101]\011/* MoveIndirectRelPt */
FLIPOFF[ ]\011/* SetAutoFlipOff */
SRP0[ ]\011/* SetRefPoint0 */
MIRP[10110]\011/* MoveIndirectRelPt */
FLIPON[ ]\011/* SetAutoFlipOn */
MIRP[01101]\011/* MoveIndirectRelPt */
SRP1[ ]\011/* SetRefPoint1 */
SRP2[ ]\011/* SetRefPoint2 */
SLOOP[ ]\011/* SetLoopVariable */
IP[ ]\011/* InterpolatePts */
SRP1[ ]\011/* SetRefPoint1 */
SRP2[ ]\011/* SetRefPoint2 */
SLOOP[ ]\011/* SetLoopVariable */
IP[ ]\011/* InterpolatePts */
SVTCA[0]\011/* SetFreedomAndProjectionVectorToAxis */
MIAP[1]\011/* MoveIndirectAbsPt */
ALIGNRP[ ]\011/* AlignRelativePt */
MIAP[1]\011/* MoveIndirectAbsPt */
ALIGNRP[ ]\011/* AlignRelativePt */
SRP1[ ]\011/* SetRefPoint1 */
IP[ ]\011/* InterpolatePts */
IP[ ]\011/* InterpolatePts */
SRP1[ ]\011/* SetRefPoint1 */
SRP2[ ]\011/* SetRefPoint2 */
IP[ ]\011/* InterpolatePts */
IP[ ]\011/* InterpolatePts */
SDPVTL[1]\011/* SetDualPVectorToLine */
MDAP[0]\011/* MoveDirectAbsPt */
CALL[ ]\011/* CallFunction */
SDPVTL[1]\011/* SetDualPVectorToLine */
RDTG[ ]\011/* RoundDownToGrid */
MDRP[00100]\011/* MoveDirectRelPt */
IUP[1]\011/* InterpolateUntPts */
IUP[0]\011/* InterpolateUntPts */
SVTCA[0]\011/* SetFreedomAndProjectionVectorToAxis */
SDB[ ]\011/* SetDeltaBaseInGState */
DELTAP1[ ]\011/* DeltaExceptionP1 */
SDB[ ]\011/* SetDeltaBaseInGState */
DELTAP1[ ]\011/* DeltaExceptionP1 */
DELTAP2[ ]\011/* DeltaExceptionP2 */
DELTAP2[ ]\011/* DeltaExceptionP2 */";
};
width = 1515;
}
);
note = N;
unicode = 004E;
},
{
glyphname = O;
lastChange = "2018-11-24 07:25:13 +0000";
layers = (
{
layerId = "F6FCABFB-DB8B-4A8A-BD05-D26D4B0CC58D";
paths = (
{
closed = 1;
nodes = (
"605.333 1508 OFFCURVE",
"354.167 1363.333 OFFCURVE",
"217.5 1122 CURVE SMOOTH",
"149.167 1001.333 OFFCURVE",
"115 870.333 OFFCURVE",
"115 729 CURVE SMOOTH",
"115 305 OFFCURVE",
"456 -37 OFFCURVE",
"892 -37 CURVE SMOOTH",
"1322.667 -37 OFFCURVE",
"1664 305.333 OFFCURVE",
"1664 736 CURVE SMOOTH",
"1664 1170.667 OFFCURVE",
"1325.333 1508 OFFCURVE",
"880 1508 CURVE SMOOTH"
);
},
{
closed = 1;
nodes = (
"1108.333 1364 OFFCURVE",
"1321.833 1241.167 OFFCURVE",
"1430.5 1052.5 CURVE SMOOTH",
"1484.833 958.167 OFFCURVE",
"1512 852.667 OFFCURVE",
"1512 736 CURVE SMOOTH",
"1512 501.333 OFFCURVE",
"1397.5 299.667 OFFCURVE",
"1203.5 189 CURVE SMOOTH",
"1106.5 133.667 OFFCURVE",
"1001 106 OFFCURVE",
"887 106 CURVE SMOOTH",
"545.667 106 OFFCURVE",
"268 379.667 OFFCURVE",
"268 729 CURVE SMOOTH",
"268 965 OFFCURVE",
"383.333 1165.667 OFFCURVE",
"578 1279 CURVE SMOOTH",
"675.333 1335.667 OFFCURVE",
"778.333 1364 OFFCURVE",
"887 1364 CURVE SMOOTH"
);
}
);
userData = {
assembly = "NPUSHB[ ]\011/* 23 values pushed */
67 8 20 122 6 9 13 122 0 3 24 112 3 74 29 17 112 9 73 28 120 131 24 
CALL[ ]\011/* CallFunction */
FLIPOFF[ ]\011/* SetAutoFlipOff */
SRP0[ ]\011/* SetRefPoint0 */
MIRP[10100]\011/* MoveIndirectRelPt */
FLIPON[ ]\011/* SetAutoFlipOn */
MIRP[01101]\011/* MoveIndirectRelPt */
FLIPOFF[ ]\011/* SetAutoFlipOff */
SRP0[ ]\011/* SetRefPoint0 */
MIRP[10110]\011/* MoveIndirectRelPt */
FLIPON[ ]\011/* SetAutoFlipOn */
MIRP[01101]\011/* MoveIndirectRelPt */
SVTCA[0]\011/* SetFreedomAndProjectionVectorToAxis */
MIAP[1]\011/* MoveIndirectAbsPt */
MIRP[01101]\011/* MoveIndirectRelPt */
MIAP[1]\011/* MoveIndirectAbsPt */
MIRP[01101]\011/* MoveIndirectRelPt */
IUP[1]\011/* InterpolateUntPts */
IUP[0]\011/* InterpolateUntPts */
RS[ ]\011/* ReadStore */
JROF[ ]\011/* JumpRelativeOnFalse */
NPUSHB[ ]\011/* 50 values pushed */
1 27 22 37 26 38 15 37 11 38 21 5 24 100 1 19 7 17 100 0 27 1 24 100 1 14 12 17 100 0 23 4 20 100 0 18 8 20 100 0 25 2 13 100 1 16 10 13 100 1 
CALL[ ]\011/* CallFunction */
CALL[ ]\011/* CallFunction */
CALL[ ]\011/* CallFunction */
CALL[ ]\011/* CallFunction */
SVTCA[1]\011/* SetFreedomAndProjectionVectorToAxis */
CALL[ ]\011/* CallFunction */
CALL[ ]\011/* CallFunction */
CALL[ ]\011/* CallFunction */
CALL[ ]\011/* CallFunction */
CALL[ ]\011/* CallFunction */
CALL[ ]\011/* CallFunction */
CALL[ ]\011/* CallFunction */
CALL[ ]\011/* CallFunction */
FLIPRGON[ ]\011/* FlipRangeOn */";
};
width = 1780;
}
);
note = O;
unicode = 004F;
},
{
glyphname = P;
lastChange = "2018-11-24 07:25:13 +0000";
layers = (
{
layerId = "F6FCABFB-DB8B-4A8A-BD05-D26D4B0CC58D";
paths = (
{
closed = 1;
nodes = (
"178 0 LINE",
"325 0 LINE",
"325 684 LINE",
"430 684 LINE SMOOTH",
"612.667 684 OFFCURVE",
"737.333 692 OFFCURVE",
"804 708 CURVE SMOOTH",
"986.667 752 OFFCURVE",
"1097 883 OFFCURVE",
"1097 1079 CURVE SMOOTH",
"1097 1273.667 OFFCURVE",
"979 1407.667 OFFCURVE",
"811 1449 CURVE SMOOTH",
"752.333 1463.667 OFFCURVE",
"639 1471 OFFCURVE",
"471 1471 CURVE SMOOTH",
"178 1471 LINE"
);
},
{
closed = 1;
nodes = (
"585 1328 LINE SMOOTH",
"783.667 1328 OFFCURVE",
"851.667 1296.5 OFFCURVE",
"905 1214.5 CURVE SMOOTH",
"931.667 1173.5 OFFCURVE",
"945 1128.333 OFFCURVE",
"945 1079 CURVE SMOOTH",
"945 977.667 OFFCURVE",
"888.333 889.167 OFFCURVE",
"795 852.5 CURVE SMOOTH",
"748.333 834.167 OFFCURVE",
"674.667 825 OFFCURVE",
"574 825 CURVE SMOOTH",
"325 828 LINE",
"325 1328 LINE"
);
}
);
userData = {
assembly = "NPUSHB[ ]\011/* 44 values pushed */
52 8 16 12 13 11 17 12 16 25 1 15 0 12 94 16 16 14 15 94 0 2 14 8 0 15 16 12 4 13 14 21 112 6 74 27 13 101 14 73 26 102 131 24 
CALL[ ]\011/* CallFunction */
FLIPOFF[ ]\011/* SetAutoFlipOff */
SRP0[ ]\011/* SetRefPoint0 */
MIRP[10100]\011/* MoveIndirectRelPt */
FLIPON[ ]\011/* SetAutoFlipOn */
MIRP[01101]\011/* MoveIndirectRelPt */
FLIPOFF[ ]\011/* SetAutoFlipOff */
SRP0[ ]\011/* SetRefPoint0 */
MIRP[10110]\011/* MoveIndirectRelPt */
FLIPON[ ]\011/* SetAutoFlipOn */
MIRP[01101]\011/* MoveIndirectRelPt */
SRP1[ ]\011/* SetRefPoint1 */
SRP2[ ]\011/* SetRefPoint2 */
SLOOP[ ]\011/* SetLoopVariable */
IP[ ]\011/* InterpolatePts */
SVTCA[0]\011/* SetFreedomAndProjectionVectorToAxis */
MIAP[1]\011/* MoveIndirectAbsPt */
MIAP[1]\011/* MoveIndirectAbsPt */
MIRP[01101]\011/* MoveIndirectRelPt */
SRP2[ ]\011/* SetRefPoint2 */
IP[ ]\011/* InterpolatePts */
MDAP[1]\011/* MoveDirectAbsPt */
MIRP[01101]\011/* MoveIndirectRelPt */
SRP1[ ]\011/* SetRefPoint1 */
SRP2[ ]\011/* SetRefPoint2 */
IP[ ]\011/* InterpolatePts */
IP[ ]\011/* InterpolatePts */
SRP1[ ]\011/* SetRefPoint1 */
SRP2[ ]\011/* SetRefPoint2 */
IP[ ]\011/* InterpolatePts */
IP[ ]\011/* InterpolatePts */
SPVTCA[1]\011/* SetPVectorToAxis */
SFVTCA[1]\011/* SetFVectorToAxis */
SRP0[ ]\011/* SetRefPoint0 */
ALIGNRP[ ]\011/* AlignRelativePt */
ALIGNRP[ ]\011/* AlignRelativePt */
IUP[1]\011/* InterpolateUntPts */
IUP[0]\011/* InterpolateUntPts */
RS[ ]\011/* ReadStore */
JROF[ ]\011/* JumpRelativeOnFalse */
NPUSHB[ ]\011/* 38 values pushed */
2 24 8 7 9 7 2 6 19 37 4 5 3 5 2 6 23 38 18 10 21 117 1 24 2 21 117 1 20 7 17 117 0 22 5 25 117 1 
SVTCA[0]\011/* SetFreedomAndProjectionVectorToAxis */
CALL[ ]\011/* CallFunction */
CALL[ ]\011/* CallFunction */
SVTCA[1]\011/* SetFreedomAndProjectionVectorToAxis */
CALL[ ]\011/* CallFunction */
CALL[ ]\011/* CallFunction */
CALL[ ]\011/* CallFunction */
LOOPCALL[ ]\011/* LoopAndCallFunction */
CALL[ ]\011/* CallFunction */
LOOPCALL[ ]\011/* LoopAndCallFunction */
FLIPRGON[ ]\011/* FlipRangeOn */";
};
width = 1212;
}
);
note = P;
unicode = 0050;
},
{
glyphname = Q;
lastChange = "2018-11-24 07:25:13 +0000";
layers = (
{
layerId = "F6FCABFB-DB8B-4A8A-BD05-D26D4B0CC58D";
paths = (
{
closed = 1;
nodes = (
"1586.333 324 OFFCURVE",
"1666 508.333 OFFCURVE",
"1666 735 CURVE SMOOTH",
"1666 1169.667 OFFCURVE",
"1326 1508 OFFCURVE",
"890 1508 CURVE SMOOTH",
"607.333 1508 OFFCURVE",
"357.333 1364.5 OFFCURVE",
"220 1122.5 CURVE SMOOTH",
"151.333 1001.5 OFFCURVE",
"117 870.333 OFFCURVE",
"117 729 CURVE SMOOTH",
"117 305 OFFCURVE",
"458 -37 OFFCURVE",
"894 -37 CURVE SMOOTH",
"1044.667 -37 OFFCURVE",
"1180 0 OFFCURVE",
"1300 74 CURVE",
"1450 -116 LINE",
"1631 -116 LINE",
"1413 160 LINE"
);
},
{
closed = 1;
nodes = (
"1059 607 LINE",
"880 607 LINE",
"1208 191 LINE",
"1111.333 134.333 OFFCURVE",
"1004.667 106 OFFCURVE",
"888 106 CURVE SMOOTH",
"546.667 106 OFFCURVE",
"270 379.667 OFFCURVE",
"270 729 CURVE SMOOTH",
"270 965 OFFCURVE",
"385.333 1166.833 OFFCURVE",
"580 1279.5 CURVE SMOOTH",
"677.333 1335.833 OFFCURVE",
"781 1364 OFFCURVE",
"891 1364 CURVE SMOOTH",
"1109.667 1364 OFFCURVE",
"1323.833 1241.167 OFFCURVE",
"1432.5 1052.5 CURVE SMOOTH",
"1486.833 958.167 OFFCURVE",
"1514 852.667 OFFCURVE",
"1514 736 CURVE SMOOTH",
"1514 553.333 OFFCURVE",
"1450 399.667 OFFCURVE",
"1322 275 CURVE"
);
}
);
userData = {
assembly = "NPUSHB[ ]\011/* 70 values pushed */
43 19 36 34 36 35 57 18 68 0 5 6 3 8 33 2 25 1 111 32 137 18 150 17 231 0 250 32 6 56 8 0 18 35 35 1 3 33 34 2 34 2 2 86 1 35 20 1 1 35 32 33 18 19 4 31 4 3 0 17 4 5 1 35 2 34 34 24 31 2 
PUSHW[ ]\011/* 1 value pushed */
373 
NPUSHB[ ]\011/* 22 values pushed */
31 122 5 9 24 122 12 3 19 18 33 32 4 20 16 17 0 3 4 5 15 34 
PUSHW[ ]\011/* 1 value pushed */
535 
PUSHB[ ]\011/* 5 values pushed */
35 35 28 20 2 
PUSHW[ ]\011/* 1 value pushed */
541 
NPUSHB[ ]\011/* 15 values pushed */
1 209 20 112 15 74 37 28 112 8 73 36 120 131 24 
CALL[ ]\011/* CallFunction */
FLIPOFF[ ]\011/* SetAutoFlipOff */
SRP0[ ]\011/* SetRefPoint0 */
MIRP[10100]\011/* MoveIndirectRelPt */
FLIPON[ ]\011/* SetAutoFlipOn */
MIRP[01101]\011/* MoveIndirectRelPt */
FLIPOFF[ ]\011/* SetAutoFlipOff */
SRP0[ ]\011/* SetRefPoint0 */
MIRP[10110]\011/* MoveIndirectRelPt */
FLIPON[ ]\011/* SetAutoFlipOn */
MIRP[01101]\011/* MoveIndirectRelPt */
MIRP[10100]\011/* MoveIndirectRelPt */
MIRP[01101]\011/* MoveIndirectRelPt */
SRP1[ ]\011/* SetRefPoint1 */
SRP2[ ]\011/* SetRefPoint2 */
IP[ ]\011/* InterpolatePts */
MDAP[1]\011/* MoveDirectAbsPt */
MIRP[01101]\011/* MoveIndirectRelPt */
SRP1[ ]\011/* SetRefPoint1 */
SLOOP[ ]\011/* SetLoopVariable */
SHP[1]\011/* ShiftPointByLastPoint */
SRP1[ ]\011/* SetRefPoint1 */
SLOOP[ ]\011/* SetLoopVariable */
SHP[1]\011/* ShiftPointByLastPoint */
SVTCA[0]\011/* SetFreedomAndProjectionVectorToAxis */
MIAP[1]\011/* MoveIndirectAbsPt */
MIRP[01101]\011/* MoveIndirectRelPt */
MIAP[1]\011/* MoveIndirectAbsPt */
MIRP[01101]\011/* MoveIndirectRelPt */
MIRP[00100]\011/* MoveIndirectRelPt */
SRP1[ ]\011/* SetRefPoint1 */
SRP2[ ]\011/* SetRefPoint2 */
IP[ ]\011/* InterpolatePts */
MDAP[1]\011/* MoveDirectAbsPt */
SRP2[ ]\011/* SetRefPoint2 */
IP[ ]\011/* InterpolatePts */
IP[ ]\011/* InterpolatePts */
SRP1[ ]\011/* SetRefPoint1 */
SLOOP[ ]\011/* SetLoopVariable */
SHP[1]\011/* ShiftPointByLastPoint */
SRP1[ ]\011/* SetRefPoint1 */
SLOOP[ ]\011/* SetLoopVariable */
SHP[1]\011/* ShiftPointByLastPoint */
SDPVTL[1]\011/* SetDualPVectorToLine */
SFVTCA[1]\011/* SetFVectorToAxis */
MDAP[0]\011/* MoveDirectAbsPt */
CALL[ ]\011/* CallFunction */
RDTG[ ]\011/* RoundDownToGrid */
SRP0[ ]\011/* SetRefPoint0 */
MDRP[00100]\011/* MoveDirectRelPt */
SPVTL[1]\011/* SetPVectorToLine */
SFVTPV[ ]\011/* SetFVectorToPVector */
ALIGNRP[ ]\011/* AlignRelativePt */
ALIGNRP[ ]\011/* AlignRelativePt */
SPVTL[1]\011/* SetPVectorToLine */
SFVTPV[ ]\011/* SetFVectorToPVector */
SRP0[ ]\011/* SetRefPoint0 */
ALIGNRP[ ]\011/* AlignRelativePt */
ALIGNRP[ ]\011/* AlignRelativePt */
IUP[1]\011/* InterpolateUntPts */
IUP[0]\011/* InterpolateUntPts */
RTG[ ]\011/* RoundToGrid */
RS[ ]\011/* ReadStore */
JROF[ ]\011/* JumpRelativeOnFalse */
NPUSHB[ ]\011/* 40 values pushed */
21 30 6 14 22 38 26 37 10 38 30 6 28 100 0 23 13 20 100 1 25 11 28 100 0 29 7 31 100 0 21 14 24 100 1 27 9 24 100 1 
SVTCA[0]\011/* SetFreedomAndProjectionVectorToAxis */
CALL[ ]\011/* CallFunction */
CALL[ ]\011/* CallFunction */
CALL[ ]\011/* CallFunction */
SVTCA[1]\011/* SetFreedomAndProjectionVectorToAxis */
CALL[ ]\011/* CallFunction */
CALL[ ]\011/* CallFunction */
CALL[ ]\011/* CallFunction */
CALL[ ]\011/* CallFunction */
CALL[ ]\011/* CallFunction */
CALL[ ]\011/* CallFunction */
FLIPRGON[ ]\011/* FlipRangeOn */
FLIPRGON[ ]\011/* FlipRangeOn */
SVTCA[1]\011/* SetFreedomAndProjectionVectorToAxis */
DELTAP1[ ]\011/* DeltaExceptionP1 */
DELTAP2[ ]\011/* DeltaExceptionP2 */
DELTAP1[ ]\011/* DeltaExceptionP1 */";
};
width = 1784;
}
);
note = Q;
unicode = 0051;
},
{
glyphname = R;
lastChange = "2018-11-24 07:25:13 +0000";
layers = (
{
layerId = "F6FCABFB-DB8B-4A8A-BD05-D26D4B0CC58D";
paths = (
{
closed = 1;
nodes = (
"187 0 LINE",
"334 0 LINE",
"334 684 LINE",
"418 684 LINE",
"946 0 LINE",
"1128 0 LINE",
"599 684 LINE",
"845.667 685.333 OFFCURVE",
"975.167 747.667 OFFCURVE",
"1050.5 869 CURVE SMOOTH",
"1088.167 929.667 OFFCURVE",
"1107 1000 OFFCURVE",
"1107 1080 CURVE SMOOTH",
"1107 1272 OFFCURVE",
"986.667 1411 OFFCURVE",
"812 1451 CURVE SMOOTH",
"754 1464.333 OFFCURVE",
"643.333 1471 OFFCURVE",
"480 1471 CURVE SMOOTH",
"187 1471 LINE"
);
},
{
closed = 1;
nodes = (
"593 1327 LINE SMOOTH",
"794.333 1327 OFFCURVE",
"860.667 1295.167 OFFCURVE",
"914 1214.5 CURVE SMOOTH",
"940.667 1174.167 OFFCURVE",
"954 1129.333 OFFCURVE",
"954 1080 CURVE SMOOTH",
"954 978.667 OFFCURVE",
"898.5 890.333 OFFCURVE",
"804.5 853 CURVE SMOOTH",
"757.5 834.333 OFFCURVE",
"685 825 OFFCURVE",
"587 825 CURVE SMOOTH",
"334 827 LINE",
"334 1327 LINE"
);
}
);
userData = {
assembly = "NPUSHB[ ]\011/* 77 values pushed */
15 10 15 13 27 10 27 13 43 10 43 13 59 10 59 13 8 48 8 18 14 15 13 14 13 12 13 12 12 86 11 10 20 11 11 10 12 15 11 16 19 10 13 3 14 18 27 1 17 0 14 94 18 18 0 11 16 8 17 94 0 2 10 13 11 0 17 18 14 4 15 16 23 112 6 209 12 
PUSHW[ ]\011/* 1 value pushed */
541 
NPUSHB[ ]\011/* 11 values pushed */
11 74 29 15 101 16 73 28 102 131 24 
CALL[ ]\011/* CallFunction */
FLIPOFF[ ]\011/* SetAutoFlipOff */
SRP0[ ]\011/* SetRefPoint0 */
MIRP[10100]\011/* MoveIndirectRelPt */
FLIPON[ ]\011/* SetAutoFlipOn */
MIRP[01101]\011/* MoveIndirectRelPt */
FLIPOFF[ ]\011/* SetAutoFlipOff */
SRP0[ ]\011/* SetRefPoint0 */
MIRP[10110]\011/* MoveIndirectRelPt */
FLIPON[ ]\011/* SetAutoFlipOn */
MIRP[01101]\011/* MoveIndirectRelPt */
MIRP[10100]\011/* MoveIndirectRelPt */
MIRP[01101]\011/* MoveIndirectRelPt */
SRP1[ ]\011/* SetRefPoint1 */
SRP2[ ]\011/* SetRefPoint2 */
SLOOP[ ]\011/* SetLoopVariable */
IP[ ]\011/* InterpolatePts */
SRP1[ ]\011/* SetRefPoint1 */
IP[ ]\011/* InterpolatePts */
IP[ ]\011/* InterpolatePts */
SVTCA[0]\011/* SetFreedomAndProjectionVectorToAxis */
MIAP[1]\011/* MoveIndirectAbsPt */
MIRP[01101]\011/* MoveIndirectRelPt */
MIAP[1]\011/* MoveIndirectAbsPt */
ALIGNRP[ ]\011/* AlignRelativePt */
SRP2[ ]\011/* SetRefPoint2 */
IP[ ]\011/* InterpolatePts */
MDAP[1]\011/* MoveDirectAbsPt */
MIRP[01101]\011/* MoveIndirectRelPt */
SRP1[ ]\011/* SetRefPoint1 */
SRP2[ ]\011/* SetRefPoint2 */
IP[ ]\011/* InterpolatePts */
IP[ ]\011/* InterpolatePts */
SRP1[ ]\011/* SetRefPoint1 */
SRP2[ ]\011/* SetRefPoint2 */
SLOOP[ ]\011/* SetLoopVariable */
IP[ ]\011/* InterpolatePts */
SRP1[ ]\011/* SetRefPoint1 */
SRP2[ ]\011/* SetRefPoint2 */
IP[ ]\011/* InterpolatePts */
IP[ ]\011/* InterpolatePts */
SDPVTL[1]\011/* SetDualPVectorToLine */
SFVTCA[1]\011/* SetFVectorToAxis */
MDAP[0]\011/* MoveDirectAbsPt */
CALL[ ]\011/* CallFunction */
RDTG[ ]\011/* RoundDownToGrid */
SRP0[ ]\011/* SetRefPoint0 */
MDRP[00100]\011/* MoveDirectRelPt */
SPVTCA[0]\011/* SetPVectorToAxis */
SFVTL[0]\011/* SetFVectorToLine */
SRP0[ ]\011/* SetRefPoint0 */
ALIGNRP[ ]\011/* AlignRelativePt */
SPVTCA[1]\011/* SetPVectorToAxis */
SFVTCA[1]\011/* SetFVectorToAxis */
SRP0[ ]\011/* SetRefPoint0 */
ALIGNRP[ ]\011/* AlignRelativePt */
ALIGNRP[ ]\011/* AlignRelativePt */
IUP[1]\011/* InterpolateUntPts */
IUP[0]\011/* InterpolateUntPts */
RTG[ ]\011/* RoundToGrid */
RS[ ]\011/* ReadStore */
JROF[ ]\011/* JumpRelativeOnFalse */
NPUSHB[ ]\011/* 34 values pushed */
2 26 8 38 21 37 4 5 3 5 2 6 25 38 20 9 23 117 1 26 2 23 117 1 22 7 19 117 0 24 5 27 117 1 
SVTCA[0]\011/* SetFreedomAndProjectionVectorToAxis */
CALL[ ]\011/* CallFunction */
CALL[ ]\011/* CallFunction */
SVTCA[1]\011/* SetFreedomAndProjectionVectorToAxis */
CALL[ ]\011/* CallFunction */
CALL[ ]\011/* CallFunction */
CALL[ ]\011/* CallFunction */
LOOPCALL[ ]\011/* LoopAndCallFunction */
CALL[ ]\011/* CallFunction */
CALL[ ]\011/* CallFunction */
FLIPRGON[ ]\011/* FlipRangeOn */
SVTCA[1]\011/* SetFreedomAndProjectionVectorToAxis */
DELTAP1[ ]\011/* DeltaExceptionP1 */";
};
width = 1243;
}
);
note = R;
unicode = 0052;
},
{
glyphname = S;
lastChange = "2018-11-24 07:25:13 +0000";
layers = (
{
layerId = "F6FCABFB-DB8B-4A8A-BD05-D26D4B0CC58D";
paths = (
{
closed = 1;
nodes = (
"149.667 50 OFFCURVE",
"292.333 -37 OFFCURVE",
"471 -37 CURVE SMOOTH",
"703 -37 OFFCURVE",
"888 145.667 OFFCURVE",
"888 359 CURVE SMOOTH",
"888 507 OFFCURVE",
"809.667 643 OFFCURVE",
"555 831 CURVE SMOOTH",
"447.667 910.333 OFFCURVE",
"384.333 959.333 OFFCURVE",
"365 978 CURVE SMOOTH",
"294.333 1048.667 OFFCURVE",
"272 1105 OFFCURVE",
"272 1169 CURVE SMOOTH",
"272 1274.333 OFFCURVE",
"355.333 1356 OFFCURVE",
"474 1356 CURVE SMOOTH",
"566 1356 OFFCURVE",
"632.333 1322.667 OFFCURVE",
"743 1176 CURVE",
"863 1267 LINE",
"728.333 1451 OFFCURVE",
"615.667 1508 OFFCURVE",
"477 1508 CURVE SMOOTH",
"346.333 1508 OFFCURVE",
"227.333 1443.333 OFFCURVE",
"166 1338 CURVE SMOOTH",
"135.333 1285.333 OFFCURVE",
"120 1227 OFFCURVE",
"120 1163 CURVE SMOOTH",
"120 1082.333 OFFCURVE",
"146 1007.333 OFFCURVE",
"198 938 CURVE SMOOTH",
"228 896.667 OFFCURVE",
"304.333 829.667 OFFCURVE",
"427 737 CURVE SMOOTH",
"549 645 OFFCURVE",
"633 566.333 OFFCURVE",
"679 501 CURVE SMOOTH",
"712.333 453.667 OFFCURVE",
"729 405.333 OFFCURVE",
"729 356 CURVE SMOOTH",
"729 269.333 OFFCURVE",
"682.667 186.5 OFFCURVE",
"596 140.5 CURVE SMOOTH",
"552.667 117.5 OFFCURVE",
"506.333 106 OFFCURVE",
"457 106 CURVE SMOOTH",
"341.667 106 OFFCURVE",
"240 187 OFFCURVE",
"152 349 CURVE",
"27 274 LINE"
);
}
);
userData = {
assembly = "NPUSHB[ ]\011/* 116 values pushed */
0 0 0 1 4 42 169 12 166 35 5 15 21 15 22 15 23 121 10 138 9 141 10 6 10 10 10 12 57 10 90 12 88 13 176 31 176 34 7 68 35 107 41 204 42 3 57 10 57 35 195 35 3 203 23 204 24 197 31 3 187 42 196 1 205 12 3 183 1 186 23 187 24 3 161 2 168 23 169 42 3 69 2 150 2 150 34 3 46 8 122 9 170 13 2 9 13 11 73 11 153 11 2 11 34 102 34 1 32 34 3 22 112 23 1 23 
PUSHW[ ]\011/* 1 value pushed */
546 
NPUSHB[ ]\011/* 11 values pushed */
26 122 19 3 0 175 1 191 1 2 1 
PUSHW[ ]\011/* 1 value pushed */
537 
NPUSHB[ ]\011/* 34 values pushed */
3 122 40 9 23 1 0 22 209 7 112 223 37 239 37 2 37 74 44 47 44 63 44 2 29 112 32 15 48 15 64 15 3 15 
PUSHW[ ]\011/* 1 value pushed */
377 
NPUSHB[ ]\011/* 11 values pushed */
47 0 63 0 2 0 73 43 169 131 24 
CALL[ ]\011/* CallFunction */
FLIPOFF[ ]\011/* SetAutoFlipOff */
SRP0[ ]\011/* SetRefPoint0 */
MIRP[10100]\011/* MoveIndirectRelPt */
DELTAP1[ ]\011/* DeltaExceptionP1 */
FLIPON[ ]\011/* SetAutoFlipOn */
MIRP[10100]\011/* MoveIndirectRelPt */
DELTAP1[ ]\011/* DeltaExceptionP1 */
MIRP[01101]\011/* MoveIndirectRelPt */
DELTAP1[ ]\011/* DeltaExceptionP1 */
FLIPOFF[ ]\011/* SetAutoFlipOff */
SRP0[ ]\011/* SetRefPoint0 */
MIRP[10110]\011/* MoveIndirectRelPt */
DELTAP1[ ]\011/* DeltaExceptionP1 */
FLIPON[ ]\011/* SetAutoFlipOn */
MIRP[01101]\011/* MoveIndirectRelPt */
MIRP[00100]\011/* MoveIndirectRelPt */
SRP1[ ]\011/* SetRefPoint1 */
SHP[1]\011/* ShiftPointByLastPoint */
SHP[0]\011/* ShiftPointByLastPoint */
SVTCA[0]\011/* SetFreedomAndProjectionVectorToAxis */
MIAP[1]\011/* MoveIndirectAbsPt */
MIRP[11101]\011/* MoveIndirectRelPt */
MIRP[10100]\011/* MoveIndirectRelPt */
DELTAP1[ ]\011/* DeltaExceptionP1 */
SHP[0]\011/* ShiftPointByLastPoint */
MIAP[1]\011/* MoveIndirectAbsPt */
MIRP[11101]\011/* MoveIndirectRelPt */
MIRP[10100]\011/* MoveIndirectRelPt */
DELTAP1[ ]\011/* DeltaExceptionP1 */
SHP[0]\011/* ShiftPointByLastPoint */
SRP2[ ]\011/* SetRefPoint2 */
IP[ ]\011/* InterpolatePts */
IP[ ]\011/* InterpolatePts */
DELTAP1[ ]\011/* DeltaExceptionP1 */
SRP1[ ]\011/* SetRefPoint1 */
SHP[1]\011/* ShiftPointByLastPoint */
DELTAP1[ ]\011/* DeltaExceptionP1 */
SRP1[ ]\011/* SetRefPoint1 */
SHP[1]\011/* ShiftPointByLastPoint */
SHP[1]\011/* ShiftPointByLastPoint */
DELTAP1[ ]\011/* DeltaExceptionP1 */
IUP[1]\011/* InterpolateUntPts */
IUP[0]\011/* InterpolateUntPts */
RS[ ]\011/* ReadStore */
JROF[ ]\011/* JumpRelativeOnFalse */
NPUSHB[ ]\011/* 32 values pushed */
38 39 27 28 16 18 4 6 17 38 5 37 27 18 29 117 0 4 39 7 117 1 28 16 26 117 1 6 38 3 117 0 
CALL[ ]\011/* CallFunction */
CALL[ ]\011/* CallFunction */
SVTCA[1]\011/* SetFreedomAndProjectionVectorToAxis */
CALL[ ]\011/* CallFunction */
CALL[ ]\011/* CallFunction */
CALL[ ]\011/* CallFunction */
CALL[ ]\011/* CallFunction */
FLIPRGON[ ]\011/* FlipRangeOn */
FLIPRGON[ ]\011/* FlipRangeOn */
FLIPRGON[ ]\011/* FlipRangeOn */
FLIPRGON[ ]\011/* FlipRangeOn */
SVTCA[1]\011/* SetFreedomAndProjectionVectorToAxis */
DELTAP1[ ]\011/* DeltaExceptionP1 */
DELTAP1[ ]\011/* DeltaExceptionP1 */
DELTAP1[ ]\011/* DeltaExceptionP1 */
DELTAP1[ ]\011/* DeltaExceptionP1 */
DELTAP1[ ]\011/* DeltaExceptionP1 */
DELTAP1[ ]\011/* DeltaExceptionP1 */
DELTAP1[ ]\011/* DeltaExceptionP1 */
SVTCA[0]\011/* SetFreedomAndProjectionVectorToAxis */
DELTAP1[ ]\011/* DeltaExceptionP1 */
DELTAP1[ ]\011/* DeltaExceptionP1 */
DELTAP1[ ]\011/* DeltaExceptionP1 */";
};
width = 1020;
}
);
note = S;
unicode = 0053;
},
{
glyphname = T;
lastChange = "2018-11-24 07:25:13 +0000";
layers = (
{
layerId = "F6FCABFB-DB8B-4A8A-BD05-D26D4B0CC58D";
paths = (
{
closed = 1;
nodes = (
"362 1328 LINE",
"362 0 LINE",
"512 0 LINE",
"512 1328 LINE",
"840 1328 LINE",
"840 1471 LINE",
"33 1471 LINE",
"33 1328 LINE"
);
}
);
userData = {
assembly = "NPUSHB[ ]\011/* 32 values pushed */
4 7 0 3 2 0 94 1 2 6 8 4 7 5 6 2 1 0 9 71 71 74 3 224 5 101 6 224 0 73 8 169 
PUSHW[ ]\011/* 2 values pushed */
277 24 
CALL[ ]\011/* CallFunction */
FLIPOFF[ ]\011/* SetAutoFlipOff */
SRP0[ ]\011/* SetRefPoint0 */
MIRP[10100]\011/* MoveIndirectRelPt */
FLIPON[ ]\011/* SetAutoFlipOn */
MIRP[10100]\011/* MoveIndirectRelPt */
MIRP[11101]\011/* MoveIndirectRelPt */
MIRP[10100]\011/* MoveIndirectRelPt */
FLIPOFF[ ]\011/* SetAutoFlipOff */
RCVT[ ]\011/* ReadCVT */
NEG[ ]\011/* Negate */
WCVTP[ ]\011/* WriteCVTInPixels */
MIRP[00110]\011/* MoveIndirectRelPt */
SRP2[ ]\011/* SetRefPoint2 */
IP[ ]\011/* InterpolatePts */
IP[ ]\011/* InterpolatePts */
SRP1[ ]\011/* SetRefPoint1 */
SRP2[ ]\011/* SetRefPoint2 */
IP[ ]\011/* InterpolatePts */
IP[ ]\011/* InterpolatePts */
SVTCA[0]\011/* SetFreedomAndProjectionVectorToAxis */
MIAP[1]\011/* MoveIndirectAbsPt */
MIAP[1]\011/* MoveIndirectAbsPt */
FLIPON[ ]\011/* SetAutoFlipOn */
MIRP[01101]\011/* MoveIndirectRelPt */
IP[ ]\011/* InterpolatePts */
IP[ ]\011/* InterpolatePts */
SRP0[ ]\011/* SetRefPoint0 */
ALIGNRP[ ]\011/* AlignRelativePt */
ALIGNRP[ ]\011/* AlignRelativePt */
IUP[1]\011/* InterpolateUntPts */
IUP[0]\011/* InterpolateUntPts */";
};
width = 872;
}
);
note = T;
unicode = 0054;
},
{
glyphname = U;
lastChange = "2018-11-24 07:25:13 +0000";
layers = (
{
layerId = "F6FCABFB-DB8B-4A8A-BD05-D26D4B0CC58D";
paths = (
{
closed = 1;
nodes = (
"184 583 LINE SMOOTH",
"184 433.667 OFFCURVE",
"193 330.333 OFFCURVE",
"211 273 CURVE SMOOTH",
"268.333 86.333 OFFCURVE",
"448.667 -37 OFFCURVE",
"686 -37 CURVE SMOOTH",
"904.667 -37 OFFCURVE",
"1068.167 102.5 OFFCURVE",
"1119.5 264.5 CURVE SMOOTH",
"1145.167 345.5 OFFCURVE",
"1158 451.667 OFFCURVE",
"1158 583 CURVE SMOOTH",
"1158 1471 LINE",
"1011 1471 LINE",
"1011 583 LINE SMOOTH",
"1011 467 OFFCURVE",
"1006 390.333 OFFCURVE",
"996 353 CURVE SMOOTH",
"968 249 OFFCURVE",
"907.333 175.333 OFFCURVE",
"818 134 CURVE SMOOTH",
"773.333 113.333 OFFCURVE",
"726.667 103 OFFCURVE",
"678 103 CURVE SMOOTH",
"566 103 OFFCURVE",
"441.333 162.5 OFFCURVE",
"388 240.5 CURVE SMOOTH",
"361.333 279.5 OFFCURVE",
"344.333 328 OFFCURVE",
"337 386 CURVE SMOOTH",
"333 412 OFFCURVE",
"331 477.667 OFFCURVE",
"331 583 CURVE SMOOTH",
"331 1471 LINE",
"184 1471 LINE"
);
}
);
userData = {
assembly = "NPUSHB[ ]\011/* 27 values pushed */
57 8 15 1 16 16 0 2 8 122 21 9 16 15 17 14 1 0 2 26 28 71 71 74 17 101 14 
PUSHW[ ]\011/* 1 value pushed */
614 
PUSHB[ ]\011/* 8 values pushed */
2 101 26 73 27 102 174 24 
CALL[ ]\011/* CallFunction */
FLIPOFF[ ]\011/* SetAutoFlipOff */
SRP0[ ]\011/* SetRefPoint0 */
MIRP[10100]\011/* MoveIndirectRelPt */
FLIPON[ ]\011/* SetAutoFlipOn */
MIRP[11101]\011/* MoveIndirectRelPt */
MIRP[10110]\011/* MoveIndirectRelPt */
MIRP[11101]\011/* MoveIndirectRelPt */
FLIPOFF[ ]\011/* SetAutoFlipOff */
RCVT[ ]\011/* ReadCVT */
NEG[ ]\011/* Negate */
WCVTP[ ]\011/* WriteCVTInPixels */
MIRP[00110]\011/* MoveIndirectRelPt */
SRP1[ ]\011/* SetRefPoint1 */
SRP2[ ]\011/* SetRefPoint2 */
IP[ ]\011/* InterpolatePts */
IP[ ]\011/* InterpolatePts */
SRP1[ ]\011/* SetRefPoint1 */
SRP2[ ]\011/* SetRefPoint2 */
IP[ ]\011/* InterpolatePts */
IP[ ]\011/* InterpolatePts */
SVTCA[0]\011/* SetFreedomAndProjectionVectorToAxis */
MIAP[1]\011/* MoveIndirectAbsPt */
FLIPON[ ]\011/* SetAutoFlipOn */
MIRP[01101]\011/* MoveIndirectRelPt */
MIAP[1]\011/* MoveIndirectAbsPt */
ALIGNRP[ ]\011/* AlignRelativePt */
SRP2[ ]\011/* SetRefPoint2 */
IP[ ]\011/* InterpolatePts */
IP[ ]\011/* InterpolatePts */
IUP[1]\011/* InterpolateUntPts */
IUP[0]\011/* InterpolateUntPts */
RS[ ]\011/* ReadStore */
JROF[ ]\011/* JumpRelativeOnFalse */
NPUSHB[ ]\011/* 42 values pushed */
5 25 19 38 12 13 11 13 10 13 3 6 6 38 24 25 23 25 2 6 9 20 14 117 1 7 22 4 117 0 5 4 13 18 8 117 0 5 25 8 117 0 
CALL[ ]\011/* CallFunction */
CALL[ ]\011/* CallFunction */
SVTCA[1]\011/* SetFreedomAndProjectionVectorToAxis */
SRP0[ ]\011/* SetRefPoint0 */
ALIGNRP[ ]\011/* AlignRelativePt */
CALL[ ]\011/* CallFunction */
CALL[ ]\011/* CallFunction */
LOOPCALL[ ]\011/* LoopAndCallFunction */
CALL[ ]\011/* CallFunction */
LOOPCALL[ ]\011/* LoopAndCallFunction */
CALL[ ]\011/* CallFunction */
FLIPRGON[ ]\011/* FlipRangeOn */";
};
width = 1341;
}
);
note = U;
unicode = 0055;
},
{
glyphname = V;
lastChange = "2018-11-24 07:25:13 +0000";
layers = (
{
layerId = "F6FCABFB-DB8B-4A8A-BD05-D26D4B0CC58D";
paths = (
{
closed = 1;
nodes = (
"698 0 LINE",
"730 0 LINE",
"1370 1471 LINE",
"1210 1471 LINE",
"714 334 LINE",
"227 1471 LINE",
"67 1471 LINE"
);
}
);
userData = {
assembly = "NPUSHB[ ]\011/* 40 values pushed */
103 2 1 5 2 3 2 1 3 86 4 5 20 4 4 5 2 1 2 3 1 86 0 6 20 0 0 6 3 1 4 4 0 2 6 8 112 8 1 8 
PUSHW[ ]\011/* 5 values pushed */
283 3 535 4 337 
PUSHB[ ]\011/* 3 values pushed */
5 189 6 
PUSHW[ ]\011/* 3 values pushed */
337 1 535 
PUSHB[ ]\011/* 4 values pushed */
112 0 1 0 
PUSHW[ ]\011/* 5 values pushed */
283 7 533 547 24 
CALL[ ]\011/* CallFunction */
SRP0[ ]\011/* SetRefPoint0 */
MIRP[10110]\011/* MoveIndirectRelPt */
DELTAP1[ ]\011/* DeltaExceptionP1 */
MIRP[01101]\011/* MoveIndirectRelPt */
MIRP[10100]\011/* MoveIndirectRelPt */
MIRP[11110]\011/* MoveIndirectRelPt */
MIRP[10100]\011/* MoveIndirectRelPt */
MIRP[01101]\011/* MoveIndirectRelPt */
MIRP[00110]\011/* MoveIndirectRelPt */
DELTAP1[ ]\011/* DeltaExceptionP1 */
SVTCA[0]\011/* SetFreedomAndProjectionVectorToAxis */
MIAP[1]\011/* MoveIndirectAbsPt */
MIAP[1]\011/* MoveIndirectAbsPt */
ALIGNRP[ ]\011/* AlignRelativePt */
SRP2[ ]\011/* SetRefPoint2 */
IP[ ]\011/* InterpolatePts */
IP[ ]\011/* InterpolatePts */
SDPVTL[1]\011/* SetDualPVectorToLine */
SFVTCA[1]\011/* SetFVectorToAxis */
MDAP[0]\011/* MoveDirectAbsPt */
CALL[ ]\011/* CallFunction */
SFVTL[0]\011/* SetFVectorToLine */
RDTG[ ]\011/* RoundDownToGrid */
SRP0[ ]\011/* SetRefPoint0 */
MDRP[00100]\011/* MoveDirectRelPt */
SDPVTL[1]\011/* SetDualPVectorToLine */
SFVTCA[1]\011/* SetFVectorToAxis */
MDAP[0]\011/* MoveDirectAbsPt */
RTG[ ]\011/* RoundToGrid */
CALL[ ]\011/* CallFunction */
SFVTL[0]\011/* SetFVectorToLine */
RDTG[ ]\011/* RoundDownToGrid */
SRP0[ ]\011/* SetRefPoint0 */
MDRP[00100]\011/* MoveDirectRelPt */
SVTCA[0]\011/* SetFreedomAndProjectionVectorToAxis */
MDAP[0]\011/* MoveDirectAbsPt */
IUP[1]\011/* InterpolateUntPts */
IUP[0]\011/* InterpolateUntPts */
DELTAP1[ ]\011/* DeltaExceptionP1 */";
};
width = 1438;
}
);
note = V;
unicode = 0056;
},
{
glyphname = W;
lastChange = "2018-11-24 07:25:13 +0000";
layers = (
{
layerId = "F6FCABFB-DB8B-4A8A-BD05-D26D4B0CC58D";
paths = (
{
closed = 1;
nodes = (
"511 0 LINE",
"539 0 LINE",
"984 1113 LINE",
"1420 0 LINE",
"1448 0 LINE",
"1870 1471 LINE",
"1720 1471 LINE",
"1415 411 LINE",
"998 1471 LINE",
"968 1471 LINE",
"546 411 LINE",
"247 1471 LINE",
"96 1471 LINE"
);
}
);
userData = {
assembly = "NPUSHB[ ]\011/* 77 values pushed */
11 3 9 11 9 12 27 3 25 11 25 12 56 6 56 7 55 8 56 12 70 8 73 12 87 8 88 12 103 8 135 8 136 12 151 4 151 8 152 12 167 4 168 9 168 12 183 4 184 9 184 12 198 1 201 6 28 0 10 20 2 16 10 90 2 90 5 85 10 183 5 7 128 10 3 4 32 
PUSHW[ ]\011/* 1 value pushed */
-150 
PUSHB[ ]\011/* 4 values pushed */
5 9 8 32 
PUSHW[ ]\011/* 1 value pushed */
-150 
NPUSHB[ ]\011/* 61 values pushed */
2 12 11 32 6 7 8 8 86 5 6 20 5 5 6 9 5 4 4 86 10 9 20 10 10 9 3 10 11 11 86 2 3 20 2 2 3 12 2 1 1 86 0 12 20 0 0 12 9 11 8 12 1 3 4 6 4 7 0 5 2 
PUSHW[ ]\011/* 1 value pushed */
550 
PUSHB[ ]\011/* 4 values pushed */
8 12 8 10 
PUSHW[ ]\011/* 1 value pushed */
549 
NPUSHB[ ]\011/* 17 values pushed */
7 0 2 9 8 7 4 3 10 11 12 0 14 71 71 74 7 
NPUSHW[ ]\011/* 11 values pushed */
296 6 413 5 548 10 548 2 413 1 296 
PUSHB[ ]\011/* 8 values pushed */
64 0 73 13 11 180 175 24 
CALL[ ]\011/* CallFunction */
MPPEM[ ]\011/* MeasurePixelPerEm */
GT[ ]\011/* GreaterThan */
IF[ ]\011/* If */
PUSHB[ ]\011/* 1 value pushed */
0 
SMD[ ]\011/* SetMinimumDistance */
EIF[ ]\011/* EndIf */
FLIPOFF[ ]\011/* SetAutoFlipOff */
SRP0[ ]\011/* SetRefPoint0 */
MIRP[11100]\011/* MoveIndirectRelPt */
SMD[ ]\011/* SetMinimumDistance */
FLIPON[ ]\011/* SetAutoFlipOn */
MIRP[11101]\011/* MoveIndirectRelPt */
RTHG[ ]\011/* RoundToHalfGrid */
MIRP[10100]\011/* MoveIndirectRelPt */
RTG[ ]\011/* RoundToGrid */
MIRP[11101]\011/* MoveIndirectRelPt */
MIRP[11101]\011/* MoveIndirectRelPt */
RTHG[ ]\011/* RoundToHalfGrid */
MIRP[10100]\011/* MoveIndirectRelPt */
RTG[ ]\011/* RoundToGrid */
MIRP[11101]\011/* MoveIndirectRelPt */
FLIPOFF[ ]\011/* SetAutoFlipOff */
RCVT[ ]\011/* ReadCVT */
NEG[ ]\011/* Negate */
WCVTP[ ]\011/* WriteCVTInPixels */
MIRP[00110]\011/* MoveIndirectRelPt */
SRP1[ ]\011/* SetRefPoint1 */
SHP[1]\011/* ShiftPointByLastPoint */
SHP[1]\011/* ShiftPointByLastPoint */
SRP1[ ]\011/* SetRefPoint1 */
SHP[1]\011/* ShiftPointByLastPoint */
SHP[1]\011/* ShiftPointByLastPoint */
SRP1[ ]\011/* SetRefPoint1 */
SHP[1]\011/* ShiftPointByLastPoint */
SHP[1]\011/* ShiftPointByLastPoint */
SVTCA[0]\011/* SetFreedomAndProjectionVectorToAxis */
MIAP[1]\011/* MoveIndirectAbsPt */
ALIGNRP[ ]\011/* AlignRelativePt */
FLIPON[ ]\011/* SetAutoFlipOn */
MIRP[01101]\011/* MoveIndirectRelPt */
MIAP[1]\011/* MoveIndirectAbsPt */
ALIGNRP[ ]\011/* AlignRelativePt */
MIRP[11101]\011/* MoveIndirectRelPt */
ALIGNRP[ ]\011/* AlignRelativePt */
SRP1[ ]\011/* SetRefPoint1 */
SRP2[ ]\011/* SetRefPoint2 */
SLOOP[ ]\011/* SetLoopVariable */
IP[ ]\011/* InterpolatePts */
SRP1[ ]\011/* SetRefPoint1 */
SRP2[ ]\011/* SetRefPoint2 */
IP[ ]\011/* InterpolatePts */
IP[ ]\011/* InterpolatePts */
SDPVTL[1]\011/* SetDualPVectorToLine */
SFVTCA[1]\011/* SetFVectorToAxis */
MDAP[0]\011/* MoveDirectAbsPt */
CALL[ ]\011/* CallFunction */
SDPVTL[1]\011/* SetDualPVectorToLine */
RDTG[ ]\011/* RoundDownToGrid */
MDRP[00100]\011/* MoveDirectRelPt */
SDPVTL[1]\011/* SetDualPVectorToLine */
MDAP[0]\011/* MoveDirectAbsPt */
RTG[ ]\011/* RoundToGrid */
CALL[ ]\011/* CallFunction */
SDPVTL[1]\011/* SetDualPVectorToLine */
RDTG[ ]\011/* RoundDownToGrid */
MDRP[00100]\011/* MoveDirectRelPt */
SDPVTL[1]\011/* SetDualPVectorToLine */
MDAP[0]\011/* MoveDirectAbsPt */
RTG[ ]\011/* RoundToGrid */
CALL[ ]\011/* CallFunction */
SDPVTL[1]\011/* SetDualPVectorToLine */
RDTG[ ]\011/* RoundDownToGrid */
MDRP[00100]\011/* MoveDirectRelPt */
SDPVTL[1]\011/* SetDualPVectorToLine */
MDAP[0]\011/* MoveDirectAbsPt */
RTG[ ]\011/* RoundToGrid */
CALL[ ]\011/* CallFunction */
SDPVTL[1]\011/* SetDualPVectorToLine */
RDTG[ ]\011/* RoundDownToGrid */
MDRP[00100]\011/* MoveDirectRelPt */
CALL[ ]\011/* CallFunction */
CALL[ ]\011/* CallFunction */
CALL[ ]\011/* CallFunction */
IUP[1]\011/* InterpolateUntPts */
IUP[0]\011/* InterpolateUntPts */
SVTCA[0]\011/* SetFreedomAndProjectionVectorToAxis */
DELTAP1[ ]\011/* DeltaExceptionP1 */
SVTCA[1]\011/* SetFreedomAndProjectionVectorToAxis */
DELTAP1[ ]\011/* DeltaExceptionP1 */";
};
width = 1966;
}
);
note = W;
unicode = 0057;
},
{
glyphname = X;
lastChange = "2018-11-24 07:25:13 +0000";
layers = (
{
layerId = "F6FCABFB-DB8B-4A8A-BD05-D26D4B0CC58D";
paths = (
{
closed = 1;
nodes = (
"538 758 LINE",
"69 0 LINE",
"241 0 LINE",
"625 617 LINE",
"1007 0 LINE",
"1179 0 LINE",
"712 758 LINE",
"1150 1471 LINE",
"980 1471 LINE",
"625 897 LINE",
"273 1471 LINE",
"101 1471 LINE"
);
}
);
userData = {
assembly = "NPUSHB[ ]\011/* 80 values pushed */
75 5 79 8 200 0 203 5 207 8 5 73 5 71 9 2 71 1 72 3 72 7 3 11 0 7 10 3 8 0 7 9 4 5 1 6 9 4 2 1 6 10 3 7 6 1 1 86 0 7 20 0 0 7 3 4 9 9 86 10 3 20 10 10 3 3 1 4 0 7 9 6 10 4 0 2 6 10 8 3 
PUSHW[ ]\011/* 1 value pushed */
535 
PUSHB[ ]\011/* 3 values pushed */
4 209 7 
PUSHW[ ]\011/* 1 value pushed */
535 
NPUSHB[ ]\011/* 26 values pushed */
63 6 79 6 95 6 3 15 6 31 6 47 6 3 9 15 6 1 8 6 74 13 112 13 1 1 
PUSHW[ ]\011/* 1 value pushed */
535 
PUSHB[ ]\011/* 3 values pushed */
0 209 9 
PUSHW[ ]\011/* 1 value pushed */
535 
PUSHB[ ]\011/* 6 values pushed */
10 73 12 136 184 24 
CALL[ ]\011/* CallFunction */
RTHG[ ]\011/* RoundToHalfGrid */
FLIPOFF[ ]\011/* SetAutoFlipOff */
SRP0[ ]\011/* SetRefPoint0 */
MIRP[10100]\011/* MoveIndirectRelPt */
RTG[ ]\011/* RoundToGrid */
FLIPON[ ]\011/* SetAutoFlipOn */
MIRP[01101]\011/* MoveIndirectRelPt */
MIRP[10100]\011/* MoveIndirectRelPt */
MIRP[01101]\011/* MoveIndirectRelPt */
DELTAP1[ ]\011/* DeltaExceptionP1 */
RTHG[ ]\011/* RoundToHalfGrid */
FLIPOFF[ ]\011/* SetAutoFlipOff */
SRP0[ ]\011/* SetRefPoint0 */
MIRP[10110]\011/* MoveIndirectRelPt */
SDB[ ]\011/* SetDeltaBaseInGState */
DELTAP1[ ]\011/* DeltaExceptionP1 */
SDB[ ]\011/* SetDeltaBaseInGState */
DELTAP1[ ]\011/* DeltaExceptionP1 */
DELTAP1[ ]\011/* DeltaExceptionP1 */
RTG[ ]\011/* RoundToGrid */
FLIPON[ ]\011/* SetAutoFlipOn */
MIRP[01101]\011/* MoveIndirectRelPt */
MIRP[10100]\011/* MoveIndirectRelPt */
MIRP[01101]\011/* MoveIndirectRelPt */
SVTCA[0]\011/* SetFreedomAndProjectionVectorToAxis */
MIAP[1]\011/* MoveIndirectAbsPt */
ALIGNRP[ ]\011/* AlignRelativePt */
MIAP[1]\011/* MoveIndirectAbsPt */
ALIGNRP[ ]\011/* AlignRelativePt */
SRP1[ ]\011/* SetRefPoint1 */
SRP2[ ]\011/* SetRefPoint2 */
IP[ ]\011/* InterpolatePts */
IP[ ]\011/* InterpolatePts */
SRP1[ ]\011/* SetRefPoint1 */
SRP2[ ]\011/* SetRefPoint2 */
IP[ ]\011/* InterpolatePts */
IP[ ]\011/* InterpolatePts */
SDPVTL[1]\011/* SetDualPVectorToLine */
SFVTCA[1]\011/* SetFVectorToAxis */
MDAP[0]\011/* MoveDirectAbsPt */
CALL[ ]\011/* CallFunction */
SDPVTL[1]\011/* SetDualPVectorToLine */
RDTG[ ]\011/* RoundDownToGrid */
MDRP[00100]\011/* MoveDirectRelPt */
SDPVTL[1]\011/* SetDualPVectorToLine */
MDAP[0]\011/* MoveDirectAbsPt */
RTG[ ]\011/* RoundToGrid */
CALL[ ]\011/* CallFunction */
SDPVTL[1]\011/* SetDualPVectorToLine */
RDTG[ ]\011/* RoundDownToGrid */
MDRP[00100]\011/* MoveDirectRelPt */
ISECT[ ]\011/* MovePtToIntersect */
ISECT[ ]\011/* MovePtToIntersect */
ISECT[ ]\011/* MovePtToIntersect */
ISECT[ ]\011/* MovePtToIntersect */
IUP[1]\011/* InterpolateUntPts */
IUP[0]\011/* InterpolateUntPts */
SVTCA[1]\011/* SetFreedomAndProjectionVectorToAxis */
DELTAP1[ ]\011/* DeltaExceptionP1 */
DELTAP1[ ]\011/* DeltaExceptionP1 */
SVTCA[0]\011/* SetFreedomAndProjectionVectorToAxis */
DELTAP1[ ]\011/* DeltaExceptionP1 */";
};
width = 1247;
}
);
note = X;
unicode = 0058;
},
{
glyphname = Y;
lastChange = "2018-11-24 07:25:13 +0000";
layers = (
{
layerId = "F6FCABFB-DB8B-4A8A-BD05-D26D4B0CC58D";
paths = (
{
closed = 1;
nodes = (
"538 703 LINE",
"538 0 LINE",
"683 0 LINE",
"683 703 LINE",
"1149 1471 LINE",
"979 1471 LINE",
"609 865 LINE",
"233 1471 LINE",
"63 1471 LINE"
);
}
);
userData = {
assembly = "NPUSHB[ ]\011/* 42 values pushed */
5 8 2 3 2 1 3 86 4 5 20 4 4 5 2 1 2 3 1 86 0 8 20 0 0 8 3 1 4 0 7 8 4 0 2 8 2 5 3 6 7 10 
PUSHW[ ]\011/* 5 values pushed */
283 3 535 4 327 
PUSHB[ ]\011/* 3 values pushed */
6 101 7 
NPUSHW[ ]\011/* 9 values pushed */
327 1 535 0 283 9 533 547 24 
CALL[ ]\011/* CallFunction */
SRP0[ ]\011/* SetRefPoint0 */
MIRP[10110]\011/* MoveIndirectRelPt */
MIRP[01101]\011/* MoveIndirectRelPt */
MIRP[10100]\011/* MoveIndirectRelPt */
MIRP[11101]\011/* MoveIndirectRelPt */
MIRP[10100]\011/* MoveIndirectRelPt */
MIRP[01101]\011/* MoveIndirectRelPt */
MIRP[00110]\011/* MoveIndirectRelPt */
SRP1[ ]\011/* SetRefPoint1 */
SRP2[ ]\011/* SetRefPoint2 */
SLOOP[ ]\011/* SetLoopVariable */
IP[ ]\011/* InterpolatePts */
SVTCA[0]\011/* SetFreedomAndProjectionVectorToAxis */
MIAP[1]\011/* MoveIndirectAbsPt */
ALIGNRP[ ]\011/* AlignRelativePt */
MIAP[1]\011/* MoveIndirectAbsPt */
SRP1[ ]\011/* SetRefPoint1 */
SRP2[ ]\011/* SetRefPoint2 */
IP[ ]\011/* InterpolatePts */
IP[ ]\011/* InterpolatePts */
SDPVTL[1]\011/* SetDualPVectorToLine */
SFVTCA[1]\011/* SetFVectorToAxis */
MDAP[0]\011/* MoveDirectAbsPt */
CALL[ ]\011/* CallFunction */
SFVTL[0]\011/* SetFVectorToLine */
RDTG[ ]\011/* RoundDownToGrid */
SRP0[ ]\011/* SetRefPoint0 */
MDRP[00100]\011/* MoveDirectRelPt */
SDPVTL[1]\011/* SetDualPVectorToLine */
SFVTCA[1]\011/* SetFVectorToAxis */
MDAP[0]\011/* MoveDirectAbsPt */
RTG[ ]\011/* RoundToGrid */
CALL[ ]\011/* CallFunction */
SFVTL[0]\011/* SetFVectorToLine */
RDTG[ ]\011/* RoundDownToGrid */
SRP0[ ]\011/* SetRefPoint0 */
MDRP[00100]\011/* MoveDirectRelPt */
SVTCA[0]\011/* SetFreedomAndProjectionVectorToAxis */
MDAP[0]\011/* MoveDirectAbsPt */
MDAP[0]\011/* MoveDirectAbsPt */
IUP[1]\011/* InterpolateUntPts */
IUP[0]\011/* InterpolateUntPts */";
};
width = 1212;
}
);
note = Y;
unicode = 0059;
},
{
glyphname = Z;
lastChange = "2018-11-24 07:25:13 +0000";
layers = (
{
layerId = "F6FCABFB-DB8B-4A8A-BD05-D26D4B0CC58D";
paths = (
{
closed = 1;
nodes = (
"675 1329 LINE",
"56 0 LINE",
"867 0 LINE",
"867 143 LINE",
"283 143 LINE",
"898 1471 LINE",
"122 1471 LINE",
"122 1329 LINE"
);
}
);
userData = {
assembly = "NPUSHB[ ]\011/* 87 values pushed */
26 2 26 7 2 7 2 8 3 6 7 3 9 7 2 8 3 6 7 3 8 7 2 3 3 86 6 7 20 6 6 7 7 2 0 1 4 5 3 6 0 94 1 2 3 94 6 8 7 3 6 2 209 15 5 1 5 74 9 47 9 1 224 1 1 176 1 192 1 208 1 3 128 1 144 1 160 1 3 1 190 6 73 8 136 131 24 
CALL[ ]\011/* CallFunction */
FLIPOFF[ ]\011/* SetAutoFlipOff */
SRP0[ ]\011/* SetRefPoint0 */
MIRP[10100]\011/* MoveIndirectRelPt */
FLIPON[ ]\011/* SetAutoFlipOn */
MIRP[00100]\011/* MoveIndirectRelPt */
DELTAP1[ ]\011/* DeltaExceptionP1 */
DELTAP1[ ]\011/* DeltaExceptionP1 */
DELTAP1[ ]\011/* DeltaExceptionP1 */
DELTAP1[ ]\011/* DeltaExceptionP1 */
FLIPOFF[ ]\011/* SetAutoFlipOff */
SRP0[ ]\011/* SetRefPoint0 */
MIRP[10110]\011/* MoveIndirectRelPt */
DELTAP1[ ]\011/* DeltaExceptionP1 */
FLIPON[ ]\011/* SetAutoFlipOn */
MIRP[00100]\011/* MoveIndirectRelPt */
SRP1[ ]\011/* SetRefPoint1 */
SHP[1]\011/* ShiftPointByLastPoint */
SHP[0]\011/* ShiftPointByLastPoint */
SVTCA[0]\011/* SetFreedomAndProjectionVectorToAxis */
MIAP[1]\011/* MoveIndirectAbsPt */
MIRP[01101]\011/* MoveIndirectRelPt */
MIAP[1]\011/* MoveIndirectAbsPt */
MIRP[01101]\011/* MoveIndirectRelPt */
SRP1[ ]\011/* SetRefPoint1 */
SRP2[ ]\011/* SetRefPoint2 */
IP[ ]\011/* InterpolatePts */
IP[ ]\011/* InterpolatePts */
SRP1[ ]\011/* SetRefPoint1 */
SRP2[ ]\011/* SetRefPoint2 */
IP[ ]\011/* InterpolatePts */
IP[ ]\011/* InterpolatePts */
SDPVTL[1]\011/* SetDualPVectorToLine */
SFVTCA[1]\011/* SetFVectorToAxis */
MDAP[0]\011/* MoveDirectAbsPt */
CALL[ ]\011/* CallFunction */
SDPVTL[1]\011/* SetDualPVectorToLine */
RDTG[ ]\011/* RoundDownToGrid */
MDRP[00100]\011/* MoveDirectRelPt */
IUP[1]\011/* InterpolateUntPts */
IUP[0]\011/* InterpolateUntPts */
SDB[ ]\011/* SetDeltaBaseInGState */
DELTAP1[ ]\011/* DeltaExceptionP1 */
SDB[ ]\011/* SetDeltaBaseInGState */
DELTAP1[ ]\011/* DeltaExceptionP1 */
SVTCA[1]\011/* SetFreedomAndProjectionVectorToAxis */
DELTAP1[ ]\011/* DeltaExceptionP1 */";
};
width = 983;
}
);
note = Z;
unicode = 005A;
},
{
glyphname = bracketleft;
lastChange = "2018-11-24 07:25:13 +0000";
layers = (
{
layerId = "F6FCABFB-DB8B-4A8A-BD05-D26D4B0CC58D";
paths = (
{
closed = 1;
nodes = (
"290 -398 LINE",
"626 -398 LINE",
"626 -261 LINE",
"430 -261 LINE",
"430 1366 LINE",
"626 1366 LINE",
"626 1508 LINE",
"290 1508 LINE"
);
}
);
userData = {
assembly = "NPUSHB[ ]\011/* 32 values pushed */
2 1 3 0 6 5 7 4 3 98 0 16 4 98 7 18 2 5 1 6 3 0 4 7 9 246 1 6 162 4 127 7 
PUSHW[ ]\011/* 1 value pushed */
551 
PUSHB[ ]\011/* 4 values pushed */
8 142 152 24 
CALL[ ]\011/* CallFunction */
SRP0[ ]\011/* SetRefPoint0 */
MIRP[10110]\011/* MoveIndirectRelPt */
MIRP[11101]\011/* MoveIndirectRelPt */
MIRP[10100]\011/* MoveIndirectRelPt */
ALIGNRP[ ]\011/* AlignRelativePt */
MIRP[00100]\011/* MoveIndirectRelPt */
SRP1[ ]\011/* SetRefPoint1 */
SRP2[ ]\011/* SetRefPoint2 */
IP[ ]\011/* InterpolatePts */
IP[ ]\011/* InterpolatePts */
SRP1[ ]\011/* SetRefPoint1 */
SRP2[ ]\011/* SetRefPoint2 */
IP[ ]\011/* InterpolatePts */
IP[ ]\011/* InterpolatePts */
SVTCA[0]\011/* SetFreedomAndProjectionVectorToAxis */
MIAP[1]\011/* MoveIndirectAbsPt */
MIRP[01101]\011/* MoveIndirectRelPt */
MIAP[1]\011/* MoveIndirectAbsPt */
MIRP[01101]\011/* MoveIndirectRelPt */
SRP1[ ]\011/* SetRefPoint1 */
SRP2[ ]\011/* SetRefPoint2 */
IP[ ]\011/* InterpolatePts */
IP[ ]\011/* InterpolatePts */
SRP1[ ]\011/* SetRefPoint1 */
SRP2[ ]\011/* SetRefPoint2 */
IP[ ]\011/* InterpolatePts */
IP[ ]\011/* InterpolatePts */
IUP[1]\011/* InterpolateUntPts */
IUP[0]\011/* InterpolateUntPts */";
};
width = 719;
}
);
note = bracketleft;
unicode = 005B;
},
{
glyphname = backslash;
lastChange = "2018-11-24 07:25:13 +0000";
layers = (
{
layerId = "F6FCABFB-DB8B-4A8A-BD05-D26D4B0CC58D";
paths = (
{
closed = 1;
nodes = (
"66 1508 LINE",
"1019 -200 LINE",
"1172 -200 LINE",
"220 1508 LINE"
);
}
);
userData = {
assembly = "NPUSHB[ ]\011/* 23 values pushed */
5 0 5 3 2 2 1 0 0 85 3 2 20 3 3 2 1 0 3 2 3 0 2 
PUSHW[ ]\011/* 1 value pushed */
389 
PUSHB[ ]\011/* 4 values pushed */
1 74 5 0 
PUSHW[ ]\011/* 1 value pushed */
389 
PUSHB[ ]\011/* 6 values pushed */
3 73 4 89 114 24 
CALL[ ]\011/* CallFunction */
FLIPOFF[ ]\011/* SetAutoFlipOff */
SRP0[ ]\011/* SetRefPoint0 */
MIRP[10100]\011/* MoveIndirectRelPt */
FLIPON[ ]\011/* SetAutoFlipOn */
MIRP[01101]\011/* MoveIndirectRelPt */
FLIPOFF[ ]\011/* SetAutoFlipOff */
SRP0[ ]\011/* SetRefPoint0 */
MIRP[10110]\011/* MoveIndirectRelPt */
FLIPON[ ]\011/* SetAutoFlipOn */
MIRP[01101]\011/* MoveIndirectRelPt */
SVTCA[0]\011/* SetFreedomAndProjectionVectorToAxis */
MIAP[1]\011/* MoveIndirectAbsPt */
MDAP[1]\011/* MoveDirectAbsPt */
SRP2[ ]\011/* SetRefPoint2 */
IP[ ]\011/* InterpolatePts */
IP[ ]\011/* InterpolatePts */
SDPVTL[1]\011/* SetDualPVectorToLine */
SFVTCA[1]\011/* SetFVectorToAxis */
MDAP[0]\011/* MoveDirectAbsPt */
CALL[ ]\011/* CallFunction */
SDPVTL[1]\011/* SetDualPVectorToLine */
RDTG[ ]\011/* RoundDownToGrid */
MDRP[00100]\011/* MoveDirectRelPt */
IUP[1]\011/* InterpolateUntPts */
IUP[0]\011/* InterpolateUntPts */
SVTCA[1]\011/* SetFreedomAndProjectionVectorToAxis */
DELTAP1[ ]\011/* DeltaExceptionP1 */";
};
width = 1239;
}
);
note = backslash;
unicode = 005C;
},
{
glyphname = bracketright;
lastChange = "2018-11-24 07:25:13 +0000";
layers = (
{
layerId = "F6FCABFB-DB8B-4A8A-BD05-D26D4B0CC58D";
paths = (
{
closed = 1;
nodes = (
"429 1508 LINE",
"93 1508 LINE",
"93 1371 LINE",
"288 1371 LINE",
"288 -256 LINE",
"93 -256 LINE",
"93 -398 LINE",
"429 -398 LINE"
);
}
);
userData = {
assembly = "NPUSHB[ ]\011/* 25 values pushed */
5 6 4 7 2 1 3 0 4 98 7 16 3 98 0 18 7 4 0 3 5 2 6 1 9 
PUSHW[ ]\011/* 1 value pushed */
518 
PUSHB[ ]\011/* 6 values pushed */
0 127 3 162 6 1 
PUSHW[ ]\011/* 1 value pushed */
292 
PUSHB[ ]\011/* 4 values pushed */
8 119 236 24 
CALL[ ]\011/* CallFunction */
SRP0[ ]\011/* SetRefPoint0 */
MIRP[10110]\011/* MoveIndirectRelPt */
ALIGNRP[ ]\011/* AlignRelativePt */
MIRP[10100]\011/* MoveIndirectRelPt */
MIRP[11101]\011/* MoveIndirectRelPt */
MIRP[00100]\011/* MoveIndirectRelPt */
SRP1[ ]\011/* SetRefPoint1 */
SRP2[ ]\011/* SetRefPoint2 */
IP[ ]\011/* InterpolatePts */
IP[ ]\011/* InterpolatePts */
SRP1[ ]\011/* SetRefPoint1 */
SRP2[ ]\011/* SetRefPoint2 */
IP[ ]\011/* InterpolatePts */
IP[ ]\011/* InterpolatePts */
SVTCA[0]\011/* SetFreedomAndProjectionVectorToAxis */
MIAP[1]\011/* MoveIndirectAbsPt */
MIRP[01101]\011/* MoveIndirectRelPt */
MIAP[1]\011/* MoveIndirectAbsPt */
MIRP[01101]\011/* MoveIndirectRelPt */
SRP1[ ]\011/* SetRefPoint1 */
SRP2[ ]\011/* SetRefPoint2 */
IP[ ]\011/* InterpolatePts */
IP[ ]\011/* InterpolatePts */
SRP1[ ]\011/* SetRefPoint1 */
SRP2[ ]\011/* SetRefPoint2 */
IP[ ]\011/* InterpolatePts */
IP[ ]\011/* InterpolatePts */
IUP[1]\011/* InterpolateUntPts */
IUP[0]\011/* InterpolateUntPts */";
};
width = 719;
}
);
note = bracketright;
unicode = 005D;
},
{
glyphname = asciicircum;
lastChange = "2018-11-24 07:25:13 +0000";
layers = (
{
layerId = "F6FCABFB-DB8B-4A8A-BD05-D26D4B0CC58D";
paths = (
{
closed = 1;
nodes = (
"120 365 LINE",
"249 365 LINE",
"685 1317 LINE",
"1124 365 LINE",
"1257 365 LINE",
"747 1471 LINE",
"629 1471 LINE"
);
}
);
userData = {
assembly = "NPUSHB[ ]\011/* 41 values pushed */
4 3 4 5 3 85 2 1 20 2 2 1 4 5 4 3 5 85 6 0 20 6 6 0 1 4 0 3 5 2 2 6 4 218 0 2 8 71 71 74 2 
PUSHW[ ]\011/* 5 values pushed */
517 1 292 0 517 
NPUSHB[ ]\011/* 9 values pushed */
0 6 1 6 73 7 95 113 24 
CALL[ ]\011/* CallFunction */
FLIPOFF[ ]\011/* SetAutoFlipOff */
SRP0[ ]\011/* SetRefPoint0 */
MIRP[10100]\011/* MoveIndirectRelPt */
DELTAP1[ ]\011/* DeltaExceptionP1 */
FLIPON[ ]\011/* SetAutoFlipOn */
MIRP[10100]\011/* MoveIndirectRelPt */
MIRP[10110]\011/* MoveIndirectRelPt */
MIRP[10100]\011/* MoveIndirectRelPt */
FLIPOFF[ ]\011/* SetAutoFlipOff */
RCVT[ ]\011/* ReadCVT */
NEG[ ]\011/* Negate */
WCVTP[ ]\011/* WriteCVTInPixels */
MIRP[00110]\011/* MoveIndirectRelPt */
SVTCA[0]\011/* SetFreedomAndProjectionVectorToAxis */
MIAP[1]\011/* MoveIndirectAbsPt */
FLIPON[ ]\011/* SetAutoFlipOn */
MIRP[01101]\011/* MoveIndirectRelPt */
MDAP[1]\011/* MoveDirectAbsPt */
ALIGNRP[ ]\011/* AlignRelativePt */
SRP2[ ]\011/* SetRefPoint2 */
IP[ ]\011/* InterpolatePts */
IP[ ]\011/* InterpolatePts */
SRP1[ ]\011/* SetRefPoint1 */
SRP2[ ]\011/* SetRefPoint2 */
IP[ ]\011/* InterpolatePts */
SDPVTL[1]\011/* SetDualPVectorToLine */
SFVTCA[1]\011/* SetFVectorToAxis */
MDAP[0]\011/* MoveDirectAbsPt */
CALL[ ]\011/* CallFunction */
SFVTL[0]\011/* SetFVectorToLine */
RDTG[ ]\011/* RoundDownToGrid */
SRP0[ ]\011/* SetRefPoint0 */
MDRP[00100]\011/* MoveDirectRelPt */
SDPVTL[1]\011/* SetDualPVectorToLine */
SFVTCA[1]\011/* SetFVectorToAxis */
MDAP[0]\011/* MoveDirectAbsPt */
RTG[ ]\011/* RoundToGrid */
CALL[ ]\011/* CallFunction */
SFVTL[0]\011/* SetFVectorToLine */
RDTG[ ]\011/* RoundDownToGrid */
SRP0[ ]\011/* SetRefPoint0 */
MDRP[00100]\011/* MoveDirectRelPt */
IUP[1]\011/* InterpolateUntPts */
IUP[0]\011/* InterpolateUntPts */";
};
width = 1376;
}
);
note = asciicircum;
unicode = 005E;
},
{
glyphname = underscore;
lastChange = "2018-11-24 07:25:13 +0000";
layers = (
{
layerId = "F6FCABFB-DB8B-4A8A-BD05-D26D4B0CC58D";
paths = (
{
closed = 1;
nodes = (
"-12 -256 LINE",
"1036 -256 LINE",
"1036 -154 LINE",
"-12 -154 LINE"
);
}
);
userData = {
assembly = "NPUSHB[ ]\011/* 17 values pushed */
2 1 3 192 0 2 3 0 1 74 5 0 73 4 206 134 24 
CALL[ ]\011/* CallFunction */
FLIPOFF[ ]\011/* SetAutoFlipOff */
SRP0[ ]\011/* SetRefPoint0 */
MIRP[00100]\011/* MoveIndirectRelPt */
SRP0[ ]\011/* SetRefPoint0 */
MIRP[00110]\011/* MoveIndirectRelPt */
SRP1[ ]\011/* SetRefPoint1 */
IP[ ]\011/* InterpolatePts */
IP[ ]\011/* InterpolatePts */
SVTCA[0]\011/* SetFreedomAndProjectionVectorToAxis */
MDAP[1]\011/* MoveDirectAbsPt */
FLIPON[ ]\011/* SetAutoFlipOn */
MIRP[01101]\011/* MoveIndirectRelPt */
IP[ ]\011/* InterpolatePts */
IP[ ]\011/* InterpolatePts */
IUP[1]\011/* InterpolateUntPts */
IUP[0]\011/* InterpolateUntPts */";
};
width = 1024;
}
);
note = underscore;
unicode = 005F;
},
{
glyphname = grave;
lastChange = "2018-11-24 07:25:13 +0000";
layers = (
{
layerId = "F6FCABFB-DB8B-4A8A-BD05-D26D4B0CC58D";
paths = (
{
closed = 1;
nodes = (
"111 1598 LINE",
"406 1290 LINE",
"544 1290 LINE",
"326 1598 LINE"
);
}
);
userData = {
assembly = "NPUSHB[ ]\011/* 17 values pushed */
0 1 3 223 128 2 0 2 1 227 0 3 1 3 73 4 95 
PUSHW[ ]\011/* 2 values pushed */
275 24 
CALL[ ]\011/* CallFunction */
FLIPOFF[ ]\011/* SetAutoFlipOff */
SRP0[ ]\011/* SetRefPoint0 */
MIRP[10100]\011/* MoveIndirectRelPt */
DELTAP1[ ]\011/* DeltaExceptionP1 */
FLIPON[ ]\011/* SetAutoFlipOn */
MIRP[01101]\011/* MoveIndirectRelPt */
IP[ ]\011/* InterpolatePts */
IP[ ]\011/* InterpolatePts */
SVTCA[0]\011/* SetFreedomAndProjectionVectorToAxis */
MDAP[1]\011/* MoveDirectAbsPt */
SMD[ ]\011/* SetMinimumDistance */
MIRP[01101]\011/* MoveIndirectRelPt */
IP[ ]\011/* InterpolatePts */
IP[ ]\011/* InterpolatePts */
IUP[1]\011/* InterpolateUntPts */
IUP[0]\011/* InterpolateUntPts */";
};
width = 774;
}
);
note = grave;
unicode = 0060;
},
{
glyphname = a;
lastChange = "2018-11-24 07:25:13 +0000";
layers = (
{
layerId = "F6FCABFB-DB8B-4A8A-BD05-D26D4B0CC58D";
paths = (
{
closed = 1;
nodes = (
"1102 1088 LINE",
"1102 888 LINE",
"992.667 1040 OFFCURVE",
"847.667 1116 OFFCURVE",
"669 1116 CURVE SMOOTH",
"359.667 1116 OFFCURVE",
"107 860.333 OFFCURVE",
"107 547 CURVE SMOOTH",
"107 227 OFFCURVE",
"357 -28 OFFCURVE",
"665 -28 CURVE SMOOTH",
"838.333 -28 OFFCURVE",
"984.667 44.333 OFFCURVE",
"1102 187 CURVE",
"1102 0 LINE",
"1240 0 LINE",
"1240 1088 LINE"
);
},
{
closed = 1;
nodes = (
"922.667 981 OFFCURVE",
"1111 790 OFFCURVE",
"1111 538 CURVE SMOOTH",
"1111 372.667 OFFCURVE",
"1034.333 235.333 OFFCURVE",
"897 158 CURVE SMOOTH",
"828.333 119.333 OFFCURVE",
"755.667 100 OFFCURVE",
"679 100 CURVE SMOOTH",
"527 100 OFFCURVE",
"385.667 182 OFFCURVE",
"307 322 CURVE SMOOTH",
"267.667 392 OFFCURVE",
"248 465.333 OFFCURVE",
"248 542 CURVE SMOOTH",
"248 696.667 OFFCURVE",
"332 846.833 OFFCURVE",
"464 923.5 CURVE SMOOTH",
"530 961.833 OFFCURVE",
"602 981 OFFCURVE",
"680 981 CURVE SMOOTH"
);
}
);
userData = {
assembly = "NPUSHB[ ]\011/* 49 values pushed */
30 64 25 6 27 64 12 17 41 8 15 29 3 2 2 0 1 16 17 88 12 7 1 10 16 6 25 88 6 11 0 16 15 29 3 5 2 92 1 74 33 21 105 9 73 32 96 118 24 
CALL[ ]\011/* CallFunction */
FLIPOFF[ ]\011/* SetAutoFlipOff */
SRP0[ ]\011/* SetRefPoint0 */
MIRP[10100]\011/* MoveIndirectRelPt */
FLIPON[ ]\011/* SetAutoFlipOn */
MIRP[01101]\011/* MoveIndirectRelPt */
FLIPOFF[ ]\011/* SetAutoFlipOff */
SRP0[ ]\011/* SetRefPoint0 */
MIRP[10110]\011/* MoveIndirectRelPt */
FLIPON[ ]\011/* SetAutoFlipOn */
MIRP[01101]\011/* MoveIndirectRelPt */
SLOOP[ ]\011/* SetLoopVariable */
IP[ ]\011/* InterpolatePts */
SVTCA[0]\011/* SetFreedomAndProjectionVectorToAxis */
MIAP[1]\011/* MoveIndirectAbsPt */
MIRP[01101]\011/* MoveIndirectRelPt */
MIAP[1]\011/* MoveIndirectAbsPt */
MIAP[1]\011/* MoveIndirectAbsPt */
MIAP[1]\011/* MoveIndirectAbsPt */
MIRP[01101]\011/* MoveIndirectRelPt */
SRP1[ ]\011/* SetRefPoint1 */
SRP2[ ]\011/* SetRefPoint2 */
IP[ ]\011/* InterpolatePts */
IP[ ]\011/* InterpolatePts */
SPVTCA[1]\011/* SetPVectorToAxis */
SFVTPV[ ]\011/* SetFVectorToPVector */
SRP0[ ]\011/* SetRefPoint0 */
ALIGNRP[ ]\011/* AlignRelativePt */
RDTG[ ]\011/* RoundDownToGrid */
MDRP[00100]\011/* MoveDirectRelPt */
ALIGNRP[ ]\011/* AlignRelativePt */
IUP[1]\011/* InterpolateUntPts */
IUP[0]\011/* InterpolateUntPts */
RTG[ ]\011/* RoundToGrid */
RS[ ]\011/* ReadStore */
JROF[ ]\011/* JumpRelativeOnFalse */
NPUSHB[ ]\011/* 28 values pushed */
18 24 7 11 23 38 19 37 24 7 21 90 0 18 11 21 90 0 22 8 25 90 0 20 10 17 90 1 
SVTCA[0]\011/* SetFreedomAndProjectionVectorToAxis */
CALL[ ]\011/* CallFunction */
CALL[ ]\011/* CallFunction */
SVTCA[1]\011/* SetFreedomAndProjectionVectorToAxis */
CALL[ ]\011/* CallFunction */
CALL[ ]\011/* CallFunction */
CALL[ ]\011/* CallFunction */
CALL[ ]\011/* CallFunction */
FLIPRGON[ ]\011/* FlipRangeOn */
FLIPRGON[ ]\011/* FlipRangeOn */
SVTCA[0]\011/* SetFreedomAndProjectionVectorToAxis */
MD[0]\011/* MeasureDistance */
EQ[ ]\011/* Equal */
JROF[ ]\011/* JumpRelativeOnFalse */
NPUSHB[ ]\011/* 16 values pushed */
30 31 13 14 30 14 17 104 5 31 13 29 104 1 14 15 
SVTCA[1]\011/* SetFreedomAndProjectionVectorToAxis */
SRP0[ ]\011/* SetRefPoint0 */
ALIGNRP[ ]\011/* AlignRelativePt */
CALL[ ]\011/* CallFunction */
SVTCA[0]\011/* SetFreedomAndProjectionVectorToAxis */
CALL[ ]\011/* CallFunction */
FLIPRGON[ ]\011/* FlipRangeOn */
FLIPRGON[ ]\011/* FlipRangeOn */
SVTCA[0]\011/* SetFreedomAndProjectionVectorToAxis */
MD[0]\011/* MeasureDistance */
EQ[ ]\011/* Equal */
JROF[ ]\011/* JumpRelativeOnFalse */
NPUSHB[ ]\011/* 18 values pushed */
26 28 4 5 27 37 28 4 25 104 4 26 5 29 104 1 4 3 
SVTCA[1]\011/* SetFreedomAndProjectionVectorToAxis */
SRP0[ ]\011/* SetRefPoint0 */
ALIGNRP[ ]\011/* AlignRelativePt */
CALL[ ]\011/* CallFunction */
SVTCA[0]\011/* SetFreedomAndProjectionVectorToAxis */
CALL[ ]\011/* CallFunction */
CALL[ ]\011/* CallFunction */
FLIPRGON[ ]\011/* FlipRangeOn */
FLIPRGON[ ]\011/* FlipRangeOn */";
};
width = 1399;
}
);
note = a;
unicode = 0061;
},
{
glyphname = b;
lastChange = "2018-11-24 07:25:13 +0000";
layers = (
{
layerId = "F6FCABFB-DB8B-4A8A-BD05-D26D4B0CC58D";
paths = (
{
closed = 1;
nodes = (
"304 0 LINE",
"304 200 LINE",
"414.667 48 OFFCURVE",
"558.667 -28 OFFCURVE",
"736 -28 CURVE SMOOTH",
"1045.333 -28 OFFCURVE",
"1298 227.333 OFFCURVE",
"1298 542 CURVE SMOOTH",
"1298 860.667 OFFCURVE",
"1048 1116 OFFCURVE",
"740 1116 CURVE SMOOTH",
"566.667 1116 OFFCURVE",
"421.333 1045 OFFCURVE",
"304 901 CURVE",
"304 1508 LINE",
"165 1508 LINE",
"165 0 LINE"
);
},
{
closed = 1;
nodes = (
"482.333 107 OFFCURVE",
"294 298 OFFCURVE",
"294 550 CURVE SMOOTH",
"294 715.333 OFFCURVE",
"370.5 852.5 OFFCURVE",
"508.5 930.5 CURVE SMOOTH",
"577.5 969.5 OFFCURVE",
"650.333 989 OFFCURVE",
"727 989 CURVE SMOOTH",
"877.667 989 OFFCURVE",
"1019.333 907 OFFCURVE",
"1098 767 CURVE SMOOTH",
"1137.333 697 OFFCURVE",
"1157 623.333 OFFCURVE",
"1157 546 CURVE SMOOTH",
"1157 391.333 OFFCURVE",
"1073 241.167 OFFCURVE",
"941 164.5 CURVE SMOOTH",
"875 126.167 OFFCURVE",
"803 107 OFFCURVE",
"725 107 CURVE SMOOTH"
);
}
);
userData = {
assembly = "NPUSHB[ ]\011/* 47 values pushed */
27 64 17 12 30 64 6 25 41 8 15 29 3 2 25 88 6 7 1 0 17 88 12 11 0 10 1 2 3 29 15 5 16 0 21 105 9 74 33 16 92 0 73 32 123 133 24 
CALL[ ]\011/* CallFunction */
FLIPOFF[ ]\011/* SetAutoFlipOff */
SRP0[ ]\011/* SetRefPoint0 */
MIRP[10100]\011/* MoveIndirectRelPt */
FLIPON[ ]\011/* SetAutoFlipOn */
MIRP[01101]\011/* MoveIndirectRelPt */
FLIPOFF[ ]\011/* SetAutoFlipOff */
SRP0[ ]\011/* SetRefPoint0 */
MIRP[10110]\011/* MoveIndirectRelPt */
FLIPON[ ]\011/* SetAutoFlipOn */
MIRP[01101]\011/* MoveIndirectRelPt */
SRP1[ ]\011/* SetRefPoint1 */
SRP2[ ]\011/* SetRefPoint2 */
SLOOP[ ]\011/* SetLoopVariable */
IP[ ]\011/* InterpolatePts */
SVTCA[0]\011/* SetFreedomAndProjectionVectorToAxis */
MIAP[1]\011/* MoveIndirectAbsPt */
MIAP[1]\011/* MoveIndirectAbsPt */
MIRP[01101]\011/* MoveIndirectRelPt */
MIAP[1]\011/* MoveIndirectAbsPt */
MIAP[1]\011/* MoveIndirectAbsPt */
MIRP[01101]\011/* MoveIndirectRelPt */
SPVTCA[1]\011/* SetPVectorToAxis */
SFVTPV[ ]\011/* SetFVectorToPVector */
SRP0[ ]\011/* SetRefPoint0 */
ALIGNRP[ ]\011/* AlignRelativePt */
RDTG[ ]\011/* RoundDownToGrid */
MDRP[00100]\011/* MoveDirectRelPt */
ALIGNRP[ ]\011/* AlignRelativePt */
IUP[1]\011/* InterpolateUntPts */
IUP[0]\011/* InterpolateUntPts */
RTG[ ]\011/* RoundToGrid */
RS[ ]\011/* ReadStore */
JROF[ ]\011/* JumpRelativeOnFalse */
NPUSHB[ ]\011/* 28 values pushed */
18 24 7 11 19 37 23 38 18 11 21 90 1 24 7 21 90 1 20 10 17 90 0 22 8 25 90 1 
SVTCA[0]\011/* SetFreedomAndProjectionVectorToAxis */
CALL[ ]\011/* CallFunction */
CALL[ ]\011/* CallFunction */
SVTCA[1]\011/* SetFreedomAndProjectionVectorToAxis */
CALL[ ]\011/* CallFunction */
CALL[ ]\011/* CallFunction */
CALL[ ]\011/* CallFunction */
CALL[ ]\011/* CallFunction */
FLIPRGON[ ]\011/* FlipRangeOn */
FLIPRGON[ ]\011/* FlipRangeOn */
SVTCA[0]\011/* SetFreedomAndProjectionVectorToAxis */
MD[0]\011/* MeasureDistance */
EQ[ ]\011/* Equal */
JROF[ ]\011/* JumpRelativeOnFalse */
NPUSHB[ ]\011/* 18 values pushed */
26 28 4 5 27 37 28 4 25 104 5 26 5 29 104 0 4 3 
SVTCA[1]\011/* SetFreedomAndProjectionVectorToAxis */
SRP0[ ]\011/* SetRefPoint0 */
ALIGNRP[ ]\011/* AlignRelativePt */
CALL[ ]\011/* CallFunction */
SVTCA[0]\011/* SetFreedomAndProjectionVectorToAxis */
CALL[ ]\011/* CallFunction */
CALL[ ]\011/* CallFunction */
FLIPRGON[ ]\011/* FlipRangeOn */
FLIPRGON[ ]\011/* FlipRangeOn */
SVTCA[0]\011/* SetFreedomAndProjectionVectorToAxis */
MD[0]\011/* MeasureDistance */
EQ[ ]\011/* Equal */
JROF[ ]\011/* JumpRelativeOnFalse */
NPUSHB[ ]\011/* 16 values pushed */
30 31 13 14 30 14 17 104 4 31 13 29 104 0 14 15 
SVTCA[1]\011/* SetFreedomAndProjectionVectorToAxis */
SRP0[ ]\011/* SetRefPoint0 */
ALIGNRP[ ]\011/* AlignRelativePt */
CALL[ ]\011/* CallFunction */
SVTCA[0]\011/* SetFreedomAndProjectionVectorToAxis */
CALL[ ]\011/* CallFunction */
FLIPRGON[ ]\011/* FlipRangeOn */
FLIPRGON[ ]\011/* FlipRangeOn */";
};
width = 1397;
}
);
note = b;
unicode = 0062;
},
{
glyphname = c;
lastChange = "2018-11-24 07:25:13 +0000";
layers = (
{
layerId = "F6FCABFB-DB8B-4A8A-BD05-D26D4B0CC58D";
paths = (
{
closed = 1;
nodes = (
"1146.667 971.333 OFFCURVE",
"1056.5 1039 OFFCURVE",
"922.5 1083 CURVE SMOOTH",
"855.5 1105 OFFCURVE",
"786 1116 OFFCURVE",
"714 1116 CURVE SMOOTH",
"484.667 1116 OFFCURVE",
"290.5 1009.167 OFFCURVE",
"184.5 828.5 CURVE SMOOTH",
"131.5 738.167 OFFCURVE",
"105 640.333 OFFCURVE",
"105 535 CURVE SMOOTH",
"105 221.667 OFFCURVE",
"359 -28 OFFCURVE",
"703 -28 CURVE SMOOTH",
"927 -28 OFFCURVE",
"1108 62 OFFCURVE",
"1212 218 CURVE",
"1101 291 LINE",
"999.667 163.667 OFFCURVE",
"869 100 OFFCURVE",
"709 100 CURVE SMOOTH",
"534.333 100 OFFCURVE",
"387.167 181 OFFCURVE",
"306.5 321 CURVE SMOOTH",
"266.167 391 OFFCURVE",
"246 465.667 OFFCURVE",
"246 545 CURVE SMOOTH",
"246 789 OFFCURVE",
"442.667 984 OFFCURVE",
"708 984 CURVE SMOOTH",
"874 984 OFFCURVE",
"1005 920.333 OFFCURVE",
"1101 793 CURVE",
"1212 862 LINE"
);
}
);
userData = {
assembly = "NPUSHB[ ]\011/* 24 values pushed */
196 25 1 11 64 15 22 57 2 64 15 22 57 40 8 0 1 13 9 0 12 1 8 12 
PUSHW[ ]\011/* 1 value pushed */
552 
NPUSHB[ ]\011/* 10 values pushed */
10 88 16 11 9 15 1 1 8 1 
PUSHW[ ]\011/* 1 value pushed */
552 
NPUSHB[ ]\011/* 19 values pushed */
3 88 23 7 1 0 12 0 13 74 28 6 105 19 73 27 96 133 24 
CALL[ ]\011/* CallFunction */
FLIPOFF[ ]\011/* SetAutoFlipOff */
SRP0[ ]\011/* SetRefPoint0 */
MIRP[10100]\011/* MoveIndirectRelPt */
FLIPON[ ]\011/* SetAutoFlipOn */
MIRP[01101]\011/* MoveIndirectRelPt */
FLIPOFF[ ]\011/* SetAutoFlipOff */
SRP0[ ]\011/* SetRefPoint0 */
MIRP[10110]\011/* MoveIndirectRelPt */
ALIGNRP[ ]\011/* AlignRelativePt */
SHP[0]\011/* ShiftPointByLastPoint */
SRP1[ ]\011/* SetRefPoint1 */
SHP[1]\011/* ShiftPointByLastPoint */
SVTCA[0]\011/* SetFreedomAndProjectionVectorToAxis */
MIAP[1]\011/* MoveIndirectAbsPt */
FLIPON[ ]\011/* SetAutoFlipOn */
MIRP[11101]\011/* MoveIndirectRelPt */
MIRP[00100]\011/* MoveIndirectRelPt */
SDB[ ]\011/* SetDeltaBaseInGState */
DELTAP1[ ]\011/* DeltaExceptionP1 */
SDB[ ]\011/* SetDeltaBaseInGState */
MIAP[1]\011/* MoveIndirectAbsPt */
MIRP[11101]\011/* MoveIndirectRelPt */
MIRP[10100]\011/* MoveIndirectRelPt */
SDB[ ]\011/* SetDeltaBaseInGState */
DELTAP1[ ]\011/* DeltaExceptionP1 */
SDB[ ]\011/* SetDeltaBaseInGState */
SHP[0]\011/* ShiftPointByLastPoint */
SRP1[ ]\011/* SetRefPoint1 */
SHP[1]\011/* ShiftPointByLastPoint */
IUP[1]\011/* InterpolateUntPts */
IUP[0]\011/* InterpolateUntPts */
RS[ ]\011/* ReadStore */
JROF[ ]\011/* JumpRelativeOnFalse */
NPUSHB[ ]\011/* 28 values pushed */
17 22 4 9 21 38 8 38 4 22 6 90 0 9 17 6 90 0 5 20 3 90 1 7 18 10 90 0 
CALL[ ]\011/* CallFunction */
CALL[ ]\011/* CallFunction */
SVTCA[1]\011/* SetFreedomAndProjectionVectorToAxis */
CALL[ ]\011/* CallFunction */
CALL[ ]\011/* CallFunction */
CALL[ ]\011/* CallFunction */
CALL[ ]\011/* CallFunction */
FLIPRGON[ ]\011/* FlipRangeOn */
FLIPRGON[ ]\011/* FlipRangeOn */
SVTCA[1]\011/* SetFreedomAndProjectionVectorToAxis */
CALL[ ]\011/* CallFunction */
CALL[ ]\011/* CallFunction */
DELTAP1[ ]\011/* DeltaExceptionP1 */";
};
width = 1325;
}
);
note = c;
unicode = 0063;
},
{
glyphname = d;
lastChange = "2018-11-24 07:25:13 +0000";
layers = (
{
layerId = "F6FCABFB-DB8B-4A8A-BD05-D26D4B0CC58D";
paths = (
{
closed = 1;
nodes = (
"1104 1508 LINE",
"1104 888 LINE",
"994.667 1040 OFFCURVE",
"849.667 1116 OFFCURVE",
"671 1116 CURVE SMOOTH",
"361.667 1116 OFFCURVE",
"109 860.333 OFFCURVE",
"109 547 CURVE SMOOTH",
"109 227 OFFCURVE",
"359 -28 OFFCURVE",
"667 -28 CURVE SMOOTH",
"840.333 -28 OFFCURVE",
"986.667 44.333 OFFCURVE",
"1104 187 CURVE",
"1104 0 LINE",
"1242 0 LINE",
"1242 1508 LINE"
);
},
{
closed = 1;
nodes = (
"924.667 981 OFFCURVE",
"1113 790 OFFCURVE",
"1113 538 CURVE SMOOTH",
"1113 372.667 OFFCURVE",
"1036.333 235.333 OFFCURVE",
"899 158 CURVE SMOOTH",
"830.333 119.333 OFFCURVE",
"757.667 100 OFFCURVE",
"681 100 CURVE SMOOTH",
"529 100 OFFCURVE",
"387.667 182 OFFCURVE",
"309 322 CURVE SMOOTH",
"269.667 392 OFFCURVE",
"250 465.333 OFFCURVE",
"250 542 CURVE SMOOTH",
"250 696.667 OFFCURVE",
"334 846.833 OFFCURVE",
"466 923.5 CURVE SMOOTH",
"532 961.833 OFFCURVE",
"604 981 OFFCURVE",
"682 981 CURVE SMOOTH"
);
}
);
userData = {
assembly = "NPUSHB[ ]\011/* 45 values pushed */
30 64 25 6 27 64 12 17 41 8 15 29 3 2 25 88 6 11 2 10 17 88 12 7 0 0 0 16 15 29 3 5 2 92 1 74 33 21 105 9 73 32 96 118 24 
CALL[ ]\011/* CallFunction */
FLIPOFF[ ]\011/* SetAutoFlipOff */
SRP0[ ]\011/* SetRefPoint0 */
MIRP[10100]\011/* MoveIndirectRelPt */
FLIPON[ ]\011/* SetAutoFlipOn */
MIRP[01101]\011/* MoveIndirectRelPt */
FLIPOFF[ ]\011/* SetAutoFlipOff */
SRP0[ ]\011/* SetRefPoint0 */
MIRP[10110]\011/* MoveIndirectRelPt */
FLIPON[ ]\011/* SetAutoFlipOn */
MIRP[01101]\011/* MoveIndirectRelPt */
SLOOP[ ]\011/* SetLoopVariable */
IP[ ]\011/* InterpolatePts */
SVTCA[0]\011/* SetFreedomAndProjectionVectorToAxis */
MIAP[1]\011/* MoveIndirectAbsPt */
MIAP[1]\011/* MoveIndirectAbsPt */
MIRP[01101]\011/* MoveIndirectRelPt */
MIAP[1]\011/* MoveIndirectAbsPt */
MIAP[1]\011/* MoveIndirectAbsPt */
MIRP[01101]\011/* MoveIndirectRelPt */
SPVTCA[1]\011/* SetPVectorToAxis */
SFVTPV[ ]\011/* SetFVectorToPVector */
SRP0[ ]\011/* SetRefPoint0 */
ALIGNRP[ ]\011/* AlignRelativePt */
RDTG[ ]\011/* RoundDownToGrid */
MDRP[00100]\011/* MoveDirectRelPt */
ALIGNRP[ ]\011/* AlignRelativePt */
IUP[1]\011/* InterpolateUntPts */
IUP[0]\011/* InterpolateUntPts */
RTG[ ]\011/* RoundToGrid */
RS[ ]\011/* ReadStore */
JROF[ ]\011/* JumpRelativeOnFalse */
NPUSHB[ ]\011/* 28 values pushed */
18 24 7 11 23 38 19 37 24 7 21 90 0 18 11 21 90 0 22 8 25 90 0 20 10 17 90 1 
SVTCA[0]\011/* SetFreedomAndProjectionVectorToAxis */
CALL[ ]\011/* CallFunction */
CALL[ ]\011/* CallFunction */
SVTCA[1]\011/* SetFreedomAndProjectionVectorToAxis */
CALL[ ]\011/* CallFunction */
CALL[ ]\011/* CallFunction */
CALL[ ]\011/* CallFunction */
CALL[ ]\011/* CallFunction */
FLIPRGON[ ]\011/* FlipRangeOn */
FLIPRGON[ ]\011/* FlipRangeOn */
SVTCA[0]\011/* SetFreedomAndProjectionVectorToAxis */
MD[0]\011/* MeasureDistance */
EQ[ ]\011/* Equal */
JROF[ ]\011/* JumpRelativeOnFalse */
NPUSHB[ ]\011/* 16 values pushed */
30 31 13 14 30 14 17 104 5 31 13 29 104 1 14 15 
SVTCA[1]\011/* SetFreedomAndProjectionVectorToAxis */
SRP0[ ]\011/* SetRefPoint0 */
ALIGNRP[ ]\011/* AlignRelativePt */
CALL[ ]\011/* CallFunction */
SVTCA[0]\011/* SetFreedomAndProjectionVectorToAxis */
CALL[ ]\011/* CallFunction */
FLIPRGON[ ]\011/* FlipRangeOn */
FLIPRGON[ ]\011/* FlipRangeOn */
SVTCA[0]\011/* SetFreedomAndProjectionVectorToAxis */
MD[0]\011/* MeasureDistance */
EQ[ ]\011/* Equal */
JROF[ ]\011/* JumpRelativeOnFalse */
NPUSHB[ ]\011/* 18 values pushed */
26 28 4 5 27 37 28 4 25 104 4 26 5 29 104 1 4 3 
SVTCA[1]\011/* SetFreedomAndProjectionVectorToAxis */
SRP0[ ]\011/* SetRefPoint0 */
ALIGNRP[ ]\011/* AlignRelativePt */
CALL[ ]\011/* CallFunction */
SVTCA[0]\011/* SetFreedomAndProjectionVectorToAxis */
CALL[ ]\011/* CallFunction */
CALL[ ]\011/* CallFunction */
FLIPRGON[ ]\011/* FlipRangeOn */
FLIPRGON[ ]\011/* FlipRangeOn */";
};
width = 1403;
}
);
note = d;
unicode = 0064;
},
